<?xml version="1.0" standalone="no"?>
<!DOCTYPE svg PUBLIC "-//W3C//DTD SVG 1.1//EN" "http://www.w3.org/Graphics/SVG/1.1/DTD/svg11.dtd" >
<svg>
<metadata>
Created by FontForge 20090622 at Thu Jul 11 12:38:27 2019
 By deploy user
Copyright (c) 2009 by The Entente (AS &#38; EH). All rights reserved.
</metadata>
<defs>
<font id="Reader-Medium" horiz-adv-x="600" >
  <font-face 
    font-family="Reader"
    font-weight="500"
    font-stretch="normal"
    units-per-em="1000"
    panose-1="2 0 6 3 0 0 0 2 0 4"
    ascent="750"
    descent="-250"
    x-height="529"
    cap-height="710"
    bbox="-35 -237 1085 939"
    underline-thickness="50"
    underline-position="-50"
    unicode-range="U+0020-U+FB02"
  />
<missing-glyph horiz-adv-x="552" 
d="M70 0v710h412v-710h-412zM155 84h242v541h-242v-541z" />
    <glyph glyph-name=".notdef" horiz-adv-x="552" 
d="M70 0v710h412v-710h-412zM155 84h242v541h-242v-541z" />
    <glyph glyph-name=".null" horiz-adv-x="0" 
 />
    <glyph glyph-name="nonmarkingreturn" horiz-adv-x="333" 
 />
    <glyph glyph-name="space" unicode=" " horiz-adv-x="285" 
 />
    <glyph glyph-name="exclam" unicode="!" horiz-adv-x="201" 
d="M161 125v-125h-121v125h121zM60 208l-18 307v195h117v-195l-19 -307h-80z" />
    <glyph glyph-name="quotedbl" unicode="&#x22;" horiz-adv-x="397" 
d="M159 599l-14 -125h-80l-13 125v111h107v-111zM345 599l-14 -125h-80l-13 125v111h107v-111z" />
    <glyph glyph-name="numbersign" unicode="#" 
d="M290 0l39 188h-142l-38 -188h-113l39 188h-103v105h125l28 137h-108v105h130l37 175h112l-37 -175h141l37 175h113l-37 -175h112v-105h-134l-28 -137h117v-105h-139l-39 -188h-112zM237 430l-28 -137h141l29 137h-142z" />
    <glyph glyph-name="dollar" unicode="$" horiz-adv-x="590" 
d="M355 407q227 -29 227 -196q0 -99 -59.5 -153.5t-167.5 -64.5v-75h-109v77q-178 25 -254 145l98 56q54 -76 156 -95v213q-75 7 -121 24.5t-78 57.5q-33 42 -33 108q0 95 62.5 149.5t169.5 63.5v77h109v-81q139 -18 194 -112l-99 -55q-28 40 -95 60v-199zM246 416v197
q-128 -14 -128 -109q0 -73 128 -88zM355 97q55 7 88.5 36t33.5 78q0 44 -31 66t-91 29v-209z" />
    <glyph glyph-name="percent" unicode="%" horiz-adv-x="671" 
d="M54 0l464 710h97l-465 -710h-96zM317 549q0 -75 -26 -121q-29 -54 -116 -54q-78 0 -110.5 44.5t-32.5 130.5q0 170 143 170q87 0 116 -55q26 -46 26 -115zM241 549q0 62 -15 84q-16 22 -51 22q-33 0 -47 -17.5t-19 -48.5q-2 -40 0 -81q1 -13 8 -33q4 -26 38 -33.5t57 5.5
q25 16 27 61q2 20 2 41zM631 166q0 -76 -26 -121q-29 -54 -117 -54q-78 0 -110.5 44.5t-32.5 130.5q0 170 143 170t143 -170zM450 65q15 -9 38 -9t37 9q21 13 28 60q6 41 0 81q-2 43 -28 57q-14 9 -37 9t-38 -9q-21 -12 -28 -57q-2 -40 0 -81q7 -47 28 -60z" />
    <glyph glyph-name="ampersand" unicode="&#x26;" horiz-adv-x="660" 
d="M520 323l74 -79q-25 -48 -68 -96l139 -148h-148l-57 67q-32 -32 -89 -54t-112 -22q-41 0 -81 11.5t-77.5 35t-61 66.5t-23.5 100q0 61 37 112t104 83q-40 45 -61 88q-13 29 -13 58q0 79 51.5 126.5t142.5 47.5q77 0 127 -48t50 -126q0 -109 -127 -182l127 -136
q33 37 66 96zM264 615q-32 0 -51.5 -20t-19.5 -50q0 -46 65 -109q84 48 84 109q0 34 -17.5 52t-60.5 18zM142 148q35 -57 118 -57q82 0 128 54l-158 175q-46 -16 -75.5 -48t-29.5 -69q0 -27 17 -55z" />
    <glyph glyph-name="quotesingle" unicode="'" horiz-adv-x="211" 
d="M159 599l-14 -125h-80l-13 125v111h107v-111z" />
    <glyph glyph-name="parenleft" unicode="(" horiz-adv-x="393" 
d="M88 272q0 179 68 321q40 84 127 177l78 -69q-77 -83 -111 -153q-51 -108 -51 -276q0 -179 51 -284q40 -81 111 -156l-78 -69q-87 93 -127 178q-68 142 -68 331z" />
    <glyph glyph-name="parenright" unicode=")" horiz-adv-x="393" 
d="M305 272q0 -189 -68 -331q-40 -85 -127 -178l-78 69q70 75 111 156q51 105 51 284q0 168 -51 276q-35 70 -111 153l78 69q87 -93 127 -177q68 -142 68 -321z" />
    <glyph glyph-name="asterisk" unicode="*" horiz-adv-x="480" 
d="M240 415l-89 -127l-85 62l94 123l-146 42l32 102l146 -51l-3 153h104l-6 -153l147 51l32 -102l-147 -42l91 -123l-84 -62z" />
    <glyph glyph-name="plus" unicode="+" 
d="M245 566h111v-226h214v-94h-214v-233h-111v233h-215v94h215v226z" />
    <glyph glyph-name="comma" unicode="," horiz-adv-x="206" 
d="M169 125v-103q0 -68 -11 -95q-11 -26 -65 -67l-36 44q23 15 35 31.5t14 28.5t1 29v7h-58v125h120z" />
    <glyph glyph-name="hyphen" unicode="-" horiz-adv-x="434" 
d="M46 244v99h342v-99h-342z" />
    <glyph glyph-name="period" unicode="." horiz-adv-x="220" 
d="M170 125v-125h-120v125h120z" />
    <glyph glyph-name="slash" unicode="/" horiz-adv-x="506" 
d="M108 0h-128l389 719h129z" />
    <glyph glyph-name="zero" unicode="0" horiz-adv-x="590" 
d="M544 359q0 -128 -26 -212q-17 -51 -43 -83q-59 -73 -180 -73q-173 0 -223 157q-26 83 -26 212q0 121 26 201q17 50 42 83q61 75 181 75q177 -4 223 -158q26 -80 26 -202zM433 349v19q0 59 -6 112q-3 34 -12 53q-17 39 -44 60.5t-76 21.5t-76 -21.5t-44 -60.5
q-8 -18 -13 -53l-4 -55q-1 -14 -1 -57v-19q0 -59 3 -99q4 -43 24 -90q30 -65 111 -65q51 0 87 30q23 20 39 76q11 34 11 98q1 13 1 50z" />
    <glyph glyph-name="one" unicode="1" horiz-adv-x="590" 
d="M279 710h111v-710h-111v484h-155v105q25 0 56 7q28 8 47 18q22 13 37 38.5t15 57.5z" />
    <glyph glyph-name="two" unicode="2" horiz-adv-x="590" 
d="M157 104h353v-104h-464v104q0 59 28 113q10 19 39 42q34 29 44 35q17 12 60 39l65 42q58 37 79 64t21 68q0 47 -29 76.5t-75 29.5q-83 0 -154 -72l-74 78q51 51 104.5 75.5t123.5 24.5q99 0 157 -56t58 -156q0 -77 -35 -123q-35 -44 -127 -105q-14 -8 -38 -24l-42 -27
q-14 -10 -34 -26q-33 -25 -51 -62q-9 -18 -9 -36z" />
    <glyph glyph-name="three" unicode="3" horiz-adv-x="590" 
d="M418 388q61 -19 92 -65.5t31 -105.5q0 -110 -68.5 -168t-187.5 -58q-69 0 -139 29q-67 28 -106 82l81 74q61 -81 164 -81q71 0 107.5 28.5t36.5 93.5q0 118 -174 118v104q84 0 122 21q34 21 34 66q0 91 -126 91q-87 0 -154 -78l-74 71q38 53 98.5 81t129.5 28
q234 0 234 -193q0 -45 -26 -86q-26 -42 -75 -52z" />
    <glyph glyph-name="four" unicode="4" horiz-adv-x="590" 
d="M565 239v-104h-122v-135h-111v135h-307v104l266 471h130l-266 -471h177v207h111v-207h122z" />
    <glyph glyph-name="five" unicode="5" horiz-adv-x="590" 
d="M305 491q104 0 165 -62.5t61 -177.5q0 -106 -71 -179q-70 -72 -185 -72q-145 0 -236 105l82 73q24 -32 68 -53.5t86 -21.5q64 2 104 42q42 41 42 106q0 64 -34.5 100.5t-98.5 36.5q-92 0 -124 -83h-107l31 405h402v-103h-303l-14 -179q20 29 57 46t75 17z" />
    <glyph glyph-name="six" unicode="6" horiz-adv-x="590" 
d="M306 -9q-260 0 -260 330q0 193 71 295.5t211 102.5q114 0 190 -67l-56 -77q-39 29 -71 37q-30 8 -71 8q-45 0 -92 -35q-60 -42 -74 -178q25 45 73 64q48 18 93 18q108 0 175 -67q68 -68 68 -173q0 -120 -69 -189t-188 -69zM306 388q-66 0 -107.5 -40.5t-41.5 -106.5
q0 -70 40 -108t109 -38q68 0 107 38.5t39 107.5q0 68 -39 107.5t-107 39.5z" />
    <glyph glyph-name="seven" unicode="7" horiz-adv-x="590" 
d="M70 710h481v-104q-209 -237 -231 -606h-111q13 337 224 606h-363v104z" />
    <glyph glyph-name="eight" unicode="8" horiz-adv-x="590" 
d="M165 376q-45 18 -69.5 56.5t-24.5 85.5q0 94 65 147q66 54 159 54q100 0 161 -55q62 -56 62 -146q0 -45 -25.5 -84t-67.5 -58q52 -12 80.5 -58.5t28.5 -109.5q0 -100 -68 -159q-67 -58 -171 -58q-107 0 -173 57q-66 58 -66 160q0 58 30 106q31 48 79 62zM295 423
q50 0 83 25.5t33 69.5q0 47 -32 72t-84 25q-51 0 -83 -25q-32 -24 -32 -72t32 -72q34 -23 83 -23zM295 95q58 0 92.5 28t35.5 85q-2 55 -36.5 83t-91.5 28t-92.5 -28.5t-35.5 -82.5q0 -57 34.5 -85t93.5 -28z" />
    <glyph glyph-name="nine" unicode="9" horiz-adv-x="590" 
d="M284 719q260 0 260 -330q0 -193 -71 -295.5t-211 -102.5q-114 0 -190 67l56 77q41 -30 70 -38q28 -7 72 -7q43 0 92 34q60 45 74 179q-25 -46 -74 -64q-46 -18 -92 -18q-109 0 -176 67t-67 173q0 120 69 189t188 69zM284 322q66 0 107.5 40.5t41.5 106.5q0 70 -40 108
t-109 38q-68 0 -107 -38.5t-39 -107.5q0 -68 39 -107.5t107 -39.5z" />
    <glyph glyph-name="colon" unicode=":" horiz-adv-x="220" 
d="M170 125v-125h-120v125h120zM170 535v-126h-120v126h120z" />
    <glyph glyph-name="semicolon" unicode=";" horiz-adv-x="220" 
d="M170 125v-103q0 -68 -11 -95q-11 -26 -65 -67l-36 44q23 15 35 31.5t14 28.5t1 29v7h-58v125h120zM170 535v-126h-120v126h120z" />
    <glyph glyph-name="less" unicode="&#x3c;" 
d="M96 292v49l338 293l69 -80l-276 -237l276 -237l-69 -80z" />
    <glyph glyph-name="equal" unicode="=" 
d="M529 440v-118h-458v118h458zM529 205v-118h-458v118h458z" />
    <glyph glyph-name="greater" unicode="&#x3e;" horiz-adv-x="503" 
d="M457 341v-49l-338 -292l-69 80l276 237l-276 237l69 80z" />
    <glyph glyph-name="question" unicode="?" horiz-adv-x="571" 
d="M277 719q94 0 159 -49q66 -48 66 -140q0 -59 -25 -96q-26 -38 -92 -82q-42 -29 -58 -55t-16 -66v-32h-106v41q0 63 25 106t87 86q5 4 13 9.5l11.5 8t9 7l8.5 7t7.5 7t8 9t7.5 10.5q14 22 14 42q0 41 -34.5 67t-84.5 26q-46 0 -91.5 -27.5t-75.5 -71.5l-75 67
q42 57 106.5 91.5t135.5 34.5zM318 125v-125h-120v125h120z" />
    <glyph glyph-name="at" unicode="@" horiz-adv-x="768" 
d="M377 152q76 0 92 31q13 26 13 76v22q-19 -25 -86 -25q-60 0 -73 -21q-10 -14 -10 -36q0 -47 64 -47zM718 295q0 -107 -39.5 -161.5t-110.5 -54.5q-29 0 -49 8t-26.5 16t-4.5 11q-46 -42 -119 -42q-64 0 -105.5 34.5t-41.5 92.5q0 80 61 104q47 20 134 24q54 1 54 36
q0 20 -18 32t-51 12q-69 0 -102 -46l-54 52q54 69 156 69q72 0 114.5 -38.5t42.5 -106.5v-141q0 -18 4 -26t20 -8q21 0 28 30.5t7 102.5q0 118 -50 177q-49 58 -177 58q-109 0 -177 -74q-67 -73 -67 -187q0 -116 64 -193q65 -77 180 -77q71 0 102 6q30 6 78 29l76 -70
q-52 -34 -110 -46q-56 -13 -148 -13q-156 0 -249 101t-93 263q0 152 94 258t250 106q160 0 243.5 -85.5t83.5 -252.5z" />
    <glyph glyph-name="A" unicode="A" horiz-adv-x="677" 
d="M554 0l-67 177h-297l-68 -177h-119l277 710h117l277 -710h-120zM230 282h217l-108 276z" />
    <glyph glyph-name="B" unicode="B" horiz-adv-x="672" 
d="M420 0h-350v710h327q38 0 73 -10.5t66.5 -32.5t50.5 -61.5t19 -92.5q0 -71 -73 -123q49 -28 77 -75.5t28 -104.5q0 -88 -64 -149t-154 -61zM397 606h-212v-186h213q15 0 29 3.5t29.5 12.5t25 28.5t9.5 48.5t-9.5 48.5t-25 28.5t-30 12.5t-29.5 3.5zM419 104
q102 2 102 106q0 106 -95 106h-241v-212h234z" />
    <glyph glyph-name="C" unicode="C" horiz-adv-x="704" 
d="M408 95q124 1 175 114l96 -56q-40 -77 -109.5 -119.5t-161.5 -42.5q-150 0 -244 105q-94 104 -94 259t94 259q94 105 244 105q92 0 161.5 -43t109.5 -120l-96 -56q-51 114 -175 114q-102 0 -162 -74t-60 -185t60 -185t162 -75z" />
    <glyph glyph-name="D" unicode="D" horiz-adv-x="676" 
d="M305 0h-235v710h235q149 0 245 -101q97 -100 97 -254q0 -155 -96 -255t-246 -100zM185 104h120q103 0 165 69q62 71 62 182t-62 181q-61 70 -165 70h-120v-502z" />
    <glyph glyph-name="E" unicode="E" horiz-adv-x="584" 
d="M70 710h491v-104h-376v-186h308v-104h-308v-212h380v-104h-495v710z" />
    <glyph glyph-name="F" unicode="F" horiz-adv-x="555" 
d="M540 606h-355v-186h287v-104h-287v-316h-115v710h470v-104z" />
    <glyph glyph-name="G" unicode="G" horiz-adv-x="720" 
d="M389 386h282v-386h-95l-20 51q-75 -60 -173 -60q-153 0 -251 104q-96 103 -96 260t96 260q98 104 251 104q196 0 278 -163l-100 -56q-51 114 -178 114q-105 0 -167 -74q-61 -73 -61 -185t61 -185q62 -74 167 -74q81 0 126.5 48t45.5 137h-166v105z" />
    <glyph glyph-name="H" unicode="H" horiz-adv-x="674" 
d="M604 0h-115v315h-304v-315h-115v710h115v-291h304v291h115v-710z" />
    <glyph glyph-name="I" unicode="I" horiz-adv-x="255" 
d="M185 0h-115v710h115v-710z" />
    <glyph glyph-name="J" unicode="J" horiz-adv-x="511" 
d="M446 710v-508q0 -97 -55.5 -154t-161.5 -57q-98 0 -155 60q-56 61 -56 151h104q1 -49 28.5 -78t78.5 -29q57 0 79.5 29t22.5 96v490h115z" />
    <glyph glyph-name="K" unicode="K" horiz-adv-x="648" 
d="M489 710h145l-269 -294l286 -416h-137l-221 336l-108 -119v-217h-115v710h115v-342z" />
    <glyph glyph-name="L" unicode="L" horiz-adv-x="556" 
d="M185 104h355v-104h-470v710h115v-606z" />
    <glyph glyph-name="M" unicode="M" horiz-adv-x="909" 
d="M185 0h-115v710h196l189 -557l188 557h196v-710h-114v601l-219 -601h-103l-218 601v-601z" />
    <glyph glyph-name="N" unicode="N" horiz-adv-x="681" 
d="M611 0h-119l-307 513v-513h-115v710h119l307 -514v514h115v-710z" />
    <glyph glyph-name="O" unicode="O" horiz-adv-x="770" 
d="M135 613q99 106 250 106t250 -106q99 -105 99 -258t-99 -259q-99 -105 -250 -105t-250 105q-99 106 -99 259t99 258zM385 95q103 0 168 75q65 76 65 185t-65 185q-65 75 -168 75q-105 0 -169 -75q-64 -74 -64 -185t64 -185q64 -75 169 -75z" />
    <glyph glyph-name="P" unicode="P" horiz-adv-x="638" 
d="M70 710h335q98 0 162 -64q66 -64 66 -156q0 -94 -67 -157q-66 -63 -167 -63h-214v-270h-115v710zM399 374q54 0 86.5 32t32.5 84q0 51 -32.5 83.5t-86.5 32.5h-214v-232h214z" />
    <glyph glyph-name="Q" unicode="Q" horiz-adv-x="779" 
d="M674 147l4 -5q41 -35 89 -35v-116q-95 0 -166 66l-5 5q-92 -71 -211 -71q-151 0 -250 105q-99 106 -99 259t99 258q99 106 250 106q152 0 249 -106q99 -105 99 -258q0 -116 -59 -208zM385 96q83 0 142 49l-22 32q-20 30 -53 41q-21 7 -75 7v116h8q61 -1 101 -13
q69 -21 112 -83q20 54 20 110q-2 110 -66 185q-65 75 -167 75q-105 0 -169 -75q-64 -74 -64 -185t64 -185q65 -74 169 -74z" />
    <glyph glyph-name="R" unicode="R" horiz-adv-x="668" 
d="M70 710h335q98 0 162 -64q65 -65 65 -156q0 -76 -46 -134q-47 -58 -120 -77l196 -279h-134l-190 270h-153v-270h-115v710zM398 606h-213v-232h213q61 0 90 28t29 88q0 116 -119 116z" />
    <glyph glyph-name="S" unicode="S" horiz-adv-x="633" 
d="M603 212q0 -113 -74 -167q-73 -54 -193 -54q-215 0 -322 149l98 56q75 -101 225 -101q64 0 113 27.5t49 89.5q0 38 -25.5 59.5t-66 29t-89.5 11t-98 11.5t-89.5 25t-66 56t-25.5 100q0 108 75 161q75 54 192 54q195 0 265 -118l-99 -55q-23 32 -69.5 50.5t-96.5 18.5
q-64 2 -114.5 -26.5t-51.5 -84.5q0 -29 15.5 -47t47 -26.5t62 -12.5t78.5 -8.5t78 -10.5q183 -25 182 -187z" />
    <glyph glyph-name="T" unicode="T" horiz-adv-x="591" 
d="M582 710v-104h-229v-606h-115v606h-229v104h573z" />
    <glyph glyph-name="U" unicode="U" horiz-adv-x="695" 
d="M639 710v-368q0 -159 -60 -250q-67 -101 -238 -101q-170 0 -231 95q-54 86 -54 256v368h115v-368q0 -117 28 -175q34 -71 142 -71q100 0 141.5 61t41.5 185v368h115z" />
    <glyph glyph-name="V" unicode="V" horiz-adv-x="625" 
d="M313 153l188 557h121l-252 -710h-114l-253 710h121z" />
    <glyph glyph-name="W" unicode="W" horiz-adv-x="959" 
d="M829 710h124l-204 -710h-124l-145 503l-146 -503h-122l-206 710h125l142 -522l141 522h131l142 -522z" />
    <glyph glyph-name="X" unicode="X" horiz-adv-x="649" 
d="M323 279l-194 -279h-119l251 369l-226 341h136l157 -242l163 242h131l-230 -332l252 -378h-137z" />
    <glyph glyph-name="Y" unicode="Y" horiz-adv-x="601" 
d="M302 379l176 331h124l-244 -448v-262h-115v262l-244 448h124z" />
    <glyph glyph-name="Z" unicode="Z" horiz-adv-x="557" 
d="M161 104h378v-104h-521v104l368 502h-350v104h494v-104z" />
    <glyph glyph-name="bracketleft" unicode="[" horiz-adv-x="315" 
d="M65 -159v933h235v-95h-135v-743h135v-95h-235z" />
    <glyph glyph-name="backslash" unicode="\" horiz-adv-x="528" 
d="M523 0h-128l-390 719h129z" />
    <glyph glyph-name="bracketright" unicode="]" horiz-adv-x="315" 
d="M250 774v-933h-235v95h135v743h-135v95h235z" />
    <glyph glyph-name="asciicircum" unicode="^" horiz-adv-x="689" 
d="M120 474l152 236h146l151 -236h-132l-93 121l-91 -121h-133z" />
    <glyph glyph-name="underscore" unicode="_" horiz-adv-x="467" 
d="M471 0v-109h-475v109h475z" />
    <glyph glyph-name="grave" unicode="`" horiz-adv-x="391" 
d="M210 719l81 -149h-87l-104 149h110z" />
    <glyph glyph-name="a" unicode="a" horiz-adv-x="515" 
d="M493 18v-18h-80q-36 0 -36 50q-32 -32 -63 -45.5t-82 -13.5q-87 0 -141 42t-54 121q3 67 30 103t81 50q50 15 147 20q79 3 79 51q0 28 -29 48.5t-73 20.5q-87 0 -132 -63l-71 62q69 92 203 92q95 0 149.5 -51t54.5 -145v-303q0 -21 17 -21zM232 78q88 0 117 41t29 118v30
q-13 -17 -57 -25q-4 0 -9.5 -0.5t-14 -1t-15.5 -0.5q-17 -1 -28 -1q-108 -5 -108 -85q0 -30 22 -53t64 -23z" />
    <glyph glyph-name="b" unicode="b" horiz-adv-x="623" 
d="M510 461q77 -83 77 -196q0 -114 -76 -196q-73 -78 -188 -78q-75 0 -131 55l-18 -46h-109v710h109v-246q60 74 149 74q116 0 187 -77zM323 88q67 0 111 53t44 124q0 70 -43 122q-42 54 -112 54q-67 0 -112 -50q-44 -50 -44 -126q0 -78 45 -126q48 -51 111 -51z" />
    <glyph glyph-name="c" unicode="c" horiz-adv-x="557" 
d="M425 171l97 -50q-70 -130 -215 -130q-112 0 -192 80q-79 79 -79 193q0 119 74 196q73 78 197 78q139 0 215 -126l-97 -55q-15 35 -46.5 59t-71.5 24q-78 0 -116.5 -48t-38.5 -128t38.5 -127.5t116.5 -47.5t118 82z" />
    <glyph glyph-name="d" unicode="d" horiz-adv-x="623" 
d="M113 461q71 77 187 77q89 0 149 -74v246h109v-710h-109l-18 46q-56 -55 -131 -55q-114 0 -188 78q-76 82 -76 196q0 113 77 196zM300 88q63 0 111 51q45 48 45 126q0 76 -44 126q-45 50 -112 50q-69 0 -113 -54q-42 -53 -42 -122q0 -72 43 -124q44 -53 112 -53z" />
    <glyph glyph-name="e" unicode="e" horiz-adv-x="586" 
d="M550 274v-50h-408q16 -136 156 -136q104 0 148 74l81 -48q-33 -56 -94 -89.5t-135 -33.5q-122 0 -192 73t-70 200q0 120 71 197q72 77 191 77q113 0 180 -73q67 -72 72 -191zM145 321h306q-10 57 -51.5 90t-101.5 33q-59 0 -99.5 -32t-53.5 -91z" />
    <glyph glyph-name="f" unicode="f" horiz-adv-x="319" 
d="M315 614q-30 6 -51 6q-33 0 -47 -20.5t-14 -70.5h100v-95h-100v-434h-108v434h-91v95h91q0 103 33.5 146.5t109.5 43.5q29 0 77 -7v-98z" />
    <glyph glyph-name="g" unicode="g" horiz-adv-x="601" 
d="M540 529v-459q0 -131 -66 -195t-187 -64q-170 0 -249 76l70 82q65 -62 177 -62q75 0 110.5 39.5t35.5 123.5q-18 -38 -57 -60.5t-92 -22.5q-110 0 -178 81q-66 82 -66 196q0 110 69 192t183 82q71 0 126 -49l15 40h109zM290 84q69 0 109 52t40 128q0 73 -40 125t-109 52
q-72 0 -107.5 -48.5t-35.5 -128.5q0 -74 34 -127q35 -53 109 -53z" />
    <glyph glyph-name="h" unicode="h" 
d="M539 338v-338h-109v322q0 64 -23.5 91.5t-68.5 27.5q-164 0 -164 -223v-218h-109v710h109v-259q70 87 171 87q194 0 194 -200z" />
    <glyph glyph-name="i" unicode="i" horiz-adv-x="247" 
d="M69 0v529h109v-529h-109zM182 710v-118h-117v118h117z" />
    <glyph glyph-name="j" unicode="j" horiz-adv-x="269" 
d="M91 710h117v-118h-117v118zM95 -12v541h109v-550q0 -98 -31 -132q-31 -36 -98 -36q-32 0 -87 7v94q32 -5 46 -5q33 0 47 18.5t14 62.5z" />
    <glyph glyph-name="k" unicode="k" horiz-adv-x="560" 
d="M344 332l228 -332h-133l-167 254l-98 -108v-146h-109v710h109v-416l209 235h140z" />
    <glyph glyph-name="l" unicode="l" horiz-adv-x="239" 
d="M174 0h-109v710h109v-710z" />
    <glyph glyph-name="m" unicode="m" horiz-adv-x="872" 
d="M811 305v-305h-109v317q0 63 -20 93.5t-69 30.5q-38 0 -60.5 -17t-37.5 -66q-16 -49 -16 -140v-218h-109v305q0 136 -89 136q-127 0 -127 -199v-242h-109v529h108l18 -46q51 55 116 55q113 0 157 -80q31 41 72.5 60.5t76.5 19.5q76 0 124 -30q38 -23 57 -73
q16 -35 16 -89q1 -11 1 -41z" />
    <glyph glyph-name="n" unicode="n" horiz-adv-x="601" 
d="M540 330v-330h-109v323q0 63 -26 92t-66 29q-165 0 -165 -226v-218h-109v529h109l22 -53q67 62 149 62q195 0 195 -208z" />
    <glyph glyph-name="o" unicode="o" horiz-adv-x="598" 
d="M562 264q0 -114 -74 -194q-73 -79 -188 -79q-110 0 -187 80t-77 193q0 108 75 191t189 83q113 0 187 -83q75 -83 75 -191zM300 85q69 0 111 53q43 52 43 126q0 73 -41 126q-41 54 -113 54q-70 0 -114 -53q-42 -52 -42 -127q0 -74 41 -127q42 -52 115 -52z" />
    <glyph glyph-name="p" unicode="p" horiz-adv-x="623" 
d="M510 69q-72 -78 -187 -78q-87 0 -149 75v-246h-109v709h109l18 -45q56 54 131 54q116 0 188 -77q76 -82 76 -196q0 -113 -77 -196zM323 441q-64 0 -111 -50q-45 -48 -45 -126q0 -76 44 -126q47 -51 112 -51q70 0 112 54q43 53 43 123t-44 123t-111 53z" />
    <glyph glyph-name="q" unicode="q" horiz-adv-x="623" 
d="M113 69q-77 83 -77 196q0 114 76 196q72 77 188 77q76 0 131 -54l18 45h109v-709h-109v246q-61 -75 -149 -75q-115 0 -187 78zM300 441q-68 0 -112 -53q-43 -52 -43 -123q0 -69 42 -123q44 -54 113 -54q66 0 112 51q44 50 44 126q0 78 -45 126q-47 50 -111 50z" />
    <glyph glyph-name="r" unicode="r" horiz-adv-x="395" 
d="M344 538q18 0 39 -4v-94q-12 4 -39 4q-75 0 -123 -55q-48 -54 -48 -183v-206h-108v529h108l24 -61q69 70 147 70z" />
    <glyph glyph-name="s" unicode="s" horiz-adv-x="490" 
d="M130 383q0 -19 12 -32t36.5 -22t47.5 -14t59 -12t57 -13q51 -13 83 -48t32 -89q0 -81 -59 -122q-58 -40 -145 -40q-130 0 -197 67q-27 27 -39 55l85 30q43 -58 153 -58q39 -2 69 12.5t32 49.5q0 25 -24 40.5t-60 21.5t-77.5 17t-77.5 25.5t-60 48t-24 83.5q0 78 59 116
q59 39 140 39q56 0 104 -18q48 -17 68 -33q19 -14 27 -26l-67 -60q-43 43 -132 43q-101 0 -102 -61z" />
    <glyph glyph-name="t" unicode="t" horiz-adv-x="355" 
d="M205 168q0 -42 19 -60t58 -18q16 0 52 4l6 2v-93q-72 -12 -111 -12q-69 0 -100.5 37.5t-31.5 130.5v275h-100v95h100v181h108v-181h135v-95h-135v-266z" />
    <glyph glyph-name="u" unicode="u" 
d="M60 199v330h109v-323q0 -63 26 -92t66 -29q165 0 165 226v218h109v-529h-109l-22 53q-67 -62 -149 -62q-195 0 -195 208z" />
    <glyph glyph-name="v" unicode="v" horiz-adv-x="509" 
d="M517 529l-209 -529h-107l-209 529h116l147 -383l147 383h115z" />
    <glyph glyph-name="w" unicode="w" horiz-adv-x="734" 
d="M367 374l-110 -374h-104l-161 529h113l100 -362l100 362h124l100 -362l100 362h113l-161 -529h-104z" />
    <glyph glyph-name="x" unicode="x" horiz-adv-x="493" 
d="M244 180l-120 -180h-115l179 267l-172 262h127l105 -170l106 170h122l-171 -259l182 -270h-126z" />
    <glyph glyph-name="y" unicode="y" horiz-adv-x="555" 
d="M281 140l155 389h117l-225 -547q-47 -114 -97 -143q-28 -17 -56.5 -22.5t-80.5 -5.5v108q77 0 102 27q9 10 21 33l9 21l-217 529h116z" />
    <glyph glyph-name="z" unicode="z" horiz-adv-x="466" 
d="M162 94h269v-94h-404v94l262 341h-243v94h378v-94z" />
    <glyph glyph-name="braceleft" unicode="{" horiz-adv-x="418" 
d="M282 587v-124q0 -64 -27.5 -101.5t-88.5 -54.5q62 -17 89 -54t27 -101v-124q0 -54 20.5 -75t70.5 -21h27v-91h-64q-82 0 -117.5 43.5t-35.5 128.5v140q0 53 -26.5 80.5t-92.5 28.5v91q70 2 94.5 30.5t24.5 77.5v141q0 85 35.5 128.5t117.5 43.5h64v-91h-27
q-50 0 -70.5 -21t-20.5 -75z" />
    <glyph glyph-name="bar" unicode="|" horiz-adv-x="234" 
d="M65 -180v899h104v-899h-104z" />
    <glyph glyph-name="braceright" unicode="}" horiz-adv-x="418" 
d="M136 463v124q0 54 -20.5 75t-70.5 21h-27v91h64q82 0 117.5 -43.5t35.5 -128.5v-141q0 -53 27 -80.5t92 -27.5v-91q-66 0 -92.5 -27.5t-26.5 -81.5v-140q0 -85 -35.5 -128.5t-117.5 -43.5h-64v91h27q50 0 70.5 21t20.5 75v124q0 64 27 101t89 54q-61 17 -88.5 54.5
t-27.5 101.5z" />
    <glyph glyph-name="asciitilde" unicode="~" horiz-adv-x="793" 
d="M179 213l-84 66q15 27 29 44q19 24 37 39q52 44 117 44q52 0 100 -34q20 -13 47 -33q53 -39 83 -39q22 0 46 17.5t40 40.5l13 19l81 -65q-7 -16 -29 -44q-15 -20 -36 -37q-51 -43 -115 -43q-67 0 -149 67q-2 2 -13.5 10l-14.5 10q-4 4 -12 8q-21 13 -41 13q-22 0 -47 -21
q-25 -20 -39 -41z" />
    <glyph glyph-name="exclamdown" unicode="&#xa1;" horiz-adv-x="221" 
d="M171 530v-125h-121v125h121zM52 15l18 307h80l19 -307v-195h-117v195z" />
    <glyph glyph-name="cent" unicode="&#xa2;" horiz-adv-x="590" 
d="M284 -9v94q-96 16 -159 92q-63 77 -63 177q0 106 60 180t162 91v94h76v-92q121 -11 188 -124l-96 -54q-35 60 -92 74v-337q61 13 92 76l96 -50q-63 -119 -188 -130v-91h-76zM179 354q0 -53 26 -100q27 -47 79 -63v329q-54 -13 -79.5 -58.5t-25.5 -107.5z" />
    <glyph glyph-name="sterling" unicode="&#xa3;" horiz-adv-x="590" 
d="M351 719q95 0 161 -80l-86 -76q-32 45 -75 45q-54 0 -81.5 -43t-27.5 -110v-18h207v-105h-207v-88q0 -50 -13.5 -83.5t-50.5 -56.5h173q41 0 69 15t55 52l77 -69q-74 -102 -201 -102h-311v111q87 35 87 133v88h-74v105h74v18q0 61 14 108q21 71 77 112.5t133 43.5z" />
    <glyph glyph-name="currency" unicode="&#xa4;" horiz-adv-x="617" 
d="M582 65l-74 -74l-70 79q-58 -39 -130 -39q-70 0 -130 39l-69 -79l-74 74l79 69q-39 58 -39 130t39 130l-79 70l74 74l70 -79q56 38 129 38q71 0 130 -38l70 79l74 -74l-79 -70q38 -59 38 -130q0 -70 -38 -129zM438 264q0 54 -38 92t-92 38t-91 -39q-38 -38 -38 -91
t38 -91t91 -38t91 38q39 37 39 91z" />
    <glyph glyph-name="yen" unicode="&#xa5;" horiz-adv-x="590" 
d="M65 263v104h123l-162 343h124l145 -331l145 331h124l-162 -343h123v-104h-171v-57h171v-104h-171v-102h-118v102h-171v104h171v57h-171z" />
    <glyph glyph-name="brokenbar" unicode="&#xa6;" horiz-adv-x="241" 
d="M63 425v294h115v-294h-115zM63 0v294h115v-294h-115z" />
    <glyph glyph-name="section" unicode="&#xa7;" horiz-adv-x="590" 
d="M454 237q51 -47 51 -108q0 -84 -65 -128q-64 -42 -152 -42q-67 0 -113.5 21.5t-89.5 70.5l91 62q17 -22 48 -36t64 -14q46 0 74 17t28 49q0 48 -118 72q-94 18 -140.5 57t-46.5 111q0 64 50 117q-50 47 -50 109q0 85 64 127q64 43 153 43q67 0 112 -21t88 -70l-88 -63
q-17 22 -48 36t-64 14q-46 0 -74 -17t-28 -49q0 -52 119 -72q93 -18 139.5 -57t46.5 -111q0 -65 -51 -118zM364 288q26 23 26 67q0 46 -91 62q-27 5 -74 18q-25 -21 -25 -66q0 -48 91 -64q48 -8 73 -17z" />
    <glyph glyph-name="dieresis" unicode="&#xa8;" horiz-adv-x="482" 
d="M207 719v-111h-107v111h107zM382 719v-111h-107v111h107z" />
    <glyph glyph-name="copyright" unicode="&#xa9;" horiz-adv-x="788" 
d="M136 97q-106 106 -106 258q0 151 106 257q107 107 258 107q150 0 257 -107t107 -257q0 -151 -107 -258q-106 -106 -257 -106q-152 0 -258 106zM200 550q-80 -83 -80 -195t80 -195q81 -82 194 -82q114 0 193 82q81 82 81 195t-81 195q-79 82 -193 82q-113 0 -194 -82z
M482 286l71 -38q-51 -95 -159 -95q-84 0 -142 57q-58 58 -58 145q0 88 54 145q55 58 146 58q104 0 159 -93l-71 -40q-33 57 -88 57q-54 0 -84 -36.5t-30 -90.5q0 -48 29 -88q29 -38 85 -38q60 0 88 57z" />
    <glyph glyph-name="ordfeminine" unicode="&#xaa;" horiz-adv-x="362" 
d="M344 350v-13h-57q-25 0 -25 35q-23 -22 -45 -31.5t-58 -9.5q-62 0 -100.5 29.5t-38.5 85.5q0 86 78 109q41 13 106 14q56 2 56 36q0 21 -20.5 35t-52.5 14q-63 0 -94 -45l-50 44q49 66 144 66q67 0 106 -36.5t39 -102.5v-215q0 -15 12 -15zM159 392q59 0 81.5 27.5
t22.5 85.5v21q-13 -15 -52 -19h-37q-76 -4 -76 -61q0 -21 15.5 -37.5t45.5 -16.5z" />
    <glyph glyph-name="guillemotleft" unicode="&#xab;" horiz-adv-x="524" 
d="M27 269v39l183 221l81 -66l-145 -174l145 -174l-81 -67zM235 269v39l183 221l80 -66l-144 -174l144 -174l-80 -67z" />
    <glyph glyph-name="logicalnot" unicode="&#xac;" 
d="M537 84h-121v143h-353v115h474v-258z" />
    <glyph glyph-name="registered" unicode="&#xae;" horiz-adv-x="788" 
d="M227 553h188q53 0 90 -37q37 -36 37 -88q0 -45 -24.5 -82t-63.5 -48l106 -141h-97l-93 133h-58v-133h-85v396zM398 483h-86v-108h86q58 0 58 53q0 55 -58 55zM136 97q-106 106 -106 258q0 151 106 257q107 107 258 107q150 0 257 -107t107 -257q0 -151 -107 -258
q-106 -106 -257 -106q-152 0 -258 106zM200 550q-80 -83 -80 -195t80 -195q81 -82 194 -82q114 0 193 82q81 82 81 195t-81 195q-79 82 -193 82q-113 0 -194 -82z" />
    <glyph glyph-name="degree" unicode="&#xb0;" horiz-adv-x="489" 
d="M245 719q59 0 101 -42q43 -42 43 -100t-43 -100q-43 -41 -101 -41q-59 0 -103 41q-42 42 -42 100t42 100q44 42 103 42zM210 543q15 -14 35 -14t34 14q15 14 15 34t-15 34q-14 14 -34 14t-35 -14q-14 -14 -14 -34t14 -34z" />
    <glyph glyph-name="plusminus" unicode="&#xb1;" 
d="M246 559h111v-162h169v-95h-169v-162h-111v162h-171v95h171v162zM526 94v-94h-451v94h451z" />
    <glyph glyph-name="uni00B2" unicode="&#xb2;" horiz-adv-x="370" 
d="M120 345h208v-76h-303v48q0 69 44 113q25 25 46 40q26 19 67 45q30 20 40.5 35.5t10.5 36.5q0 51 -59 51q-44 0 -82 -41l-54 64q59 58 143 58q60 0 98 -35.5t38 -98.5q0 -75 -80 -131l-33.5 -22t-33.5 -23t-23 -19q-23 -20 -27 -45z" />
    <glyph glyph-name="uni00B3" unicode="&#xb3;" horiz-adv-x="370" 
d="M263 508q59 -20 59 -103q0 -70 -42.5 -105.5t-117.5 -35.5q-46 0 -88.5 18.5t-65.5 50.5l59 53q35 -47 95 -47q77 0 77 66q0 64 -96 64v74q38 0 63 6q32 10 32 46q0 22 -19 36.5t-57 14.5q-54 0 -96 -49l-47 54q50 68 143 68q72 0 113.5 -31.5t41.5 -92.5
q0 -31 -15 -56.5t-39 -30.5z" />
    <glyph glyph-name="acute" unicode="&#xb4;" horiz-adv-x="391" 
d="M100 570l81 149h110l-104 -149h-87z" />
    <glyph glyph-name="mu" unicode="&#xb5;" horiz-adv-x="605" 
d="M65 -180v709h109v-332q0 -59 26 -85.5t66 -26.5q165 0 165 224v220h109v-529h-109l-22 52q-64 -61 -149 -61q-50 0 -86 13v-184h-109z" />
    <glyph glyph-name="mu" unicode="&#x3bc;" horiz-adv-x="605" 
d="M65 -180v709h109v-332q0 -59 26 -85.5t66 -26.5q165 0 165 224v220h109v-529h-109l-22 52q-64 -61 -149 -61q-50 0 -86 13v-184h-109z" />
    <glyph glyph-name="paragraph" unicode="&#xb6;" horiz-adv-x="716" 
d="M271 -122v406q-89 0 -151 62t-62 150q0 89 62 151q62 63 151 63h360v-100h-88v-732h-90v732h-91v-732h-91z" />
    <glyph glyph-name="middot" unicode="&#xb7;" horiz-adv-x="220" 
d="M170 385v-125h-120v125h120z" />
    <glyph glyph-name="cedilla" unicode="&#xb8;" horiz-adv-x="423" 
d="M144 46l76 -20l-18 -65q16 3 38 3q40 0 61.5 -22.5t21.5 -58.5t-27 -62.5t-71 -30.5v68q24 4 24 27q0 14 -16 14q-21 0 -39.5 -10t-25.5 -22l-8 -11l-60 32z" />
    <glyph glyph-name="uni00B9" unicode="&#xb9;" horiz-adv-x="370" 
d="M159 719h82v-440h-87v293h-89v76q31 0 62 15q32 18 32 56z" />
    <glyph glyph-name="ordmasculine" unicode="&#xba;" horiz-adv-x="433" 
d="M403 524q0 -79 -53 -137q-53 -56 -133 -56q-77 0 -133 56q-54 57 -54 137q0 77 53 136t134 59q80 0 133 -59t53 -136zM217 397q48 0 78.5 37t30.5 90q0 54 -30 91t-79 37q-50 0 -80.5 -36.5t-30.5 -91.5t30 -91t81 -36z" />
    <glyph glyph-name="guillemotright" unicode="&#xbb;" horiz-adv-x="524" 
d="M497 308v-39l-183 -221l-81 67l145 174l-145 174l81 66zM289 308v-39l-183 -221l-80 67l144 174l-144 174l80 66z" />
    <glyph glyph-name="onequarter" unicode="&#xbc;" horiz-adv-x="875" 
d="M127 0l464 709h101l-464 -709h-101zM149 719h82v-440h-87v293h-89v76q31 0 62 15q32 18 32 56zM776 149v-79h-60v-70h-89v70h-189v79l160 290h93l-159 -290h95v126h89v-126h60z" />
    <glyph glyph-name="onehalf" unicode="&#xbd;" horiz-adv-x="875" 
d="M111 0l464 709h101l-464 -709h-101zM133 719h82v-440h-87v293h-89v76q31 0 62 15q32 18 32 56zM623 76h208v-76h-303v48q0 69 44 113q25 25 46 40q26 19 67 45q30 20 40.5 35.5t10.5 36.5q0 51 -59 51q-44 0 -82 -41l-54 64q59 58 143 58q60 0 98 -35.5t38 -98.5
q0 -75 -80 -131l-33.5 -22t-33.5 -23t-23 -19q-23 -20 -27 -45z" />
    <glyph glyph-name="threequarters" unicode="&#xbe;" horiz-adv-x="875" 
d="M182 0l464 709h100l-464 -709h-100zM286 508q59 -20 59 -103q0 -70 -42.5 -105.5t-117.5 -35.5q-46 0 -88.5 18.5t-65.5 50.5l59 53q35 -47 95 -47q77 0 77 66q0 64 -96 64v74q38 0 63 6q32 10 32 46q0 22 -19 36.5t-57 14.5q-54 0 -96 -49l-47 54q50 68 143 68
q72 0 113.5 -31.5t41.5 -92.5q0 -31 -15 -56.5t-39 -30.5zM819 149v-79h-60v-70h-89v70h-189v79l160 290h93l-159 -290h95v126h89v-126h60z" />
    <glyph glyph-name="questiondown" unicode="&#xbf;" horiz-adv-x="492" 
d="M190 -189q-94 0 -159 49q-66 48 -66 140q0 59 25 96q26 38 92 82q42 29 58 55t16 66v32h106v-41q0 -63 -25 -106t-87 -86l-14.5 -10.5t-13 -9.5l-9.5 -7.5t-10.5 -9t-8 -9.5l-9.5 -13q-14 -20 -14 -41q0 -41 34.5 -67t84.5 -26q46 0 91.5 27.5t75.5 71.5l75 -67
q-42 -57 -106.5 -91.5t-135.5 -34.5zM149 405v125h120v-125h-120z" />
    <glyph glyph-name="Agrave" unicode="&#xc0;" horiz-adv-x="677" 
d="M554 0l-67 177h-297l-68 -177h-119l277 710h117l277 -710h-120zM230 282h217l-108 276zM293 939l81 -149h-87l-104 149h110z" />
    <glyph glyph-name="Aacute" unicode="&#xc1;" horiz-adv-x="677" 
d="M554 0l-67 177h-297l-68 -177h-119l277 710h117l277 -710h-120zM230 282h217l-108 276zM300 790l81 149h110l-104 -149h-87z" />
    <glyph glyph-name="Acircumflex" unicode="&#xc2;" horiz-adv-x="677" 
d="M554 0l-67 177h-297l-68 -177h-119l277 710h117l277 -710h-120zM230 282h217l-108 276zM287 790h-89l91 149h98l92 -149h-89l-52 70z" />
    <glyph glyph-name="Atilde" unicode="&#xc3;" horiz-adv-x="677" 
d="M554 0l-67 177h-297l-68 -177h-119l277 710h117l277 -710h-120zM230 282h217l-108 276zM216 801l-48 40q1 3 4 8t12.5 18.5t21 23.5t29.5 18t37 8q38 0 85 -38q30 -24 48 -24q23 0 48 34l8 11l47 -39q-1 -3 -4 -8t-12.5 -18t-20.5 -22.5t-29 -17.5t-37 -8q-41 0 -85 36
q-3 2 -9.5 7l-10 7.5t-8.5 5t-10 4t-10 1.5q-23 0 -48 -36z" />
    <glyph glyph-name="Adieresis" unicode="&#xc4;" horiz-adv-x="677" 
d="M554 0l-67 177h-297l-68 -177h-119l277 710h117l277 -710h-120zM230 282h217l-108 276zM304 900v-111h-107v111h107zM479 900v-111h-107v111h107z" />
    <glyph glyph-name="Aring" unicode="&#xc5;" horiz-adv-x="677" 
d="M454 749q0 -49 -39 -85l259 -664h-120l-67 177h-297l-68 -177h-119l259 663q-39 35 -39 86q0 47 34 81t81 34t81 -34q35 -35 35 -81zM230 282h217l-108 276zM338 710q26 0 36.5 24.5t-8.5 41.5q-19 19 -43 9t-24 -36q0 -17 11.5 -28t27.5 -11z" />
    <glyph glyph-name="AE" unicode="&#xc6;" horiz-adv-x="940" 
d="M426 0v177h-205l-83 -177h-135l340 710h574v-104h-376v-186h308v-104h-308v-212h380v-104h-495zM271 282h155v324z" />
    <glyph glyph-name="Ccedilla" unicode="&#xc7;" horiz-adv-x="704" 
d="M408 95q124 1 175 114l96 -56q-40 -77 -109.5 -119.5t-161.5 -42.5q-13 0 -35 2l-8 -32q17 3 38 3q40 0 61.5 -22.5t21.5 -58.5t-27 -62.5t-71 -30.5v68q24 4 24 27q0 14 -16 14q-20 0 -38.5 -9.5t-27.5 -22.5l-7 -11l-60 32l33 121q-104 35 -165 129t-61 217
q0 155 94 259q94 105 244 105q92 0 161.5 -43t109.5 -120l-96 -56q-51 114 -175 114q-102 0 -162 -74t-60 -185t60 -185t162 -75z" />
    <glyph glyph-name="Egrave" unicode="&#xc8;" horiz-adv-x="584" 
d="M70 710h491v-104h-376v-186h308v-104h-308v-212h380v-104h-495v710zM332 939l81 -149h-87l-104 149h110z" />
    <glyph glyph-name="Eacute" unicode="&#xc9;" horiz-adv-x="584" 
d="M70 710h491v-104h-376v-186h308v-104h-308v-212h380v-104h-495v710zM222 790l81 149h110l-104 -149h-87z" />
    <glyph glyph-name="Ecircumflex" unicode="&#xca;" horiz-adv-x="584" 
d="M70 710h491v-104h-376v-186h308v-104h-308v-212h380v-104h-495v710zM266 790h-89l91 149h98l92 -149h-89l-52 70z" />
    <glyph glyph-name="Edieresis" unicode="&#xcb;" horiz-adv-x="584" 
d="M70 710h491v-104h-376v-186h308v-104h-308v-212h380v-104h-495v710zM283 900v-111h-107v111h107zM458 900v-111h-107v111h107z" />
    <glyph glyph-name="Igrave" unicode="&#xcc;" horiz-adv-x="255" 
d="M185 0h-115v710h115v-710zM142 939l81 -149h-87l-104 149h110z" />
    <glyph glyph-name="Iacute" unicode="&#xcd;" horiz-adv-x="255" 
d="M185 0h-115v710h115v-710zM32 790l81 149h110l-104 -149h-87z" />
    <glyph glyph-name="Icircumflex" unicode="&#xce;" horiz-adv-x="255" 
d="M185 0h-115v710h115v-710zM76 790h-89l91 149h98l92 -149h-89l-52 70z" />
    <glyph glyph-name="Idieresis" unicode="&#xcf;" horiz-adv-x="255" 
d="M185 0h-115v710h115v-710zM94 900v-111h-107v111h107zM269 900v-111h-107v111h107z" />
    <glyph glyph-name="Eth" unicode="&#xd0;" horiz-adv-x="695" 
d="M-2 315v82h91v313h235q149 0 245 -101q97 -100 97 -254q0 -155 -96 -255q-94 -100 -246 -100h-235v315h-91zM204 104h120q104 0 165 69q62 71 62 182t-62 181q-61 70 -165 70h-120v-209h110v-82h-110v-211z" />
    <glyph glyph-name="Ntilde" unicode="&#xd1;" horiz-adv-x="681" 
d="M611 0h-119l-307 513v-513h-115v710h119l307 -514v514h115v-710zM218 801l-48 40q1 3 4 8t12.5 18.5t21 23.5t29.5 18t37 8q38 0 85 -38q30 -24 48 -24q23 0 48 34l8 11l47 -39q-1 -3 -4 -8t-12.5 -18t-20.5 -22.5t-29 -17.5t-37 -8q-41 0 -85 36q-3 2 -9.5 7l-10 7.5
t-8.5 5t-10 4t-10 1.5q-23 0 -48 -36z" />
    <glyph glyph-name="Ograve" unicode="&#xd2;" horiz-adv-x="770" 
d="M135 613q99 106 250 106t250 -106q99 -105 99 -258t-99 -259q-99 -105 -250 -105t-250 105q-99 106 -99 259t99 258zM385 95q103 0 168 75q65 76 65 185t-65 185q-65 75 -168 75q-105 0 -169 -75q-64 -74 -64 -185t64 -185q64 -75 169 -75zM391 939l81 -149h-87l-104 149
h110z" />
    <glyph glyph-name="Oacute" unicode="&#xd3;" horiz-adv-x="770" 
d="M135 613q99 106 250 106t250 -106q99 -105 99 -258t-99 -259q-99 -105 -250 -105t-250 105q-99 106 -99 259t99 258zM385 95q103 0 168 75q65 76 65 185t-65 185q-65 75 -168 75q-105 0 -169 -75q-64 -74 -64 -185t64 -185q64 -75 169 -75zM298 790l81 149h110l-104 -149
h-87z" />
    <glyph glyph-name="Ocircumflex" unicode="&#xd4;" horiz-adv-x="770" 
d="M135 613q99 106 250 106t250 -106q99 -105 99 -258t-99 -259q-99 -105 -250 -105t-250 105q-99 106 -99 259t99 258zM385 95q103 0 168 75q65 76 65 185t-65 185q-65 75 -168 75q-105 0 -169 -75q-64 -74 -64 -185t64 -185q64 -75 169 -75zM334 790h-89l91 149h98
l92 -149h-89l-52 70z" />
    <glyph glyph-name="Otilde" unicode="&#xd5;" horiz-adv-x="770" 
d="M135 613q99 106 250 106t250 -106q99 -105 99 -258t-99 -259q-99 -105 -250 -105t-250 105q-99 106 -99 259t99 258zM385 95q103 0 168 75q65 76 65 185t-65 185q-65 75 -168 75q-105 0 -169 -75q-64 -74 -64 -185t64 -185q64 -75 169 -75zM263 801l-48 40q1 3 4 8
t12.5 18.5t21 23.5t29.5 18t37 8q36 0 85 -38q30 -24 48 -24q23 0 48 34l8 11l47 -39q-1 -3 -4 -8t-12.5 -18t-20.5 -22.5t-29 -17.5t-37 -8q-42 0 -85 36q-3 2 -9.5 7l-10 7.5t-8.5 5t-10 4t-10 1.5q-23 0 -48 -36z" />
    <glyph glyph-name="Odieresis" unicode="&#xd6;" horiz-adv-x="770" 
d="M135 613q99 106 250 106t250 -106q99 -105 99 -258t-99 -259q-99 -105 -250 -105t-250 105q-99 106 -99 259t99 258zM385 95q103 0 168 75q65 76 65 185t-65 185q-65 75 -168 75q-105 0 -169 -75q-64 -74 -64 -185t64 -185q64 -75 169 -75zM351 900v-111h-107v111h107z
M526 900v-111h-107v111h107z" />
    <glyph glyph-name="multiply" unicode="&#xd7;" 
d="M75 448l63 62l162 -163l163 163l63 -62l-163 -163l163 -163l-63 -62l-163 162l-162 -162l-63 62l163 163z" />
    <glyph glyph-name="Oslash" unicode="&#xd8;" horiz-adv-x="770" 
d="M385 719q88 0 165 -41l69 91l91 -68l-70 -93q94 -103 94 -253q0 -153 -99 -259q-99 -105 -250 -105q-96 0 -174 45l-83 -112l-91 71l86 114q-87 103 -87 246q0 153 99 258q99 106 250 106zM385 95q103 0 168 75q65 76 65 185q0 91 -48 161l-295 -394q51 -27 110 -27z
M152 355q0 -87 41 -152l292 388q-48 24 -100 24q-105 0 -169 -75q-64 -74 -64 -185z" />
    <glyph glyph-name="Ugrave" unicode="&#xd9;" horiz-adv-x="695" 
d="M639 710v-368q0 -159 -60 -250q-67 -101 -238 -101q-170 0 -231 95q-54 86 -54 256v368h115v-368q0 -117 28 -175q34 -71 142 -71q100 0 141.5 61t41.5 185v368h115zM362 939l81 -149h-87l-104 149h110z" />
    <glyph glyph-name="Uacute" unicode="&#xda;" horiz-adv-x="695" 
d="M639 710v-368q0 -159 -60 -250q-67 -101 -238 -101q-170 0 -231 95q-54 86 -54 256v368h115v-368q0 -117 28 -175q34 -71 142 -71q100 0 141.5 61t41.5 185v368h115zM252 790l81 149h110l-104 -149h-87z" />
    <glyph glyph-name="Ucircumflex" unicode="&#xdb;" horiz-adv-x="695" 
d="M639 710v-368q0 -159 -60 -250q-67 -101 -238 -101q-170 0 -231 95q-54 86 -54 256v368h115v-368q0 -117 28 -175q34 -71 142 -71q100 0 141.5 61t41.5 185v368h115zM296 790h-89l91 149h98l92 -149h-89l-52 70z" />
    <glyph glyph-name="Udieresis" unicode="&#xdc;" horiz-adv-x="695" 
d="M639 710v-368q0 -159 -60 -250q-67 -101 -238 -101q-170 0 -231 95q-54 86 -54 256v368h115v-368q0 -117 28 -175q34 -71 142 -71q100 0 141.5 61t41.5 185v368h115zM313 900v-111h-107v111h107zM488 900v-111h-107v111h107z" />
    <glyph glyph-name="Yacute" unicode="&#xdd;" horiz-adv-x="601" 
d="M302 379l176 331h124l-244 -448v-262h-115v262l-244 448h124zM205 790l81 149h110l-104 -149h-87z" />
    <glyph glyph-name="Thorn" unicode="&#xde;" horiz-adv-x="618" 
d="M70 0v710h115v-135h191q98 0 162 -64q66 -65 66 -156q0 -94 -67 -157q-66 -63 -167 -63h-185v-135h-115zM370 239q56 0 87.5 31t31.5 85q0 52 -32.5 84t-86.5 32h-185v-232h185z" />
    <glyph glyph-name="germandbls" unicode="&#xdf;" horiz-adv-x="564" 
d="M392 366q59 -13 93 -57t34 -110q0 -108 -66 -158t-210 -50v104q81 0 121 24.5t40 79.5q0 77 -71 96q-35 9 -90 9v104q66 0 94.5 26t28.5 81q0 44 -22.5 72t-64.5 28q-99 0 -99 -110v-505h-115v505q0 101 56.5 157.5t165.5 56.5q94 0 144 -55.5t50 -148.5q0 -49 -22.5 -89
t-66.5 -60z" />
    <glyph glyph-name="agrave" unicode="&#xe0;" horiz-adv-x="515" 
d="M493 18v-18h-80q-36 0 -36 50q-32 -32 -63 -45.5t-82 -13.5q-87 0 -141 42t-54 121q3 67 30 103t81 50q50 15 147 20q79 3 79 51q0 28 -29 48.5t-73 20.5q-87 0 -132 -63l-71 62q69 92 203 92q95 0 149.5 -51t54.5 -145v-303q0 -21 17 -21zM232 78q88 0 117 41t29 118v30
q-13 -17 -57 -25q-4 0 -9.5 -0.5t-14 -1t-15.5 -0.5q-17 -1 -28 -1q-108 -5 -108 -85q0 -30 22 -53t64 -23zM230 758l81 -149h-87l-104 149h110z" />
    <glyph glyph-name="aacute" unicode="&#xe1;" horiz-adv-x="515" 
d="M493 18v-18h-80q-36 0 -36 50q-32 -32 -63 -45.5t-82 -13.5q-87 0 -141 42t-54 121q3 67 30 103t81 50q50 15 147 20q79 3 79 51q0 28 -29 48.5t-73 20.5q-87 0 -132 -63l-71 62q69 92 203 92q95 0 149.5 -51t54.5 -145v-303q0 -21 17 -21zM232 78q88 0 117 41t29 118v30
q-13 -17 -57 -25q-4 0 -9.5 -0.5t-14 -1t-15.5 -0.5q-17 -1 -28 -1q-108 -5 -108 -85q0 -30 22 -53t64 -23zM223 609l81 149h110l-104 -149h-87z" />
    <glyph glyph-name="acircumflex" unicode="&#xe2;" horiz-adv-x="515" 
d="M493 18v-18h-80q-36 0 -36 50q-32 -32 -63 -45.5t-82 -13.5q-87 0 -141 42t-54 121q3 67 30 103t81 50q50 15 147 20q79 3 79 51q0 28 -29 48.5t-73 20.5q-87 0 -132 -63l-71 62q69 92 203 92q95 0 149.5 -51t54.5 -145v-303q0 -21 17 -21zM232 78q88 0 117 41t29 118v30
q-13 -17 -57 -25q-4 0 -9.5 -0.5t-14 -1t-15.5 -0.5q-17 -1 -28 -1q-108 -5 -108 -85q0 -30 22 -53t64 -23zM221 609h-89l91 149h98l92 -149h-89l-52 70z" />
    <glyph glyph-name="atilde" unicode="&#xe3;" horiz-adv-x="515" 
d="M493 18v-18h-80q-36 0 -36 50q-32 -32 -63 -45.5t-82 -13.5q-87 0 -141 42t-54 121q3 67 30 103t81 50q50 15 147 20q79 3 79 51q0 28 -29 48.5t-73 20.5q-87 0 -132 -63l-71 62q69 92 203 92q95 0 149.5 -51t54.5 -145v-303q0 -21 17 -21zM232 78q88 0 117 41t29 118v30
q-13 -17 -57 -25q-4 0 -9.5 -0.5t-14 -1t-15.5 -0.5q-17 -1 -28 -1q-108 -5 -108 -85q0 -30 22 -53t64 -23zM143 630l-48 40q1 3 4 8t12.5 18.5t21 23.5t29.5 18t37 8q36 0 85 -38q30 -24 48 -24q25 0 48 34l8 11l47 -39q-1 -3 -4 -8t-12.5 -18t-20.5 -22.5t-29 -17.5
t-37 -8q-42 0 -85 36q-3 2 -9.5 7l-10 7.5t-8.5 5t-10 4t-10 1.5q-24 0 -48 -35z" />
    <glyph glyph-name="adieresis" unicode="&#xe4;" horiz-adv-x="515" 
d="M493 18v-18h-80q-36 0 -36 50q-32 -32 -63 -45.5t-82 -13.5q-87 0 -141 42t-54 121q3 67 30 103t81 50q50 15 147 20q79 3 79 51q0 28 -29 48.5t-73 20.5q-87 0 -132 -63l-71 62q69 92 203 92q95 0 149.5 -51t54.5 -145v-303q0 -21 17 -21zM232 78q88 0 117 41t29 118v30
q-13 -17 -57 -25q-4 0 -9.5 -0.5t-14 -1t-15.5 -0.5q-17 -1 -28 -1q-108 -5 -108 -85q0 -30 22 -53t64 -23zM231 719v-111h-107v111h107zM406 719v-111h-107v111h107z" />
    <glyph glyph-name="aring" unicode="&#xe5;" horiz-adv-x="515" 
d="M493 18v-18h-80q-36 0 -36 50q-32 -32 -63 -45.5t-82 -13.5q-87 0 -141 42t-54 121q3 67 30 103t81 50q50 15 147 20q79 3 79 51q0 28 -29 48.5t-73 20.5q-87 0 -132 -63l-71 62q69 92 203 92q95 0 149.5 -51t54.5 -145v-303q0 -21 17 -21zM232 78q88 0 117 41t29 118v30
q-13 -17 -57 -25q-4 0 -9.5 -0.5t-14 -1t-15.5 -0.5q-17 -1 -28 -1q-108 -5 -108 -85q0 -30 22 -53t64 -23zM191 809q34 34 81 34t81 -34q35 -34 35 -81t-35 -81q-34 -34 -81 -34t-81 34t-34 81t34 81zM272 689q17 0 28.5 11.5t11.5 27.5t-12 27.5t-28 11.5q-24 1 -33.5 -19
t0 -40t33.5 -19z" />
    <glyph glyph-name="ae" unicode="&#xe6;" horiz-adv-x="928" 
d="M892 274v-47h-407q15 -142 155 -142q103 0 148 77l81 -48q-31 -56 -92.5 -89.5t-136.5 -33.5q-140 0 -208 101q-59 -101 -200 -101q-87 0 -141 42t-54 120q3 66 30.5 103t80.5 51q50 15 147 20q79 3 79 51q0 28 -29 49.5t-72 21.5q-86 0 -133 -65l-71 62q33 44 87 68
t117 24q122 0 174 -82q75 82 193 82q113 0 180 -73q67 -72 72 -191zM232 76q111 0 134 71q12 35 12 96v33q-14 -19 -58 -26q-25 -4 -47 -5h-19q-108 -5 -108 -92q0 -11 3 -22t11 -24.5t26.5 -22t45.5 -8.5zM487 321h306q-10 57 -51.5 90t-101.5 33q-59 0 -99.5 -32
t-53.5 -91z" />
    <glyph glyph-name="ccedilla" unicode="&#xe7;" horiz-adv-x="557" 
d="M425 171l97 -50q-70 -130 -215 -130q-5 0 -29 2l-9 -32q16 3 38 3q40 0 61.5 -22.5t21.5 -58.5t-27 -62.5t-71 -30.5v68q24 4 24 27q0 14 -16 14q-20 0 -38.5 -9.5t-27.5 -22.5l-7 -11l-60 32l32 119q-76 29 -119 99q-44 71 -44 158q0 119 74 196q73 78 197 78
q139 0 215 -126l-97 -55q-15 35 -46.5 59t-71.5 24q-78 0 -116.5 -48t-38.5 -128t38.5 -127.5t116.5 -47.5t118 82z" />
    <glyph glyph-name="egrave" unicode="&#xe8;" horiz-adv-x="586" 
d="M550 274v-50h-408q16 -136 156 -136q104 0 148 74l81 -48q-33 -56 -94 -89.5t-135 -33.5q-122 0 -192 73t-70 200q0 120 71 197q72 77 191 77q113 0 180 -73q67 -72 72 -191zM145 321h306q-10 57 -51.5 90t-101.5 33q-59 0 -99.5 -32t-53.5 -91zM262 758l81 -149h-87
l-104 149h110z" />
    <glyph glyph-name="eacute" unicode="&#xe9;" horiz-adv-x="586" 
d="M550 274v-50h-408q16 -136 156 -136q104 0 148 74l81 -48q-33 -56 -94 -89.5t-135 -33.5q-122 0 -192 73t-70 200q0 120 71 197q72 77 191 77q113 0 180 -73q67 -72 72 -191zM145 321h306q-10 57 -51.5 90t-101.5 33q-59 0 -99.5 -32t-53.5 -91zM256 609l81 149h110
l-104 -149h-87z" />
    <glyph glyph-name="ecircumflex" unicode="&#xea;" horiz-adv-x="586" 
d="M550 274v-50h-408q16 -136 156 -136q104 0 148 74l81 -48q-33 -56 -94 -89.5t-135 -33.5q-122 0 -192 73t-70 200q0 120 71 197q72 77 191 77q113 0 180 -73q67 -72 72 -191zM145 321h306q-10 57 -51.5 90t-101.5 33q-59 0 -99.5 -32t-53.5 -91zM247 609h-89l91 149h98
l92 -149h-89l-52 70z" />
    <glyph glyph-name="edieresis" unicode="&#xeb;" horiz-adv-x="586" 
d="M550 274v-50h-408q16 -136 156 -136q104 0 148 74l81 -48q-33 -56 -94 -89.5t-135 -33.5q-122 0 -192 73t-70 200q0 120 71 197q72 77 191 77q113 0 180 -73q67 -72 72 -191zM145 321h306q-10 57 -51.5 90t-101.5 33q-59 0 -99.5 -32t-53.5 -91zM266 719v-111h-107v111
h107zM441 719v-111h-107v111h107z" />
    <glyph glyph-name="igrave" unicode="&#xec;" horiz-adv-x="247" 
d="M69 0v529h109v-529h-109zM138 758l81 -149h-87l-104 149h110z" />
    <glyph glyph-name="iacute" unicode="&#xed;" horiz-adv-x="247" 
d="M69 0v529h109v-529h-109zM28 609l81 149h110l-104 -149h-87z" />
    <glyph glyph-name="icircumflex" unicode="&#xee;" horiz-adv-x="247" 
d="M69 0v529h109v-529h-109zM72 609h-89l91 149h98l92 -149h-89l-52 70z" />
    <glyph glyph-name="idieresis" unicode="&#xef;" horiz-adv-x="247" 
d="M68 0v529h109v-529h-109zM89 719v-111h-107v111h107zM264 719v-111h-107v111h107z" />
    <glyph glyph-name="eth" unicode="&#xf0;" horiz-adv-x="570" 
d="M464 576q70 -150 70 -309q0 -125 -66 -201q-64 -75 -185 -75q-102 0 -175 68q-72 69 -72 197q0 122 64 202q64 82 181 82q64 0 96 -28q-26 54 -32 64h-198v105h126l-12 17l83 64q28 -30 62 -81h73v-105h-15zM288 95q63 0 98 47t35 114q0 76 -35 128q-34 52 -102 52
q-64 0 -99.5 -46.5t-35.5 -133.5q0 -68 38 -115q39 -46 101 -46z" />
    <glyph glyph-name="ntilde" unicode="&#xf1;" horiz-adv-x="601" 
d="M540 330v-330h-109v323q0 63 -26 92t-66 29q-165 0 -165 -226v-218h-109v529h109l22 -53q67 62 149 62q195 0 195 -208zM180 640l-48 40q1 3 4 8t12.5 18.5t21 23.5t29.5 18t37 8q38 0 85 -38q30 -24 48 -24q25 0 48 34l8 11l47 -39q-1 -3 -4 -8t-12.5 -18t-20.5 -22.5
t-29 -17.5t-37 -8q-41 0 -85 36q-3 2 -9.5 7l-10 7.5t-8.5 5t-10 4t-10 1.5q-24 0 -48 -35z" />
    <glyph glyph-name="ograve" unicode="&#xf2;" horiz-adv-x="598" 
d="M562 264q0 -114 -74 -194q-73 -79 -188 -79q-110 0 -187 80t-77 193q0 108 75 191t189 83q113 0 187 -83q75 -83 75 -191zM300 85q69 0 111 53q43 52 43 126q0 73 -41 126q-41 54 -113 54q-70 0 -114 -53q-42 -52 -42 -127q0 -74 41 -127q42 -52 115 -52zM266 758
l81 -149h-87l-104 149h110z" />
    <glyph glyph-name="oacute" unicode="&#xf3;" horiz-adv-x="598" 
d="M562 264q0 -114 -74 -194q-73 -79 -188 -79q-110 0 -187 80t-77 193q0 108 75 191t189 83q113 0 187 -83q75 -83 75 -191zM300 85q69 0 111 53q43 52 43 126q0 73 -41 126q-41 54 -113 54q-70 0 -114 -53q-42 -52 -42 -127q0 -74 41 -127q42 -52 115 -52zM254 609l81 149
h110l-104 -149h-87z" />
    <glyph glyph-name="ocircumflex" unicode="&#xf4;" horiz-adv-x="598" 
d="M562 264q0 -114 -74 -194q-73 -79 -188 -79q-110 0 -187 80t-77 193q0 108 75 191t189 83q113 0 187 -83q75 -83 75 -191zM300 85q69 0 111 53q43 52 43 126q0 73 -41 126q-41 54 -113 54q-70 0 -114 -53q-42 -52 -42 -127q0 -74 41 -127q42 -52 115 -52zM249 609h-89
l91 149h98l92 -149h-89l-52 70z" />
    <glyph glyph-name="otilde" unicode="&#xf5;" horiz-adv-x="598" 
d="M562 264q0 -114 -74 -194q-73 -79 -188 -79q-110 0 -187 80t-77 193q0 108 75 191t189 83q113 0 187 -83q75 -83 75 -191zM300 85q69 0 111 53q43 52 43 126q0 73 -41 126q-41 54 -113 54q-70 0 -114 -53q-42 -52 -42 -127q0 -74 41 -127q42 -52 115 -52zM177 630l-48 40
q1 3 4 8t12.5 18.5t21 23.5t29.5 18t37 8q36 0 85 -38q30 -24 48 -24q25 0 48 34l8 11l47 -39q-1 -3 -4 -8t-12.5 -18t-20.5 -22.5t-29 -17.5t-37 -8q-42 0 -85 36q-3 2 -9.5 7l-10 7.5t-8.5 5t-10 4t-10 1.5q-24 0 -48 -35z" />
    <glyph glyph-name="odieresis" unicode="&#xf6;" horiz-adv-x="598" 
d="M562 264q0 -114 -74 -194q-73 -79 -188 -79q-110 0 -187 80t-77 193q0 108 75 191t189 83q113 0 187 -83q75 -83 75 -191zM300 85q69 0 111 53q43 52 43 126q0 73 -41 126q-41 54 -113 54q-70 0 -114 -53q-42 -52 -42 -127q0 -74 41 -127q42 -52 115 -52zM266 719v-111
h-107v111h107zM441 719v-111h-107v111h107z" />
    <glyph glyph-name="divide" unicode="&#xf7;" 
d="M360 125v-125h-120v125h120zM360 535v-126h-120v126h120zM537 327v-118h-474v118h474z" />
    <glyph glyph-name="oslash" unicode="&#xf8;" horiz-adv-x="598" 
d="M167 -97l-101 53l57 105q-87 81 -87 204q0 108 74 191q75 82 189 82q40 0 76 -12l51 94l102 -52l-54 -99q41 -39 64.5 -93t23.5 -111q0 -115 -74 -195q-73 -79 -189 -79q-41 0 -78 12zM299 85q69 0 111 53q43 52 43 127q0 62 -30 110l-156 -287q15 -3 32 -3zM144 265
q0 -64 29 -111l156 287q-15 3 -30 3q-69 0 -113 -53q-42 -53 -42 -126z" />
    <glyph glyph-name="ugrave" unicode="&#xf9;" 
d="M60 199v330h109v-323q0 -63 26 -92t66 -29q165 0 165 226v218h109v-529h-109l-22 53q-67 -62 -149 -62q-195 0 -195 208zM312 758l81 -149h-87l-104 149h110z" />
    <glyph glyph-name="uacute" unicode="&#xfa;" 
d="M60 199v330h109v-323q0 -63 26 -92t66 -29q165 0 165 226v218h109v-529h-109l-22 53q-67 -62 -149 -62q-195 0 -195 208zM202 609l81 149h110l-104 -149h-87z" />
    <glyph glyph-name="ucircumflex" unicode="&#xfb;" 
d="M60 199v330h109v-323q0 -63 26 -92t66 -29q165 0 165 226v218h109v-529h-109l-22 53q-67 -62 -149 -62q-195 0 -195 208zM246 609h-89l91 149h98l92 -149h-89l-52 70z" />
    <glyph glyph-name="udieresis" unicode="&#xfc;" 
d="M60 199v330h109v-323q0 -63 26 -92t66 -29q165 0 165 226v218h109v-529h-109l-22 53q-67 -62 -149 -62q-195 0 -195 208zM263 719v-111h-107v111h107zM438 719v-111h-107v111h107z" />
    <glyph glyph-name="yacute" unicode="&#xfd;" horiz-adv-x="555" 
d="M281 140l155 389h117l-225 -547q-47 -114 -97 -143q-28 -17 -56.5 -22.5t-80.5 -5.5v108q77 0 102 27q9 10 21 33l9 21l-217 529h116zM185 609l81 149h110l-104 -149h-87z" />
    <glyph glyph-name="thorn" unicode="&#xfe;" horiz-adv-x="625" 
d="M65 -180v890h109v-247q62 75 150 75q116 0 188 -78q77 -83 77 -196q0 -114 -77 -197q-70 -76 -188 -76q-88 0 -150 74v-245h-109zM324 88q69 0 112 52t43 124q0 69 -43 122q-43 55 -112 55q-66 0 -113 -51q-43 -47 -43 -126q0 -80 43 -127q46 -49 113 -49z" />
    <glyph glyph-name="ydieresis" unicode="&#xff;" horiz-adv-x="555" 
d="M281 140l155 389h117l-225 -547q-47 -114 -97 -143q-28 -17 -56.5 -22.5t-80.5 -5.5v108q77 0 102 27q9 10 21 33l9 21l-217 529h116zM247 719v-111h-107v111h107zM422 719v-111h-107v111h107z" />
    <glyph glyph-name="dotlessi" unicode="&#x131;" horiz-adv-x="247" 
d="M69 0v529h109v-529h-109z" />
    <glyph glyph-name="Lslash" unicode="&#x141;" horiz-adv-x="577" 
d="M49 200l-55 60l97 92v358h115v-248l72 69l56 -59l-128 -122v-246h355v-104h-470v240z" />
    <glyph glyph-name="lslash" unicode="&#x142;" horiz-adv-x="358" 
d="M65 200l-55 60l97 92v358h109v-255l78 76l56 -59l-134 -129v-343h-109v240z" />
    <glyph glyph-name="OE" unicode="&#x152;" horiz-adv-x="1104" 
d="M591 710h489v-106h-375v-185h307v-104h-307v-211h380v-104h-494v69q-75 -78 -224 -78q-145 0 -238 102q-93 103 -93 262q0 157 93 261q93 103 238 103q147 0 224 -80v71zM367 104q104 0 163 67t59 184q0 115 -59 182t-163 67q-98 0 -155 -70q-57 -69 -57 -179
q0 -111 57 -181t155 -70z" />
    <glyph glyph-name="oe" unicode="&#x153;" horiz-adv-x="989" 
d="M953 274v-47h-407q16 -142 155 -142q103 0 148 77l81 -48q-31 -56 -92.5 -89.5t-136.5 -33.5q-134 0 -206 88q-75 -88 -195 -88q-117 0 -190 79q-74 80 -74 194q0 111 72 192q72 82 192 82q121 0 197 -94q76 94 204 94q114 0 181 -73q66 -71 71 -191zM300 85q69 0 111 53
q43 52 43 126q0 73 -41 126q-41 54 -113 54q-70 0 -114 -53q-42 -52 -42 -127q0 -74 41 -127q42 -52 115 -52zM549 321h306q-11 58 -52.5 90.5t-101.5 32.5q-58 0 -98.5 -32t-53.5 -91z" />
    <glyph glyph-name="Scaron" unicode="&#x160;" horiz-adv-x="633" 
d="M603 212q0 -113 -74 -167q-73 -54 -193 -54q-215 0 -322 149l98 56q75 -101 225 -101q64 0 113 27.5t49 89.5q0 38 -25.5 59.5t-66 29t-89.5 11t-98 11.5t-89.5 25t-66 56t-25.5 100q0 108 75 161q75 54 192 54q195 0 265 -118l-99 -55q-23 32 -69.5 50.5t-96.5 18.5
q-64 2 -114.5 -26.5t-51.5 -84.5q0 -29 15.5 -47t47 -26.5t62 -12.5t78.5 -8.5t78 -10.5q183 -25 182 -187zM168 939h89l51 -70l52 70h89l-92 -149h-98z" />
    <glyph glyph-name="scaron" unicode="&#x161;" horiz-adv-x="490" 
d="M130 383q0 -19 12 -32t36.5 -22t47.5 -14t59 -12t57 -13q51 -13 83 -48t32 -89q0 -81 -59 -122q-58 -40 -145 -40q-130 0 -197 67q-27 27 -39 55l85 30q43 -58 153 -58q39 -2 69 12.5t32 49.5q0 25 -24 40.5t-60 21.5t-77.5 17t-77.5 25.5t-60 48t-24 83.5q0 78 59 116
q59 39 140 39q56 0 104 -18q48 -17 68 -33q19 -14 27 -26l-67 -60q-43 43 -132 43q-101 0 -102 -61zM96 758h89l51 -70l52 70h89l-92 -149h-98z" />
    <glyph glyph-name="Ydieresis" unicode="&#x178;" horiz-adv-x="601" 
d="M302 379l176 331h124l-244 -448v-262h-115v262l-244 448h124zM266 900v-111h-107v111h107zM441 900v-111h-107v111h107z" />
    <glyph glyph-name="Zcaron" unicode="&#x17d;" horiz-adv-x="557" 
d="M161 104h378v-104h-521v104l368 502h-350v104h494v-104zM138 939h89l51 -70l52 70h89l-92 -149h-98z" />
    <glyph glyph-name="zcaron" unicode="&#x17e;" horiz-adv-x="466" 
d="M162 94h269v-94h-404v94l262 341h-243v94h378v-94zM88 758h89l51 -70l52 70h89l-92 -149h-98z" />
    <glyph glyph-name="florin" unicode="&#x192;" 
d="M464 719q35 0 53 -5l8 -2v-118q-39 10 -65 10q-50 0 -60 -48l-8 -38h118v-105h-141l-101 -458q-18 -80 -58 -112t-119 -32q-6 0 -51 6v116q22 -7 51 -7q52 0 63 47l97 440h-84v105h107l13 60q15 71 57.5 106t119.5 35z" />
    <glyph glyph-name="circumflex" unicode="&#x2c6;" horiz-adv-x="481" 
d="M189 570h-89l91 149h98l92 -149h-89l-52 70z" />
    <glyph glyph-name="caron" unicode="&#x2c7;" horiz-adv-x="481" 
d="M100 719h89l51 -70l52 70h89l-92 -149h-98z" />
    <glyph glyph-name="breve" unicode="&#x2d8;" horiz-adv-x="481" 
d="M288 714h93q0 -54 -42 -93q-41 -38 -99 -38t-99 38q-41 39 -41 93h93q-2 -27 22.5 -38t49 0t23.5 38z" />
    <glyph glyph-name="dotaccent" unicode="&#x2d9;" horiz-adv-x="317" 
d="M217 719v-116h-117v116h117z" />
    <glyph glyph-name="ring" unicode="&#x2da;" horiz-adv-x="431" 
d="M134 685q34 34 81 34t81 -34q35 -34 35 -81t-35 -81q-34 -34 -81 -34t-81 34t-34 81t34 81zM187 576q11 -11 28 -11t28 11q12 12 12 28t-12 27q-12 12 -28 12t-28 -12q-11 -11 -11 -27t11 -28z" />
    <glyph glyph-name="ogonek" unicode="&#x2db;" horiz-adv-x="404" 
d="M194 26h97q-11 -5 -40 -23q-22 -15 -34 -26q-39 -33 -39 -71q0 -26 26 -26t54 20l46 -63q-49 -37 -100 -37q-46 0 -75 25.5t-29 69.5q0 69 84 125z" />
    <glyph glyph-name="tilde" unicode="&#x2dc;" horiz-adv-x="540" 
d="M148 571l-48 40q1 3 4 8t12.5 18.5t21 23.5t29.5 18t37 8q38 0 85 -38q30 -24 48 -24q23 0 48 34l8 11l47 -39q-1 -3 -4 -8t-12.5 -18t-20.5 -22.5t-29 -17.5t-37 -8q-41 0 -85 36q-3 2 -9.5 7l-10 7.5t-8.5 5t-10 4t-10 1.5q-23 0 -48 -36z" />
    <glyph glyph-name="hungarumlaut" unicode="&#x2dd;" horiz-adv-x="552" 
d="M100 570l81 149h110l-104 -149h-87zM261 570l81 149h110l-104 -149h-87z" />
    <glyph glyph-name="uni2206" unicode="&#x394;" 
d="M636 0h-671l288 710h95zM128 104h345l-172 451z" />
    <glyph glyph-name="uni2206" unicode="&#x2206;" 
d="M636 0h-671l288 710h95zM128 104h345l-172 451z" />
    <glyph glyph-name="uni2126" unicode="&#x3a9;" horiz-adv-x="680" 
d="M35 0v104h146q-58 43 -89 102q-33 63 -40 108t-7 110q2 123 82 208q81 87 213 87t213 -87q80 -85 82 -208q0 -59 -8 -110q-7 -48 -39 -108q-31 -59 -89 -102h146v-104h-280v104q76 34 115.5 116.5t39.5 194.5q0 91 -48.5 145t-131.5 54t-131.5 -54t-48.5 -145
q0 -112 39.5 -194.5t115.5 -116.5v-104h-280z" />
    <glyph glyph-name="uni2126" unicode="&#x2126;" horiz-adv-x="680" 
d="M35 0v104h146q-58 43 -89 102q-33 63 -40 108t-7 110q2 123 82 208q81 87 213 87t213 -87q80 -85 82 -208q0 -59 -8 -110q-7 -48 -39 -108q-31 -59 -89 -102h146v-104h-280v104q76 34 115.5 116.5t39.5 194.5q0 91 -48.5 145t-131.5 54t-131.5 -54t-48.5 -145
q0 -112 39.5 -194.5t115.5 -116.5v-104h-280z" />
    <glyph glyph-name="pi" unicode="&#x3c0;" horiz-adv-x="591" 
d="M10 425v104h551v-104h-93v-268q0 -35 11.5 -50t42.5 -15q22 0 39 4v-98q-48 -7 -77 -7q-70 0 -100 37.5t-30 129.5v267h-136v-425h-115v425h-93z" />
    <glyph glyph-name="endash" unicode="&#x2013;" horiz-adv-x="604" 
d="M539 344v-118h-474v118h474z" />
    <glyph glyph-name="emdash" unicode="&#x2014;" horiz-adv-x="866" 
d="M816 344v-118h-766v118h766z" />
    <glyph glyph-name="quoteleft" unicode="&#x2018;" horiz-adv-x="201" 
d="M40 445v102q0 64 10 95q6 20 21 34.5t46 33.5l31 -47q-29 -14 -39 -29.5t-10 -41.5v-22h62v-125h-121z" />
    <glyph glyph-name="quoteright" unicode="&#x2019;" horiz-adv-x="201" 
d="M161 710v-102q0 -64 -10 -95q-6 -20 -21 -34.5t-46 -33.5l-31 47q29 14 39 29.5t10 41.5v22h-62v125h121z" />
    <glyph glyph-name="quotesinglbase" unicode="&#x201a;" horiz-adv-x="219" 
d="M170 125v-102q0 -64 -10 -95q-6 -20 -21 -34.5t-46 -33.5l-31 47q29 14 39 29.5t10 41.5v22h-62v125h121z" />
    <glyph glyph-name="quotedblleft" unicode="&#x201c;" horiz-adv-x="373" 
d="M40 445v102q0 64 10 95q6 20 21 34.5t46 33.5l31 -47q-29 -14 -39 -29.5t-10 -41.5v-22h62v-125h-121zM212 445v102q0 64 10 95q6 20 21 34.5t46 33.5l31 -47q-29 -14 -39 -29.5t-10 -41.5v-22h62v-125h-121z" />
    <glyph glyph-name="quotedblright" unicode="&#x201d;" horiz-adv-x="373" 
d="M333 710v-102q0 -64 -10 -95q-6 -20 -21 -34.5t-46 -33.5l-31 47q29 14 39 29.5t10 41.5v22h-62v125h121zM161 710v-102q0 -64 -10 -95q-6 -20 -21 -34.5t-46 -33.5l-31 47q29 14 39 29.5t10 41.5v22h-62v125h121z" />
    <glyph glyph-name="quotedblbase" unicode="&#x201e;" horiz-adv-x="391" 
d="M342 125v-102q0 -64 -10 -95q-6 -20 -21 -34.5t-46 -33.5l-31 47q29 14 39 29.5t10 41.5v22h-62v125h121zM170 125v-102q0 -64 -10 -95q-6 -20 -21 -34.5t-46 -33.5l-31 47q29 14 39 29.5t10 41.5v22h-62v125h121z" />
    <glyph glyph-name="dagger" unicode="&#x2020;" 
d="M55 429v100h187v181h116v-181h187v-100h-187v-609h-116v609h-187z" />
    <glyph glyph-name="daggerdbl" unicode="&#x2021;" 
d="M55 430v100h187v180h116v-180h187v-100h-187v-330h187v-100h-187v-180h-116v180h-187v100h187v330h-187z" />
    <glyph glyph-name="bullet" unicode="&#x2022;" horiz-adv-x="310" 
d="M155 403q47 0 81 -34t34 -81t-34 -81t-81 -34q-48 0 -82 34q-33 35 -33 81t33 81q34 34 82 34z" />
    <glyph glyph-name="ellipsis" unicode="&#x2026;" horiz-adv-x="713" 
d="M170 125v-125h-120v125h120zM416 125v-125h-120v125h120zM663 125v-125h-120v125h120z" />
    <glyph glyph-name="perthousand" unicode="&#x2030;" horiz-adv-x="922" 
d="M32 0l465 710h97l-465 -710h-97zM289 569q0 -77 -28 -116t-99 -39q-69 0 -97.5 39.5t-28.5 115.5q0 150 126 150q127 0 127 -150zM162 472q35 3 46 27t10 70q0 41 -9 62q-11 30 -47 30q-32 0 -44.5 -23t-12.5 -69q0 -49 12 -73t45 -24zM594 146q0 -77 -28 -116t-99 -39
q-69 0 -98 39.5t-29 115.5q0 150 127 150t127 -150zM467 49q35 3 46 27t10 70q1 44 -10 66.5t-46 25.5q-35 -3 -46.5 -26t-10.5 -66q0 -43 8 -67q12 -30 49 -30zM880 146q0 -77 -28.5 -116t-97.5 -39t-98 39.5t-29 115.5q0 150 127 150q126 0 126 -150zM754 49q32 0 44 24
t12 73q1 44 -10 66.5t-46 25.5q-35 -3 -46.5 -25.5t-10.5 -66.5q0 -43 8 -67q12 -30 49 -30z" />
    <glyph glyph-name="guilsinglleft" unicode="&#x2039;" horiz-adv-x="317" 
d="M27 269v39l183 221l81 -66l-145 -174l145 -174l-81 -67z" />
    <glyph glyph-name="guilsinglright" unicode="&#x203a;" horiz-adv-x="317" 
d="M290 308v-39l-183 -221l-81 67l145 174l-145 174l81 66z" />
    <glyph glyph-name="fraction" unicode="&#x2044;" horiz-adv-x="461" 
d="M-25 0l465 710h96l-464 -710h-97z" />
    <glyph glyph-name="Euro" unicode="&#x20ac;" horiz-adv-x="590" 
d="M15 388v78h66q31 253 243 253q157 0 223 -124l-84 -54q-47 74 -133 74q-118 0 -139 -149h248l-18 -78h-235v-61h220l-18 -78h-197q21 -154 142 -154q91 0 133 73l85 -56q-70 -121 -225 -121q-125 0 -183 75q-51 70 -63 183h-65v78h60v61h-60z" />
    <glyph glyph-name="trademark" unicode="&#x2122;" horiz-adv-x="777" 
d="M287 710v-72h-108v-288h-76v288h-108v72h292zM381 350h-75v360h115l80 -258l81 258h116v-360h-75v264l-87 -264h-68l-87 264v-264z" />
    <glyph glyph-name="partialdiff" unicode="&#x2202;" horiz-adv-x="560" 
d="M22 245q0 121 59 201q58 80 166 82q78 0 121 -55q-19 70 -76 105q-55 34 -122 34v107q213 0 290 -192q42 -100 42 -239q0 -132 -57 -215q-57 -82 -180 -82q-111 0 -177 69q-66 70 -66 185zM135 245q2 -69 35.5 -109t94.5 -40q76 -5 107 74q13 30 16 96q1 13 1 50
q-31 57 -62.5 82t-79.5 25q-16 0 -39 -12q-18 -8 -34 -26q-39 -45 -39 -140z" />
    <glyph glyph-name="product" unicode="&#x220f;" horiz-adv-x="827" 
d="M143 -180v785h-118v105h772v-105h-118v-785h-116v785h-304v-785h-116z" />
    <glyph glyph-name="summation" unicode="&#x2211;" horiz-adv-x="689" 
d="M25 -76l259 340l-259 341v105h634v-105h-489l259 -341l-259 -340h489v-104h-634v104z" />
    <glyph glyph-name="minus" unicode="&#x2212;" 
d="M537 344v-118h-474v118h474z" />
    <glyph glyph-name="radical" unicode="&#x221a;" 
d="M546 889h124l-262 -889h-117l-127 376h-129v115h215l96 -304z" />
    <glyph glyph-name="infinity" unicode="&#x221e;" horiz-adv-x="630" 
d="M443 409q66 0 101.5 -37t35.5 -98t-35.5 -97.5t-101.5 -36.5q-59 0 -129 78q-40 -46 -77 -65q-25 -13 -50 -13q-65 0 -101 36.5t-36 97.5t36 98t101 37q46 0 88 -38q22 -22 39 -41q27 30 41 42.5t36 23.5q25 13 52 13zM184 207q38 0 87 67l-1 2q-2 3 -5 7l-6.5 9
t-8.5 10.5l-10.5 11t-12 10.5t-13.5 9t-14.5 6.5t-15.5 2.5q-58 0 -58 -68q0 -67 58 -67zM447 207q57 0 57 67q0 68 -57 68q-19 0 -41 -16t-34 -35l-12 -17q49 -67 87 -67z" />
    <glyph glyph-name="integral" unicode="&#x222b;" horiz-adv-x="515" 
d="M439 719q39 0 54 -5l7 -2v-118q-47 10 -65 10q-49 0 -60 -48l-132 -601q-18 -80 -58 -112t-119 -32q-6 0 -51 6v116q24 -7 51 -7q52 0 63 47l133 605q15 71 57.5 106t119.5 35z" />
    <glyph glyph-name="approxequal" unicode="&#x2248;" 
d="M87 123l-84 66q15 27 29 44q19 24 37 39q52 44 117 44q52 0 100 -34q20 -13 47 -33q53 -39 83 -39q21 0 45 18t41 40l13 19l81 -65q-7 -16 -29 -44q-15 -20 -36 -37q-51 -43 -115 -43q-67 0 -149 67q-2 2 -13.5 10l-14.5 10q-4 4 -12 8q-21 13 -41 13q-22 0 -47 -21
q-25 -20 -39 -41zM87 383l-84 66q15 27 29 44q19 24 37 39q52 44 117 44q52 0 100 -34q20 -13 47 -33q53 -39 83 -39q22 0 46 17.5t40 40.5l13 19l81 -65q-7 -16 -29 -44q-15 -20 -36 -37q-51 -43 -115 -43q-67 0 -149 67q-3 2 -14 10t-14 10q-4 4 -12 8q-21 13 -41 13
q-22 0 -47 -21q-25 -20 -39 -41z" />
    <glyph glyph-name="notequal" unicode="&#x2260;" 
d="M227 -80h-123l66 165h-100v119h149l48 118h-197v119h246l60 149h121l-60 -149h94v-119h-142l-47 -118h189v-119h-237z" />
    <glyph glyph-name="lessequal" unicode="&#x2264;" 
d="M83 472v49l365 274l69 -80l-303 -219l303 -219l-69 -80zM517 119v-119h-434v119h434z" />
    <glyph glyph-name="greaterequal" unicode="&#x2265;" 
d="M517 521v-49l-365 -275l-69 80l303 219l-303 219l69 80zM83 0v119h434v-119h-434z" />
    <glyph glyph-name="lozenge" unicode="&#x25ca;" 
d="M268 0l-216 355l216 355h66l215 -355l-215 -355h-66zM187 355l114 -188l114 188l-114 188z" />
    <glyph glyph-name="uniFB01" unicode="&#xfb01;" horiz-adv-x="538" 
d="M315 614q-30 6 -51 6q-33 0 -47 -20.5t-14 -70.5h100v-97h-100v-432h-108v432h-91v97h91q0 103 33.5 146.5t109.5 43.5q29 0 77 -7v-98zM360 0v529h109v-529h-109zM473 710v-118h-117v118h117z" />
    <glyph glyph-name="uniFB02" unicode="&#xfb02;" horiz-adv-x="529" 
d="M315 614q-30 6 -51 6q-33 0 -47 -20.5t-14 -70.5h100v-97h-100v-432h-108v432h-91v97h91q0 103 33.5 146.5t109.5 43.5q29 0 77 -7v-98zM469 0h-109v710h109v-710z" />
    <glyph glyph-name="NULL" horiz-adv-x="0" 
 />
    <glyph glyph-name="CR" horiz-adv-x="333" 
 />
    <glyph glyph-name="apple" horiz-adv-x="752" 
d="M672 617v-595q0 -9 -6.5 -15.5t-15.5 -6.5q-4 0 -7 1l-267 77l-267 -77q-3 -1 -7 -1q-9 0 -15.5 6.5t-6.5 15.5v595q0 18 16 22l270 78q10 4 20 0l270 -78q16 -4 16 -22zM354 366v303l-230 -67q6 -93 71 -161q66 -67 159 -75zM398 669v-303q94 8 158 75q66 68 72 161z
M123 463v-412l231 67v204q-73 6 -134 43.5t-97 97.5zM629 51v412q-37 -60 -98 -97.5t-133 -43.5v-204z" />
    </font>
</defs>
</svg>
