<?xml version="1.0" standalone="no"?>
<!DOCTYPE svg PUBLIC "-//W3C//DTD SVG 1.1//EN" "http://www.w3.org/Graphics/SVG/1.1/DTD/svg11.dtd" >
<svg>
<metadata>
Created by FontForge 20090622 at Thu Jul 11 12:31:16 2019
 By deploy user
Copyright (c) 2009 by The Entente (AS &#38; EH). All rights reserved.
</metadata>
<defs>
<font id="Reader-Bold" horiz-adv-x="590" >
  <font-face 
    font-family="Reader"
    font-weight="700"
    font-stretch="normal"
    units-per-em="1000"
    panose-1="2 0 0 0 0 0 0 0 0 0"
    ascent="750"
    descent="-250"
    x-height="529"
    cap-height="710"
    bbox="-63 -237 1091 939"
    underline-thickness="50"
    underline-position="-50"
    unicode-range="U+0020-U+FB02"
  />
<missing-glyph horiz-adv-x="552" 
d="M482 0h-412v710h412v-710zM155 625v-541h242v541h-242z" />
    <glyph glyph-name=".notdef" horiz-adv-x="552" 
d="M482 0h-412v710h412v-710zM155 625v-541h242v541h-242z" />
    <glyph glyph-name=".null" horiz-adv-x="0" 
 />
    <glyph glyph-name="nonmarkingreturn" horiz-adv-x="333" 
 />
    <glyph glyph-name="space" unicode=" " horiz-adv-x="307" 
 />
    <glyph glyph-name="exclam" unicode="!" horiz-adv-x="281" 
d="M216 0h-147v138h147v-138zM195 220h-106l-18 314v176h143v-176z" />
    <glyph glyph-name="quotedbl" unicode="&#x22;" horiz-adv-x="412" 
d="M162 710v-99l-14 -137h-90l-13 137v99h117zM367 710v-99l-14 -137h-90l-13 137v99h117z" />
    <glyph glyph-name="numbersign" unicode="#" horiz-adv-x="681" 
d="M424 550l33 160h138l-33 -160h104v-134h-132l-23 -109h110v-134h-137l-36 -173h-138l36 173h-114l-36 -173h-138l36 173h-89v134h116l23 109h-94v134h122l33 160h139l-34 -160h114zM396 416h-114l-22 -109h113z" />
    <glyph glyph-name="dollar" unicode="$" 
d="M230 715v79h128v-80q78 -11 127.5 -42t68.5 -58l6 -10l-121 -69q-7 13 -29.5 27t-51.5 22v-162q101 -17 166 -59q79 -48 79 -152q0 -67 -48 -131q-56 -76 -197 -87v-75h-128v79q-176 22 -244 138l116 68q12 -24 46.5 -45t81.5 -30v173q-93 12 -155 55q-70 51 -70 153
q0 87 58 140.5t167 65.5zM459 211q0 35 -24 51.5t-77 25.5v-167q70 7 87 35q14 23 14 55zM147 509q0 -34 19 -49t64 -24v152q-83 -17 -83 -79z" />
    <glyph glyph-name="percent" unicode="%" horiz-adv-x="678" 
d="M166 0h-114l464 710h115zM323 549q0 -175 -151 -175q-152 0 -152 175q0 72 35 121q34 49 117 49t117 -49q34 -47 34 -121zM231 549q0 52 -12 74.5t-47 22.5t-47.5 -23t-12.5 -74q0 -52 12.5 -76.5t47.5 -24.5t47 24t12 77zM660 166q0 -175 -151 -175q-152 0 -152 175
q0 72 35 121q34 49 117 49t117 -49q34 -47 34 -121zM568 166q0 52 -12 74.5t-47 22.5t-47.5 -23t-12.5 -74q0 -52 12.5 -76.5t47.5 -24.5t47 24t12 77z" />
    <glyph glyph-name="ampersand" unicode="&#x26;" horiz-adv-x="680" 
d="M542 337l91 -99q-25 -48 -68 -96l134 -142h-159l-52 61q-31 -31 -90 -50q-62 -20 -116 -20q-89 0 -167 41q-42 22 -66 66.5t-24 105.5q0 122 151 195q-74 86 -74 164q0 73 54.5 114.5t143.5 41.5q85 0 140 -47q55 -46 55 -127q0 -57 -34 -107t-90 -82l107 -118
q25 31 64 99zM299 598q-29 0 -46 -13.5t-17 -39.5q0 -53 55 -105q38 19 54 42t16 63q0 53 -62 53zM163 203q0 -44 37 -68q38 -24 83 -24q81 0 122 40l-145 161q-43 -15 -70 -43.5t-27 -65.5z" />
    <glyph glyph-name="quotesingle" unicode="'" horiz-adv-x="207" 
d="M162 710v-99l-14 -137h-90l-13 137v99h117z" />
    <glyph glyph-name="parenleft" unicode="(" horiz-adv-x="396" 
d="M80 267q0 297 194 503l94 -83q-163 -169 -163 -420q0 -252 163 -421l-94 -83q-194 206 -194 504z" />
    <glyph glyph-name="parenright" unicode=")" horiz-adv-x="396" 
d="M316 267q0 -298 -194 -504l-94 83q163 169 163 421q0 251 -163 420l94 83q194 -206 194 -503z" />
    <glyph glyph-name="asterisk" unicode="*" horiz-adv-x="496" 
d="M475 508l-130 -36l83 -109l-102 -75l-78 111l-78 -111l-102 75l83 109l-130 36l39 121l129 -45l-6 135h130l-6 -135l129 45z" />
    <glyph glyph-name="plus" unicode="+" horiz-adv-x="600" 
d="M237 348v218h127v-218h206v-110h-206v-225h-127v225h-207v110h207z" />
    <glyph glyph-name="comma" unicode="," horiz-adv-x="282" 
d="M66 141h150v-141q0 -52 -14 -72q-14 -21 -75 -68l-47 58q33 20 44.5 36.5t11.5 38.5v7h-70v141z" />
    <glyph glyph-name="hyphen" unicode="-" horiz-adv-x="422" 
d="M382 236h-342v115h342v-115z" />
    <glyph glyph-name="period" unicode="." horiz-adv-x="282" 
d="M216 141v-141h-150v141h150z" />
    <glyph glyph-name="slash" unicode="/" horiz-adv-x="528" 
d="M518 719l-390 -719h-148l389 719h149z" />
    <glyph glyph-name="zero" unicode="0" 
d="M558 359q0 -159 -47 -254q-56 -114 -217 -114q-125 0 -191 74q-28 33 -45 83q-28 82 -28 212q0 122 28 201q54 158 236 158q128 0 190 -76q30 -35 46 -82q28 -79 28 -202zM416 349v19q0 76 -10 125q-8 48 -34.5 71.5t-77.5 26.5q-63 0 -94 -46q-11 -19 -19 -52
q-9 -49 -9 -125v-19q0 -78 9 -129q18 -95 113 -101q65 0 93 48q13 18 19 53q10 50 10 129z" />
    <glyph glyph-name="one" unicode="1" 
d="M270 710h138v-710h-142v461h-171v128q29 0 63 7q107 21 112 114z" />
    <glyph glyph-name="two" unicode="2" 
d="M185 128h341v-128h-484v104q0 66 33 119t87 85q20 12 60 33.5t62.5 35t48.5 33.5t38.5 42.5t12.5 47.5q0 44 -30 67.5t-80 23.5q-46 0 -76 -14.5t-64 -49.5l-91 95q97 97 231 97q124 0 188 -56.5t64 -162.5q0 -58 -35.5 -105t-85.5 -78l-99.5 -59t-85 -61t-35.5 -69z" />
    <glyph glyph-name="three" unicode="3" 
d="M420 388q61 -20 94 -67t33 -104q0 -110 -79 -168q-77 -58 -197 -58q-72 0 -145 29q-72 31 -100 87l94 82q29 -38 63 -54t88 -16q64 0 99 25.5t35 72.5q0 56 -36 79q-16 11 -40 17q-32 8 -88 8v128q57 0 100 12q48 13 48 65q0 32 -30.5 49.5t-80.5 17.5q-47 0 -81 -15
t-66 -52l-91 85q38 53 99.5 80.5t131.5 27.5q115 0 185 -48q71 -47 71 -145q0 -50 -30 -89t-77 -49z" />
    <glyph glyph-name="four" unicode="4" 
d="M462 253h119v-128h-119v-125h-142v125h-310v128l265 457h158l-265 -457h152v193h142v-193z" />
    <glyph glyph-name="five" unicode="5" 
d="M318 498q103 0 171 -65q67 -64 67 -182q0 -111 -76 -186q-77 -74 -193 -74q-163 0 -253 103l107 88q47 -63 146 -63q58 0 92.5 36.5t34.5 95.5q0 56 -31.5 87.5t-83.5 31.5q-83 0 -127 -65h-122l31 405h432v-128h-313l-10 -128q41 44 128 44z" />
    <glyph glyph-name="six" unicode="6" 
d="M305 -9q-131 0 -203 74q-71 74 -71 246q0 197 79 302.5t217 105.5q145 0 218 -70l-75 -104q-50 46 -143 46q-58 0 -105 -41q-45 -40 -47 -121q47 60 144 60q109 0 180 -68t71 -172q0 -119 -73 -189q-72 -69 -192 -69zM305 361q-58 0 -93.5 -30t-35.5 -90q0 -122 129 -122
q53 0 86.5 34t33.5 88q0 53 -33.5 86.5t-86.5 33.5z" />
    <glyph glyph-name="seven" unicode="7" 
d="M49 582v128h501v-128q-109 -124 -157 -262q-49 -140 -59 -320h-142q0 145 55 295q57 155 155 287h-353z" />
    <glyph glyph-name="eight" unicode="8" 
d="M162 376q-45 18 -69.5 56.5t-24.5 85.5q0 96 64 148q65 53 163 53t163 -53q64 -52 64 -148q0 -47 -24.5 -85.5t-69.5 -56.5q48 -14 79 -62q32 -50 32 -106q0 -102 -69 -160q-68 -57 -175 -57t-176 57q-68 59 -68 160q0 57 31 106q31 48 80 62zM206 515q0 -80 89 -80
t89 80q0 37 -23.5 61.5t-65.5 24.5t-65.5 -24.5t-23.5 -61.5zM397 208q0 46 -27 72.5t-75 26.5t-75 -26.5t-27 -72.5q0 -42 26 -65.5t76 -23.5t76 23.5t26 65.5z" />
    <glyph glyph-name="nine" unicode="9" 
d="M285 719q131 0 202 -74q72 -73 72 -246q0 -197 -79 -302.5t-217 -105.5q-145 0 -218 70l75 104q50 -46 143 -46q57 0 104 41q46 40 48 121q-47 -60 -144 -60q-110 0 -180 67q-71 68 -71 173q0 119 72 188q73 70 193 70zM285 349q58 0 93.5 30t35.5 90q0 122 -129 122
q-53 0 -86.5 -34t-33.5 -88q0 -53 33.5 -86.5t86.5 -33.5z" />
    <glyph glyph-name="colon" unicode=":" horiz-adv-x="282" 
d="M216 141v-141h-150v141h150zM216 535v-141h-150v141h150z" />
    <glyph glyph-name="semicolon" unicode=";" horiz-adv-x="282" 
d="M66 141h150v-141q0 -52 -14 -72q-14 -21 -75 -68l-47 58q33 20 44.5 36.5t11.5 38.5v7h-70v141zM216 535v-141h-150v141h150z" />
    <glyph glyph-name="less" unicode="&#x3c;" horiz-adv-x="600" 
d="M494 95l-82 -95l-332 288v58l332 288l82 -95l-257 -222z" />
    <glyph glyph-name="equal" unicode="=" horiz-adv-x="600" 
d="M71 215h458v-140h-458v140zM71 452h458v-140h-458v140z" />
    <glyph glyph-name="greater" unicode="&#x3e;" horiz-adv-x="600" 
d="M520 346v-58l-332 -288l-82 95l257 222l-257 222l82 95z" />
    <glyph glyph-name="question" unicode="?" horiz-adv-x="527" 
d="M271 719q95 0 165 -49q72 -50 72 -140q0 -38 -14 -69t-34.5 -50l-44.5 -41l-44.5 -42t-34.5 -53.5t-14 -75.5h-137q0 126 65 186q12 12 39 33t40.5 34t26 34t12.5 44q0 31 -26 49.5t-71 18.5q-99 0 -160 -91l-93 83q41 56 111 92q70 37 142 37zM327 0h-147v138h147v-138z
" />
    <glyph glyph-name="at" unicode="@" horiz-adv-x="771" 
d="M381 152q55 0 72 17.5t17 63.5v32q-20 -21 -74 -21q-42 0 -59.5 -11.5t-17.5 -38.5q0 -42 62 -42zM723 295q0 -109 -40.5 -167t-114.5 -58q-29 0 -49 7t-26.5 13t-4.5 9q-39 -36 -119 -36q-59 0 -105 33q-46 34 -46 95q-5 78 57 110q14 10 42 14q24 5 45 7l55 5
q46 3 46 27q0 38 -61 38q-60 0 -97 -46l-64 63q26 33 69.5 52t91.5 19q157 0 157 -152v-131q0 -34 21 -34q15 0 21 27.5t6 104.5q0 119 -49.5 174t-164.5 55q-103 0 -167 -72q-63 -70 -63 -183q0 -132 54 -196.5t176 -64.5q104 0 183 35l56 -81q-52 -34 -102 -45
q-50 -12 -139 -12q-162 0 -254 95q-91 95 -91 269q0 151 96 258q96 106 251 106q160 0 245 -86.5t85 -251.5z" />
    <glyph glyph-name="A" unicode="A" horiz-adv-x="711" 
d="M712 0h-157l-59 156h-281l-59 -156h-157l279 710h155zM356 524l-92 -240h183z" />
    <glyph glyph-name="B" unicode="B" horiz-adv-x="680" 
d="M540 389q107 -56 107 -175q0 -113 -58.5 -163.5t-178.5 -50.5h-340v710h340q100 0 154.5 -49.5t54.5 -145.5q0 -40 -17.5 -69t-61.5 -57zM401 582h-187v-150h187q34 0 54 18.5t20 56.5t-20 56.5t-54 18.5zM214 128h198q91 0 91 88t-91 88h-198v-176z" />
    <glyph glyph-name="C" unicode="C" horiz-adv-x="671" 
d="M375 119q106 0 160 100l118 -69q-46 -75 -118 -117t-160 -42q-145 0 -241 105q-95 107 -95 259t95 258q96 106 241 106q88 0 160 -42t118 -117l-118 -68q-55 99 -160 99q-86 0 -139 -68t-53 -168t53 -168t139 -68z" />
    <glyph glyph-name="D" unicode="D" horiz-adv-x="699" 
d="M70 710h245q151 0 247 -102q96 -100 96 -253q0 -152 -96 -254q-96 -101 -247 -101h-245v710zM214 128h96q93 0 148 64q57 65 57 163q0 97 -57 162q-56 65 -148 65h-96v-454z" />
    <glyph glyph-name="E" unicode="E" horiz-adv-x="593" 
d="M214 306v-178h353v-128h-497v710h492v-128h-348v-148h281v-128h-281z" />
    <glyph glyph-name="F" unicode="F" horiz-adv-x="555" 
d="M539 710v-128h-325v-148h259v-128h-259v-306h-144v710h469z" />
    <glyph glyph-name="G" unicode="G" horiz-adv-x="742" 
d="M387 401h290v-401h-143l-18 35q-56 -44 -128 -44q-160 0 -255 104q-94 103 -94 260q0 153 99 258q99 106 250 106q91 0 166 -41.5t123 -114.5l-126 -73q-54 101 -170 101q-94 0 -146 -67t-52 -169t52 -169t146 -67q71 0 111.5 37t40.5 117h-146v128z" />
    <glyph glyph-name="H" unicode="H" horiz-adv-x="687" 
d="M473 430v280h144v-710h-144v302h-259v-302h-144v710h144v-280h259z" />
    <glyph glyph-name="I" unicode="I" horiz-adv-x="284" 
d="M214 710v-710h-144v710h144z" />
    <glyph glyph-name="J" unicode="J" horiz-adv-x="540" 
d="M331 710h144v-513q0 -111 -56.5 -158.5t-175.5 -47.5q-116 0 -174 61q-59 62 -59 148h145q0 -82 88 -82t88 79v513z" />
    <glyph glyph-name="K" unicode="K" horiz-adv-x="663" 
d="M214 408l262 302h186l-268 -300l274 -410h-170l-196 308l-88 -99v-209h-144v710h144v-302z" />
    <glyph glyph-name="L" unicode="L" horiz-adv-x="566" 
d="M214 710v-582h331v-128h-475v710h144z" />
    <glyph glyph-name="M" unicode="M" horiz-adv-x="946" 
d="M472 186l162 524h242v-710h-144v541l-182 -541h-154l-182 542v-542h-144v710h242z" />
    <glyph glyph-name="N" unicode="N" horiz-adv-x="698" 
d="M484 252v458h144v-710h-144l-270 458v-458h-144v710h144z" />
    <glyph glyph-name="O" unicode="O" horiz-adv-x="776" 
d="M638 613q99 -105 99 -258t-99 -259q-99 -105 -250 -105t-250 105q-99 106 -99 259t99 258q99 106 250 106t250 -106zM536 187q57 67 57 168t-57 168q-57 68 -148 68t-148 -68q-57 -67 -57 -168t57 -168q57 -68 148 -68t148 68z" />
    <glyph glyph-name="P" unicode="P" horiz-adv-x="671" 
d="M396 250h-182v-250h-144v710h326q114 0 184 -43q82 -50 82 -187t-82 -187q-70 -43 -184 -43zM214 582v-204h186q60 0 89 23t29 79t-29 79t-89 23h-186z" />
    <glyph glyph-name="Q" unicode="Q" horiz-adv-x="771" 
d="M686 161q27 -24 91 -26v-144q-111 0 -188 63q-89 -63 -201 -63q-151 0 -250 105q-99 106 -99 259t99 258q99 106 250 106t250 -106q99 -105 99 -258q0 -107 -51 -194zM388 119q68 0 120 40q-38 46 -124 47v144q121 0 201 -67q8 37 8 72q0 101 -57 168q-57 68 -148 68
t-148 -68q-57 -67 -57 -168t57 -168q57 -68 148 -68z" />
    <glyph glyph-name="R" unicode="R" horiz-adv-x="712" 
d="M662 480q0 -177 -152 -218l191 -262h-177l-183 250h-127v-250h-144v710h326q114 0 184 -43q82 -50 82 -187zM214 582v-204h186q60 0 89 23t29 79t-29 79t-89 23h-186z" />
    <glyph glyph-name="S" unicode="S" horiz-adv-x="643" 
d="M7 135l116 68q20 -35 77.5 -59.5t136.5 -24.5q89 0 114 35q19 25 19 57q0 34 -24 52t-62 24t-84 9.5t-92.5 12.5t-84.5 28.5t-62 62.5t-24 109q0 99 74 154.5t212 55.5q118 0 184 -41q60 -33 77 -62l8 -12l-121 -69q-11 20 -53 38t-95 18q-142 0 -142 -82q0 -17 5.5 -30
t19 -22t26 -14.5t36.5 -9.5t38.5 -5.5l44.5 -4.5q107 -7 177 -41q40 -19 63 -63.5t23 -107.5q0 -27 -6 -53.5t-24.5 -57.5t-47.5 -54.5t-80 -39t-117 -15.5q-247 0 -332 144z" />
    <glyph glyph-name="T" unicode="T" horiz-adv-x="596" 
d="M6 710h584v-128h-220v-582h-144v582h-220v128z" />
    <glyph glyph-name="U" unicode="U" horiz-adv-x="701" 
d="M502 710h144v-366q0 -142 -34 -219q-30 -67 -93.5 -100.5t-173.5 -33.5q-170 0 -234 95q-56 87 -56 258v366h144v-366q0 -95 12 -140q13 -44 43 -63t91 -22q81 0 120 39q18 18 25 50q12 48 12 136v366z" />
    <glyph glyph-name="V" unicode="V" horiz-adv-x="640" 
d="M643 710l-245 -710h-155l-246 710h157l166 -524l166 524h157z" />
    <glyph glyph-name="W" unicode="W" horiz-adv-x="1048" 
d="M758 186l134 524h157l-213 -710h-155l-157 485l-157 -485h-155l-213 710h157l134 -524l155 524h158z" />
    <glyph glyph-name="X" unicode="X" horiz-adv-x="687" 
d="M513 0l-169 254l-171 -254h-172l262 374l-236 336h173l144 -215l143 215h172l-235 -336l262 -374h-173z" />
    <glyph glyph-name="Y" unicode="Y" horiz-adv-x="616" 
d="M159 710l149 -300l149 300h164l-241 -442v-268h-144v268l-241 442h164z" />
    <glyph glyph-name="Z" unicode="Z" 
d="M549 582l-337 -454h347v-128h-526v128l337 454h-323v128h502v-128z" />
    <glyph glyph-name="bracketleft" unicode="[" horiz-adv-x="320" 
d="M307 -159h-247v933h247v-125h-117v-683h117v-125z" />
    <glyph glyph-name="backslash" unicode="\" horiz-adv-x="548" 
d="M154 719l389 -719h-148l-390 719h149z" />
    <glyph glyph-name="bracketright" unicode="]" horiz-adv-x="320" 
d="M13 774h247v-933h-247v125h117v683h-117v125z" />
    <glyph glyph-name="asciicircum" unicode="^" horiz-adv-x="733" 
d="M286 474h-166l151 236h191l151 -236h-166l-81 104z" />
    <glyph glyph-name="underscore" unicode="_" horiz-adv-x="494" 
d="M-5 0h504v-132h-504v132z" />
    <glyph glyph-name="grave" unicode="`" horiz-adv-x="410" 
d="M100 719h128l82 -149h-106z" />
    <glyph glyph-name="a" unicode="a" horiz-adv-x="562" 
d="M506 5l4 -5h-120q-24 9 -26 48q-16 -25 -50 -39q-41 -18 -81 -18q-205 0 -205 159q0 92 60 137q24 17 63 28q55 14 126 14q86 0 86 37q0 25 -21 41.5t-66 16.5q-68 0 -124 -50l-88 71q33 44 90.5 68.5t121.5 24.5q102 0 160 -49.5t58 -127.5v-316q0 -23 12 -40zM363 184
v62q-40 -21 -103 -22q-94 -3 -94 -67q0 -30 21.5 -48t59.5 -18q50 0 83 24.5t33 68.5z" />
    <glyph glyph-name="b" unicode="b" horiz-adv-x="653" 
d="M357 538q120 0 192 -74q73 -73 73 -200q0 -123 -69 -198t-196 -75q-79 0 -134 45l-14 -36h-139v710h139v-237q57 65 148 65zM347 106q64 0 100 44.5t36 113.5q0 70 -35 114t-101 44q-68 0 -108 -46q-41 -47 -41 -112q0 -66 39 -112q40 -46 110 -46z" />
    <glyph glyph-name="c" unicode="c" horiz-adv-x="547" 
d="M308 107q75 0 114 64l118 -60q-44 -63 -99 -91.5t-133 -28.5q-120 0 -199 79q-78 80 -78 195q0 113 73 192q74 81 204 81q82 0 137 -29.5t95 -94.5l-121 -57q-38 65 -111 65q-64 0 -101 -46q-37 -44 -37 -111q0 -69 37 -113.5t101 -44.5z" />
    <glyph glyph-name="d" unicode="d" horiz-adv-x="653" 
d="M296 538q91 0 148 -65v237h139v-710h-139l-14 36q-56 -45 -134 -45q-127 0 -196 75t-69 198q0 126 72 200q74 74 193 74zM306 106q70 0 109 46q40 46 40 112q0 65 -41 112q-40 46 -108 46q-66 0 -101 -44t-35 -114q0 -69 36 -113.5t100 -44.5z" />
    <glyph glyph-name="e" unicode="e" horiz-adv-x="594" 
d="M298 107q89 0 125 61l106 -55q-37 -57 -97 -89.5t-134 -32.5q-126 0 -197 77q-70 77 -70 196q0 115 67 194.5t200 79.5q126 0 196 -81q71 -82 71 -193v-53h-399q21 -104 132 -104zM298 422q-96 0 -128 -95h256q-32 95 -128 95z" />
    <glyph glyph-name="f" unicode="f" horiz-adv-x="354" 
d="M279 719q35 0 72 -9v-116q-36 9 -67 9q-46 0 -46 -74h93v-115h-94v-414h-138v414h-89v115h89q1 102 45.5 146t134.5 44z" />
    <glyph glyph-name="g" unicode="g" horiz-adv-x="633" 
d="M571 529v-498q0 -100 -77 -160q-76 -60 -195 -60q-98 0 -169 29q-29 12 -52.5 25.5t-34.5 22.5t-13 13l84 78q52 -52 185 -52q78 0 106 26q27 25 27 68v25q-51 -56 -128 -56q-115 0 -195 80q-79 79 -79 195q0 109 77 191q76 82 197 82q60 0 113 -41l15 32h139zM304 106
q62 0 99 46t37 113q0 65 -36 111q-34 46 -100 46q-62 0 -98.5 -44.5t-36.5 -112.5q0 -69 36 -114t99 -45z" />
    <glyph glyph-name="h" unicode="h" horiz-adv-x="627" 
d="M566 327v-327h-139v3v3v3v3v3v3v3v3v3v3v3v3v3v3v3v3v3v3v3v3v3v3v3v3v3v3v3v3v3v3v3v3v3v3v3v3v3v3v3v3v3v3v3v3v3v3v3v3v3v3v3v3v3v3v3v3v3v3v3v3v3v3v3v3v3v3v3v3v3v3v3v3v3v3v3v3v3v3v3v3v3v3v2v3v3v3v3v3v3v3v3v3v3v3v3v3v3v3v3v3v3v3v2v3v3v3v3v7q0 48 -19.5 72
t-70.5 24q-60 0 -96.5 -44.5t-36.5 -114.5v-263h-139v710h139v-251q21 32 61 55.5t91 23.5q105 0 157 -46q53 -47 53 -165z" />
    <glyph glyph-name="i" unicode="i" horiz-adv-x="275" 
d="M207 529v-529h-139v529h139zM210 710v-131h-145v131h145z" />
    <glyph glyph-name="j" unicode="j" horiz-adv-x="293" 
d="M86 -5v531h139v-531q0 -33 -1 -44q-2 -57 -17 -81q-32 -59 -111 -59q-82 0 -111 9v112q22 -7 65 -7q36 0 36 70zM228 710v-131h-145v131h145z" />
    <glyph glyph-name="k" unicode="k" horiz-adv-x="596" 
d="M550 529l-183 -198l231 -331h-163l-154 238l-77 -83v-155h-139v710h139v-373l166 192h180z" />
    <glyph glyph-name="l" unicode="l" horiz-adv-x="269" 
d="M204 710v-710h-139v710h139z" />
    <glyph glyph-name="m" unicode="m" horiz-adv-x="893" 
d="M832 326v-326h-139v326q0 39 -11 65q-13 34 -69 34q-84 0 -84 -142v-283h-139v326q0 99 -90 99q-51 0 -73.5 -38t-22.5 -112v-275h-139v529h139l17 -37q37 46 116 46q115 0 162 -80q56 80 147 80q87 0 133 -38q53 -41 53 -174z" />
    <glyph glyph-name="n" unicode="n" horiz-adv-x="625" 
d="M564 326v-326h-139v326q0 99 -89 99q-63 0 -97.5 -42t-34.5 -122v-261h-139v529h139l21 -46q55 55 129 55q91 0 146 -39q64 -45 64 -173z" />
    <glyph glyph-name="o" unicode="o" horiz-adv-x="618" 
d="M587 264q0 -114 -79 -193q-78 -80 -199 -80q-120 0 -200 80q-78 79 -78 193t78 194q80 80 200 80q121 0 199 -80q79 -79 79 -194zM170 264q0 -69 37.5 -113t101.5 -44t101.5 44t37.5 113q0 68 -37.5 113t-101.5 45t-101.5 -45t-37.5 -113z" />
    <glyph glyph-name="p" unicode="p" horiz-adv-x="653" 
d="M357 -9q-91 0 -148 65v-236h-139v709h139l14 -36q55 45 134 45q127 0 196 -75t69 -198q0 -128 -73 -201q-72 -73 -192 -73zM347 423q-70 0 -110 -46q-39 -47 -39 -112t41 -112q40 -46 108 -46q66 0 101 44t35 114q0 69 -36 113.5t-100 44.5z" />
    <glyph glyph-name="q" unicode="q" horiz-adv-x="648" 
d="M296 -9q-120 0 -193 73q-72 74 -72 201q0 123 69 198t196 75q78 0 134 -45l14 36h139v-709h-139v236q-57 -65 -148 -65zM306 423q-64 0 -100 -44.5t-36 -113.5q0 -70 35 -114t101 -44q68 0 108 46q41 47 41 112q0 66 -40 112q-39 46 -109 46z" />
    <glyph glyph-name="r" unicode="r" horiz-adv-x="413" 
d="M356 538q27 0 51 -9v-119q-28 15 -70 15q-62 0 -97.5 -48.5t-35.5 -130.5v-246h-139v529h138l22 -48q55 57 131 57z" />
    <glyph glyph-name="s" unicode="s" horiz-adv-x="518" 
d="M19 96l-6 12l113 45q4 -6 11 -13q13 -10 50 -21.5t81 -11.5q49 0 65.5 10t16.5 35q0 23 -33 36t-79.5 21.5t-93 23t-79.5 51t-33 94.5q0 22 9.5 46.5t31.5 51.5t68 44.5t110 17.5q56 0 107 -19q54 -20 76 -38l24 -19l-86 -78q-4 4 -13 10q-10 9 -42.5 18.5t-65.5 9.5
q-80 0 -80 -44q0 -31 33 -46.5t79.5 -23t93 -19t79.5 -45.5t33 -92q0 -76 -51.5 -118.5t-161.5 -42.5q-123 0 -187 41q-57 38 -70 64z" />
    <glyph glyph-name="t" unicode="t" horiz-adv-x="380" 
d="M355 529v-115h-127v-238q0 -25 8 -44q12 -25 59 -25l60 9v-116q-59 -9 -119 -9q-86 0 -116 46q-29 47 -29 142v235h-94v115h94v181h137v-181h127z" />
    <glyph glyph-name="u" unicode="u" horiz-adv-x="623" 
d="M59 203v326h139v-326q0 -99 89 -99q63 0 97.5 42t34.5 122v261h139v-529h-139l-21 46q-55 -55 -129 -55q-91 0 -146 39q-64 45 -64 173z" />
    <glyph glyph-name="v" unicode="v" horiz-adv-x="586" 
d="M371 0h-156l-217 529h141l154 -385l154 385h141z" />
    <glyph glyph-name="w" unicode="w" horiz-adv-x="814" 
d="M505 0l-98 365l-98 -365h-154l-157 529h146l90 -361l93 361h160l93 -361l90 361h146l-157 -529h-154z" />
    <glyph glyph-name="x" unicode="x" horiz-adv-x="502" 
d="M252 381l93 148h160l-179 -260l181 -269h-159l-96 155l-96 -155h-159l181 269l-179 260h160z" />
    <glyph glyph-name="y" unicode="y" horiz-adv-x="578" 
d="M142 529l143 -393l150 393h145l-223 -571q-55 -147 -162 -147h-109v116h71q19 0 33 15t14 38q0 14 -6 32l-200 517h144z" />
    <glyph glyph-name="z" unicode="z" horiz-adv-x="490" 
d="M448 413l-243 -297h255v-116h-428v116l243 297h-228v116h401v-116z" />
    <glyph glyph-name="braceleft" unicode="{" horiz-adv-x="412" 
d="M309 565v-100q0 -125 -121 -158q121 -33 121 -155v-102q0 -60 11 -78t49 -18h27v-113h-64q-82 0 -117.5 43.5t-35.5 128.5v130q0 53 -26.5 80.5t-92.5 28.5v111q70 2 94.5 30.5t24.5 77.5v131q0 85 35.5 128.5t117.5 43.5h64v-113h-27q-38 0 -49 -18t-11 -78z" />
    <glyph glyph-name="bar" unicode="|" horiz-adv-x="248" 
d="M188 -180h-128v899h128v-899z" />
    <glyph glyph-name="braceright" unicode="}" horiz-adv-x="412" 
d="M103 465v100q0 60 -11 78t-49 18h-27v113h64q82 0 117.5 -43.5t35.5 -128.5v-131q0 -49 24.5 -77.5t94.5 -30.5v-111q-66 -1 -92.5 -28.5t-26.5 -80.5v-130q0 -85 -35.5 -128.5t-117.5 -43.5h-64v113h27q38 0 49 18t11 78v102q0 122 121 155q-121 33 -121 158z" />
    <glyph glyph-name="asciitilde" unicode="~" horiz-adv-x="731" 
d="M161 224l-13 -19l-93 75q12 22 32 47q67 86 158 88q71 0 131 -52t97 -52q22 0 46.5 18.5t38.5 40.5l14 19l92 -77q-12 -21 -33 -47q-19 -24 -39 -41q-54 -46 -117 -46q-76 0 -136 52q-56 52 -94 52q-21 0 -45.5 -18t-38.5 -40z" />
    <glyph glyph-name="exclamdown" unicode="&#xa1;" horiz-adv-x="281" 
d="M212 392h-147v138h147v-138zM67 -180v176l18 314h106l19 -314v-176h-143z" />
    <glyph glyph-name="cent" unicode="&#xa2;" 
d="M374 -9h-103v95q-98 20 -159 94t-61 175q0 97 57 174q58 76 163 94v96h103v-94q118 -13 186 -121l-121 -57q-27 43 -65 57v-300q42 15 68 57l118 -60q-74 -105 -186 -118v-92zM190 355q0 -51 21 -90t60 -57v292q-38 -18 -59.5 -57t-21.5 -88z" />
    <glyph glyph-name="sterling" unicode="&#xa3;" 
d="M458 186l96 -86q-42 -54 -91 -78q-43 -22 -116 -22h-314v132q74 30 74 103v81h-61v128h60q0 115 59.5 195t179.5 80q109 0 181 -97l-104 -83q-33 52 -77 52q-58 0 -78 -47q-17 -43 -18 -100h199v-128h-198v-87q0 -34 -1 -43q-2 -35 -32 -58h130q38 0 62.5 13t48.5 45z
" />
    <glyph glyph-name="currency" unicode="&#xa4;" horiz-adv-x="655" 
d="M123 387l-69 61l90 90l60 -69q58 34 123 34q64 0 122 -34l62 69l90 -90l-69 -61q34 -58 34 -122q0 -65 -34 -123l69 -60l-90 -91l-61 69q-55 -34 -123 -34q-69 0 -122 34l-61 -69l-90 91l68 60q-33 57 -33 123t34 122zM327 154q47 0 79 32t32 79t-33 78q-31 33 -78 33
q-46 0 -79 -33q-32 -32 -32 -78t32.5 -78.5t78.5 -32.5z" />
    <glyph glyph-name="yen" unicode="&#xa5;" 
d="M421 369h106v-110h-160v-50h160v-110h-160v-99h-144v99h-160v110h160v50h-160v110h106l-167 341h164l129 -320l129 320h164z" />
    <glyph glyph-name="brokenbar" unicode="&#xa6;" horiz-adv-x="245" 
d="M185 424h-125v295h125v-295zM185 0h-125v295h125v-295z" />
    <glyph glyph-name="section" unicode="&#xa7;" 
d="M75 585q0 89 71 134q70 46 164 46q117 0 200 -83l-88 -89q-36 44 -112 44q-38 0 -65 -14t-27 -38q0 -12 7.5 -19.5t23 -12.5t32 -8t41 -8t42.5 -10q40 -11 70 -27q34 -16 55 -54.5t21 -90.5q0 -55 -41 -108q41 -41 41 -108q0 -88 -71 -135q-71 -45 -164 -45
q-117 0 -200 83l88 89q36 -44 112 -44q38 0 65 14t27 38q0 12 -7.5 19.5t-23 12.5t-32 8t-41 8t-42.5 10q-39 11 -71 27q-34 16 -54.5 54.5t-20.5 90.5q0 55 41 108q-41 39 -41 108zM382 355q0 23 -31 35q-10 6 -46 14l-33 8l-25 5q-44 -23 -44 -48q0 -21 31 -36
q5 -2 13 -4.5t18.5 -5.5t14.5 -4l58 -12q44 23 44 48z" />
    <glyph glyph-name="dieresis" unicode="&#xa8;" horiz-adv-x="499" 
d="M100 719h117v-120h-117v120zM282 719h117v-120h-117v120z" />
    <glyph glyph-name="copyright" unicode="&#xa9;" horiz-adv-x="788" 
d="M136 97q-106 106 -106 258q0 151 106 257q107 107 258 107q150 0 257 -107t107 -257q0 -151 -107 -258q-106 -106 -257 -106q-152 0 -258 106zM394 239q55 0 84 47l88 -44q-63 -90 -172 -90q-90 0 -149 59q-58 59 -58 145q0 84 55 143q56 60 152 60q60 0 101 -22.5
t71 -70.5l-90 -42q-28 49 -82 49q-47 0 -75 -33.5t-28 -83.5q0 -51 27.5 -84t75.5 -33zM211 539q-76 -76 -76 -184t76 -185q77 -77 183 -77t183 77q76 77 76 185t-76 184q-77 78 -183 78t-183 -78z" />
    <glyph glyph-name="ordfeminine" unicode="&#xaa;" horiz-adv-x="456" 
d="M394 341l3 -4h-85q-18 6 -19 34q-27 -40 -93 -40q-145 0 -145 112q0 67 43 97q14 12 44 20q40 10 90 10q61 0 61 27q0 41 -62 41q-49 0 -88 -36l-63 51q23 31 64 48.5t87 17.5q72 0 113.5 -35t41.5 -91v-224q0 -15 8 -28zM293 468v43q-27 -13 -74 -15q-66 -3 -66 -48
q0 -21 15 -33.5t42 -12.5q36 0 59.5 17t23.5 49z" />
    <glyph glyph-name="guillemotleft" unicode="&#xab;" horiz-adv-x="614" 
d="M556 126l-93 -78l-183 217v47l182 217l93 -78l-135 -162zM326 126l-93 -78l-183 217v47l182 217l93 -78l-135 -162z" />
    <glyph glyph-name="logicalnot" unicode="&#xac;" horiz-adv-x="600" 
d="M542 352v-260h-144v132h-353v128h497z" />
    <glyph glyph-name="registered" unicode="&#xae;" horiz-adv-x="788" 
d="M136 97q-106 106 -106 258q0 151 106 257q107 107 258 107q150 0 257 -107t107 -257q0 -151 -107 -258q-106 -106 -257 -106q-152 0 -258 106zM552 425q0 -48 -23.5 -80t-57.5 -42l79 -146h-100l-75 139h-36v-139h-92v396h151q154 0 154 -128zM339 482v-114h57
q33 0 48.5 13t15.5 44t-15.5 44t-48.5 13h-57zM211 539q-76 -76 -76 -184t76 -185q77 -77 183 -77t183 77q76 77 76 185t-76 184q-77 78 -183 78t-183 -78z" />
    <glyph glyph-name="degree" unicode="&#xb0;" horiz-adv-x="381" 
d="M191 729q63 0 108 -45q46 -45 46 -107q0 -64 -46 -107q-46 -44 -108 -44q-64 0 -110 44q-45 44 -45 107q0 62 45 107q46 45 110 45zM161 548q23 -24 51 -5q27 17 21 43q-3 11 -13 20q-12 12 -29 12t-30 -12q-12 -12 -12 -29t12 -29z" />
    <glyph glyph-name="plusminus" unicode="&#xb1;" horiz-adv-x="600" 
d="M241 402v157h121v-157h174v-105h-174v-157h-121v157h-176v105h176zM65 104h471v-104h-471v104z" />
    <glyph glyph-name="uni00B2" unicode="&#xb2;" horiz-adv-x="395" 
d="M131 349h212v-80h-303v65q0 44 21.5 76.5t52 51.5t61.5 35t52.5 37t21.5 48t-18 42t-49 15q-28 0 -45 -9t-39 -31l-57 59q58 61 141 61q72 0 114 -37t42 -100q0 -43 -30.5 -79t-73.5 -57q-39 -20 -71 -45q-32 -26 -32 -52z" />
    <glyph glyph-name="uni00B3" unicode="&#xb3;" horiz-adv-x="395" 
d="M287 508q61 -21 61 -103q0 -70 -43 -105.5t-119 -35.5q-46 0 -88.5 18.5t-65.5 50.5l59 53q35 -47 95 -47q75 0 75 66q0 36 -23.5 49t-70.5 13v76q38 0 63 6q31 10 31 46q0 23 -18.5 37t-56.5 14q-54 0 -96 -49l-47 54q50 68 143 68q72 0 114 -31.5t42 -92.5
q0 -31 -15.5 -56.5t-39.5 -30.5z" />
    <glyph glyph-name="acute" unicode="&#xb4;" horiz-adv-x="410" 
d="M206 570h-106l82 149h128z" />
    <glyph glyph-name="mu" unicode="&#xb5;" horiz-adv-x="629" 
d="M204 -180h-139v709h139v-326q0 -99 89 -99q63 0 97.5 42t34.5 122v261h139v-529h-139l-21 46q-55 -55 -129 -55q-38 0 -71 6v-177z" />
    <glyph glyph-name="mu" unicode="&#x3bc;" horiz-adv-x="629" 
d="M204 -180h-139v709h139v-326q0 -99 89 -99q63 0 97.5 42t34.5 122v261h139v-529h-139l-21 46q-55 -55 -129 -55q-38 0 -71 6v-177z" />
    <glyph glyph-name="paragraph" unicode="&#xb6;" horiz-adv-x="662" 
d="M333 -122h-101v406q-89 0 -151 62t-62 150q0 89 62 151q61 63 151 63h380v-117h-88v-715h-100v715h-91v-715z" />
    <glyph glyph-name="middot" unicode="&#xb7;" horiz-adv-x="282" 
d="M216 393v-141h-150v141h150z" />
    <glyph glyph-name="cedilla" unicode="&#xb8;" horiz-adv-x="445" 
d="M100 -114l47 163l86 -23l-19 -71q15 9 51 9q39 0 59.5 -22.5t20.5 -58.5q0 -41 -32 -67t-81 -26v68q11 2 19 10.5t8 16.5q0 14 -17 14q-20 0 -38.5 -11.5t-26.5 -24.5l-7 -12z" />
    <glyph glyph-name="uni00B9" unicode="&#xb9;" horiz-adv-x="395" 
d="M186 719h86v-440h-88v286h-106v79q15 0 39 5q69 15 69 70z" />
    <glyph glyph-name="ordmasculine" unicode="&#xba;" horiz-adv-x="456" 
d="M432 524q0 -79 -56 -137q-56 -56 -141 -56t-141 56q-56 58 -56 137q0 80 56 138q56 57 141 57t141 -57q56 -58 56 -138zM333 524q0 48 -26.5 80t-71.5 32q-47 0 -73 -33q-26 -32 -26 -79t26 -79t73 -32q46 0 72 31t26 80z" />
    <glyph glyph-name="guillemotright" unicode="&#xbb;" horiz-adv-x="614" 
d="M334 312v-47l-183 -217l-93 78l136 163l-135 162l93 78zM564 312v-47l-183 -217l-93 78l136 163l-135 162l93 78z" />
    <glyph glyph-name="onequarter" unicode="&#xbc;" horiz-adv-x="850" 
d="M221 0h-114l464 710h115zM144 719h86v-440h-88v286h-106v79q15 0 39 5q69 15 69 70zM699 156h74v-79h-74v-77h-87v77h-192v79l164 283h98l-164 -283h94v120h87v-120z" />
    <glyph glyph-name="onehalf" unicode="&#xbd;" horiz-adv-x="850" 
d="M203 0h-114l464 710h115zM608 80h212v-80h-303v65q0 44 21.5 76.5t52.5 51.5t61.5 35t52 37t21.5 48t-18 42t-49 15q-28 0 -45 -9t-39 -31l-57 59q58 61 141 61q72 0 114 -37t42 -100q0 -43 -30.5 -79t-73.5 -57q-39 -20 -71 -45q-32 -26 -32 -52zM126 719h86v-440h-88
v286h-106v79q15 0 39 5q69 15 69 70z" />
    <glyph glyph-name="threequarters" unicode="&#xbe;" horiz-adv-x="850" 
d="M274 0h-114l464 710h115zM737 156h74v-79h-74v-77h-87v77h-192v79l164 283h98l-164 -283h94v120h87v-120zM277 508q61 -21 61 -103q0 -70 -43 -105.5t-119 -35.5q-46 0 -88.5 18.5t-65.5 50.5l59 53q35 -47 95 -47q75 0 75 66q0 36 -23.5 49t-70.5 13v76q38 0 63 6
q31 10 31 46q0 23 -18.5 37t-56.5 14q-54 0 -96 -49l-47 54q50 68 143 68q72 0 114 -31.5t42 -92.5q0 -31 -15.5 -56.5t-39.5 -30.5z" />
    <glyph glyph-name="questiondown" unicode="&#xbf;" horiz-adv-x="527" 
d="M256 -189q-95 0 -166 49q-71 50 -71 140q0 38 14 69t34.5 50l44.5 41l44.5 42t34.5 53.5t14 75.5h137q0 -126 -65 -186q-13 -13 -39 -33.5t-40.5 -33.5t-26.5 -34t-12 -44q0 -31 26 -49.5t71 -18.5q99 0 160 91l93 -83q-41 -56 -111 -92q-70 -37 -142 -37zM200 530h147
v-138h-147v138z" />
    <glyph glyph-name="Agrave" unicode="&#xc0;" horiz-adv-x="711" 
d="M712 0h-157l-59 156h-281l-59 -156h-157l279 710h155zM356 524l-92 -240h183zM200 939h128l82 -149h-106z" />
    <glyph glyph-name="Aacute" unicode="&#xc1;" horiz-adv-x="711" 
d="M712 0h-157l-59 156h-281l-59 -156h-157l279 710h155zM356 524l-92 -240h183zM406 790h-106l82 149h128z" />
    <glyph glyph-name="Acircumflex" unicode="&#xc2;" horiz-adv-x="711" 
d="M712 0h-157l-59 156h-281l-59 -156h-157l279 710h155zM356 524l-92 -240h183zM355 849l-43 -59h-114l94 149h126l95 -149h-114z" />
    <glyph glyph-name="Atilde" unicode="&#xc3;" horiz-adv-x="711" 
d="M712 0h-157l-59 156h-281l-59 -156h-157l279 710h155zM356 524l-92 -240h183zM237 811l-10 -11l-57 58l16 20q11 14 40 33q32 21 62 21q34 0 74 -28t57 -28q22 0 54 32l10 11l57 -58l-16 -21q-10 -12 -42 -33q-32 -20 -61 -20q-34 0 -74 28t-56 28q-26 0 -54 -32z" />
    <glyph glyph-name="Adieresis" unicode="&#xc4;" horiz-adv-x="711" 
d="M712 0h-157l-59 156h-281l-59 -156h-157l279 710h155zM356 524l-92 -240h183zM206 910h117v-120h-117v120zM388 910h117v-120h-117v120z" />
    <glyph glyph-name="Aring" unicode="&#xc5;" horiz-adv-x="711" 
d="M486 749q0 -50 -34 -87l260 -662h-157l-59 156h-281l-59 -156h-157l260 662q-34 37 -34 87q0 53 38 91q39 39 92 39t92 -39q39 -38 39 -91zM356 524l-92 -240h183zM351 710h4q17 0 28.5 11.5t11.5 27.5t-12 27.5t-28 11.5q-23 1 -33 -19t-1.5 -39.5t30.5 -19.5z" />
    <glyph glyph-name="AE" unicode="&#xc6;" horiz-adv-x="955" 
d="M576 306v-178h353v-128h-497v156h-199l-72 -156h-162l340 710h585v-128h-348v-148h281v-128h-281zM432 582l-139 -298h139v298z" />
    <glyph glyph-name="Ccedilla" unicode="&#xc7;" horiz-adv-x="671" 
d="M375 119q106 0 160 100l118 -69q-46 -75 -118 -117t-160 -42q-4 0 -15 0.5t-13 0.5l-10 -37q15 9 51 9q39 0 59.5 -22.5t20.5 -58.5q0 -41 -32 -67t-81 -26v68q11 2 19 10.5t8 16.5q0 14 -17 14q-20 0 -38.5 -11.5t-26.5 -24.5l-7 -12l-70 35l36 126q-99 37 -160 131
q-60 93 -60 212q0 152 95 258q96 106 241 106q88 0 160 -42t118 -117l-118 -68q-55 99 -160 99q-86 0 -139 -68t-53 -168t53 -168t139 -68z" />
    <glyph glyph-name="Egrave" unicode="&#xc8;" horiz-adv-x="593" 
d="M214 306v-178h353v-128h-497v710h492v-128h-348v-148h281v-128h-281zM213 939h128l82 -149h-106z" />
    <glyph glyph-name="Eacute" unicode="&#xc9;" horiz-adv-x="593" 
d="M214 306v-178h353v-128h-497v710h492v-128h-348v-148h281v-128h-281zM319 790h-106l82 149h128z" />
    <glyph glyph-name="Ecircumflex" unicode="&#xca;" horiz-adv-x="593" 
d="M214 306v-178h353v-128h-497v710h492v-128h-348v-148h281v-128h-281zM318 849l-43 -59h-114l94 149h126l95 -149h-114z" />
    <glyph glyph-name="Edieresis" unicode="&#xcb;" horiz-adv-x="593" 
d="M214 306v-178h353v-128h-497v710h492v-128h-348v-148h281v-128h-281zM169 910h117v-120h-117v120zM351 910h117v-120h-117v120z" />
    <glyph glyph-name="Igrave" unicode="&#xcc;" horiz-adv-x="284" 
d="M214 710v-710h-144v710h144zM37 939h128l82 -149h-106z" />
    <glyph glyph-name="Iacute" unicode="&#xcd;" horiz-adv-x="284" 
d="M214 710v-710h-144v710h144zM143 790h-106l82 149h128z" />
    <glyph glyph-name="Icircumflex" unicode="&#xce;" horiz-adv-x="284" 
d="M214 710v-710h-144v710h144zM141 849l-43 -59h-114l94 149h126l95 -149h-114z" />
    <glyph glyph-name="Idieresis" unicode="&#xcf;" horiz-adv-x="284" 
d="M214 710v-710h-144v710h144zM-8 910h117v-120h-117v120zM174 910h117v-120h-117v120z" />
    <glyph glyph-name="Eth" unicode="&#xd0;" horiz-adv-x="723" 
d="M94 307h-91v96h91v307h245q151 0 247 -102q96 -100 96 -253q0 -152 -96 -254q-96 -101 -247 -101h-245v307zM238 128h96q93 0 148 64q57 65 57 163q0 97 -57 162q-56 65 -148 65h-96v-179h107v-96h-107v-179z" />
    <glyph glyph-name="Ntilde" unicode="&#xd1;" horiz-adv-x="698" 
d="M484 252v458h144v-710h-144l-270 458v-458h-144v710h144zM231 811l-10 -11l-57 58l16 20q11 14 40 33q32 21 62 21q34 0 74 -28t57 -28q22 0 54 32l10 11l57 -58l-16 -21q-10 -12 -42 -33q-32 -20 -61 -20q-34 0 -74 28t-56 28q-26 0 -54 -32z" />
    <glyph glyph-name="Ograve" unicode="&#xd2;" horiz-adv-x="776" 
d="M638 613q99 -105 99 -258t-99 -259q-99 -105 -250 -105t-250 105q-99 106 -99 259t99 258q99 106 250 106t250 -106zM536 187q57 67 57 168t-57 168q-57 68 -148 68t-148 -68q-57 -67 -57 -168t57 -168q57 -68 148 -68t148 68zM231 939h128l82 -149h-106z" />
    <glyph glyph-name="Oacute" unicode="&#xd3;" horiz-adv-x="776" 
d="M638 613q99 -105 99 -258t-99 -259q-99 -105 -250 -105t-250 105q-99 106 -99 259t99 258q99 106 250 106t250 -106zM536 187q57 67 57 168t-57 168q-57 68 -148 68t-148 -68q-57 -67 -57 -168t57 -168q57 -68 148 -68t148 68zM441 790h-106l82 149h128z" />
    <glyph glyph-name="Ocircumflex" unicode="&#xd4;" horiz-adv-x="776" 
d="M638 613q99 -105 99 -258t-99 -259q-99 -105 -250 -105t-250 105q-99 106 -99 259t99 258q99 106 250 106t250 -106zM536 187q57 67 57 168t-57 168q-57 68 -148 68t-148 -68q-57 -67 -57 -168t57 -168q57 -68 148 -68t148 68zM388 849l-43 -59h-114l94 149h126l95 -149
h-114z" />
    <glyph glyph-name="Otilde" unicode="&#xd5;" horiz-adv-x="776" 
d="M638 613q99 -105 99 -258t-99 -259q-99 -105 -250 -105t-250 105q-99 106 -99 259t99 258q99 106 250 106t250 -106zM536 187q57 67 57 168t-57 168q-57 68 -148 68t-148 -68q-57 -67 -57 -168t57 -168q57 -68 148 -68t148 68zM270 811l-10 -11l-57 58l16 20q11 14 40 33
q32 21 62 21q34 0 74 -28t57 -28q22 0 54 32l10 11l57 -58l-16 -21q-11 -12 -42 -33q-32 -20 -61 -20q-34 0 -74 28t-56 28q-26 0 -54 -32z" />
    <glyph glyph-name="Odieresis" unicode="&#xd6;" horiz-adv-x="776" 
d="M638 613q99 -105 99 -258t-99 -259q-99 -105 -250 -105t-250 105q-99 106 -99 259t99 258q99 106 250 106t250 -106zM536 187q57 67 57 168t-57 168q-57 68 -148 68t-148 -68q-57 -67 -57 -168t57 -168q57 -68 148 -68t148 68zM238 910h117v-120h-117v120zM420 910h117
v-120h-117v120z" />
    <glyph glyph-name="multiply" unicode="&#xd7;" horiz-adv-x="600" 
d="M228 285l-163 163l72 69l161 -162l162 162l72 -69l-163 -163l163 -163l-72 -69l-162 161l-161 -161l-72 69z" />
    <glyph glyph-name="Oslash" unicode="&#xd8;" horiz-adv-x="776" 
d="M739 355q0 -153 -99 -259q-99 -105 -250 -105q-90 0 -167 41l-84 -112l-103 78l87 117q-82 100 -82 240q0 153 99 258q99 106 250 106q87 0 157 -37l79 106l105 -77l-81 -109q89 -104 89 -247zM595 355q0 73 -32 132l-261 -348q42 -20 88 -20q91 0 148 68q57 67 57 168z
M390 591q-91 0 -148 -68q-57 -67 -57 -168q0 -68 27 -122l255 342q-36 16 -77 16z" />
    <glyph glyph-name="Ugrave" unicode="&#xd9;" horiz-adv-x="701" 
d="M502 710h144v-366q0 -142 -34 -219q-30 -67 -93.5 -100.5t-173.5 -33.5q-170 0 -234 95q-56 87 -56 258v366h144v-366q0 -95 12 -140q13 -44 43 -63t91 -22q81 0 120 39q18 18 25 50q12 48 12 136v366zM245 939h128l82 -149h-106z" />
    <glyph glyph-name="Uacute" unicode="&#xda;" horiz-adv-x="701" 
d="M502 710h144v-366q0 -142 -34 -219q-30 -67 -93.5 -100.5t-173.5 -33.5q-170 0 -234 95q-56 87 -56 258v366h144v-366q0 -95 12 -140q13 -44 43 -63t91 -22q81 0 120 39q18 18 25 50q12 48 12 136v366zM351 790h-106l82 149h128z" />
    <glyph glyph-name="Ucircumflex" unicode="&#xdb;" horiz-adv-x="701" 
d="M502 710h144v-366q0 -142 -34 -219q-30 -67 -93.5 -100.5t-173.5 -33.5q-170 0 -234 95q-56 87 -56 258v366h144v-366q0 -95 12 -140q13 -44 43 -63t91 -22q81 0 120 39q18 18 25 50q12 48 12 136v366zM350 849l-43 -59h-114l94 149h126l95 -149h-114z" />
    <glyph glyph-name="Udieresis" unicode="&#xdc;" horiz-adv-x="701" 
d="M502 710h144v-366q0 -142 -34 -219q-30 -67 -93.5 -100.5t-173.5 -33.5q-170 0 -234 95q-56 87 -56 258v366h144v-366q0 -95 12 -140q13 -44 43 -63t91 -22q81 0 120 39q18 18 25 50q12 48 12 136v366zM201 910h117v-120h-117v120zM383 910h117v-120h-117v120z" />
    <glyph glyph-name="Yacute" unicode="&#xdd;" horiz-adv-x="616" 
d="M159 710l149 -300l149 300h164l-241 -442v-268h-144v268l-241 442h164zM309 790h-106l82 149h128z" />
    <glyph glyph-name="Thorn" unicode="&#xde;" horiz-adv-x="628" 
d="M353 125h-139v-125h-144v710h144v-125h139q114 0 184 -43q82 -50 82 -187t-82 -187q-70 -43 -184 -43zM214 457v-204h143q60 0 89 23t29 79t-29 79t-89 23h-143z" />
    <glyph glyph-name="germandbls" unicode="&#xdf;" horiz-adv-x="581" 
d="M336 -9h-81v128h54q88 0 88 83t-88 83h-39v128q48 0 69 21t21 67q0 90 -75 90q-76 0 -76 -90v-501h-144v494q0 103 59 164t161 61q105 0 162 -61q58 -61 58 -154q0 -44 -18.5 -81.5t-55.5 -56.5q60 -21 85.5 -62.5t25.5 -109.5q0 -92 -59 -148q-58 -55 -147 -55z" />
    <glyph glyph-name="agrave" unicode="&#xe0;" horiz-adv-x="562" 
d="M129 758h128l82 -149h-106zM506 5l4 -5h-120q-24 9 -26 48q-16 -25 -50 -39q-41 -18 -81 -18q-205 0 -205 159q0 92 60 137q24 17 63 28q55 14 126 14q86 0 86 37q0 25 -21 41.5t-66 16.5q-68 0 -124 -50l-88 71q33 44 90.5 68.5t121.5 24.5q102 0 160 -49.5t58 -127.5
v-316q0 -23 12 -40zM363 184v62q-40 -21 -103 -22q-94 -3 -94 -67q0 -30 21.5 -48t59.5 -18q50 0 83 24.5t33 68.5z" />
    <glyph glyph-name="aacute" unicode="&#xe1;" horiz-adv-x="562" 
d="M329 609h-106l82 149h128zM506 5l4 -5h-120q-24 9 -26 48q-16 -25 -50 -39q-41 -18 -81 -18q-205 0 -205 159q0 92 60 137q24 17 63 28q55 14 126 14q86 0 86 37q0 25 -21 41.5t-66 16.5q-68 0 -124 -50l-88 71q33 44 90.5 68.5t121.5 24.5q102 0 160 -49.5t58 -127.5
v-316q0 -23 12 -40zM363 184v62q-40 -21 -103 -22q-94 -3 -94 -67q0 -30 21.5 -48t59.5 -18q50 0 83 24.5t33 68.5z" />
    <glyph glyph-name="acircumflex" unicode="&#xe2;" horiz-adv-x="562" 
d="M276 668l-43 -59h-114l94 149h126l95 -149h-114zM506 5l4 -5h-120q-24 9 -26 48q-16 -25 -50 -39q-41 -18 -81 -18q-205 0 -205 159q0 92 60 137q24 17 63 28q55 14 126 14q86 0 86 37q0 25 -21 41.5t-66 16.5q-68 0 -124 -50l-88 71q33 44 90.5 68.5t121.5 24.5
q102 0 160 -49.5t58 -127.5v-316q0 -23 12 -40zM363 184v62q-40 -21 -103 -22q-94 -3 -94 -67q0 -30 21.5 -48t59.5 -18q50 0 83 24.5t33 68.5z" />
    <glyph glyph-name="atilde" unicode="&#xe3;" horiz-adv-x="562" 
d="M151 630l-10 -11l-57 58l16 20q11 14 40 33q31 21 62 21q34 0 74 -28t57 -28q26 0 54 32l10 11l57 -58l-16 -21q-10 -12 -42 -33q-32 -20 -61 -20q-34 0 -74 28t-56 28q-22 0 -54 -32zM506 5l4 -5h-120q-24 9 -26 48q-16 -25 -50 -39q-41 -18 -81 -18q-205 0 -205 159
q0 92 60 137q24 17 63 28q55 14 126 14q86 0 86 37q0 25 -21 41.5t-66 16.5q-68 0 -124 -50l-88 71q33 44 90.5 68.5t121.5 24.5q102 0 160 -49.5t58 -127.5v-316q0 -23 12 -40zM363 184v62q-40 -21 -103 -22q-94 -3 -94 -67q0 -30 21.5 -48t59.5 -18q50 0 83 24.5t33 68.5z
" />
    <glyph glyph-name="adieresis" unicode="&#xe4;" horiz-adv-x="562" 
d="M130 729h117v-120h-117v120zM312 729h117v-120h-117v120zM506 5l4 -5h-120q-24 9 -26 48q-16 -25 -50 -39q-41 -18 -81 -18q-205 0 -205 159q0 92 60 137q24 17 63 28q55 14 126 14q86 0 86 37q0 25 -21 41.5t-66 16.5q-68 0 -124 -50l-88 71q33 44 90.5 68.5t121.5 24.5
q102 0 160 -49.5t58 -127.5v-316q0 -23 12 -40zM363 184v62q-40 -21 -103 -22q-94 -3 -94 -67q0 -30 21.5 -48t59.5 -18q50 0 83 24.5t33 68.5z" />
    <glyph glyph-name="aring" unicode="&#xe5;" horiz-adv-x="562" 
d="M276 675q17 0 28.5 11.5t11.5 27.5t-12 27.5t-28 11.5q-24 1 -33.5 -19t0 -40t33.5 -19zM184 805q39 39 92 39t92 -39q39 -37 39 -91q0 -53 -39 -92q-40 -38 -92 -38t-92 38q-38 40 -38 92q0 53 38 91zM506 5l4 -5h-120q-24 9 -26 48q-16 -25 -50 -39q-41 -18 -81 -18
q-205 0 -205 159q0 92 60 137q24 17 63 28q55 14 126 14q86 0 86 37q0 25 -21 41.5t-66 16.5q-68 0 -124 -50l-88 71q33 44 90.5 68.5t121.5 24.5q102 0 160 -49.5t58 -127.5v-316q0 -23 12 -40zM363 184v62q-40 -21 -103 -22q-94 -3 -94 -67q0 -30 21.5 -48t59.5 -18
q50 0 83 24.5t33 68.5z" />
    <glyph glyph-name="ae" unicode="&#xe6;" horiz-adv-x="927" 
d="M631 107q89 0 125 61l106 -55q-37 -57 -97 -89.5t-134 -32.5q-126 0 -200 80q-32 -38 -84.5 -59t-113.5 -21q-205 0 -205 159q0 92 60 137q24 17 63 28q55 14 126 14q86 0 86 37q0 25 -21 41.5t-66 16.5q-68 0 -124 -50l-88 71q33 44 90.5 68.5t121.5 24.5q113 0 173 -62
q70 62 182 62q125 0 196 -81q71 -82 71 -193v-53h-399q21 -104 132 -104zM363 184v62q-40 -21 -103 -22q-44 -1 -69 -19t-25 -48t21.5 -48t59.5 -18q41 0 79 26q37 27 37 67zM631 422q-96 0 -128 -95h256q-32 95 -128 95z" />
    <glyph glyph-name="ccedilla" unicode="&#xe7;" horiz-adv-x="547" 
d="M308 107q75 0 114 64l118 -60q-44 -63 -99 -91.5t-133 -28.5q-3 0 -11 0.5t-10 0.5l-10 -37q15 9 51 9q39 0 59.5 -22.5t20.5 -58.5q0 -41 -32 -67t-81 -26v68q11 2 19 10.5t8 16.5q0 14 -17 14q-20 0 -38.5 -11.5t-26.5 -24.5l-7 -12l-70 35l36 125q-77 31 -122.5 99.5
t-45.5 154.5q0 113 73 192q74 81 204 81q82 0 137 -29.5t95 -94.5l-121 -57q-38 65 -111 65q-64 0 -101 -46q-37 -44 -37 -111q0 -69 37 -113.5t101 -44.5z" />
    <glyph glyph-name="egrave" unicode="&#xe8;" horiz-adv-x="594" 
d="M298 107q89 0 125 61l106 -55q-37 -57 -97 -89.5t-134 -32.5q-126 0 -197 77q-70 77 -70 196q0 115 67 194.5t200 79.5q126 0 196 -81q71 -82 71 -193v-53h-399q21 -104 132 -104zM298 422q-96 0 -128 -95h256q-32 95 -128 95zM141 758h128l82 -149h-106z" />
    <glyph glyph-name="eacute" unicode="&#xe9;" horiz-adv-x="594" 
d="M298 107q89 0 125 61l106 -55q-37 -57 -97 -89.5t-134 -32.5q-126 0 -197 77q-70 77 -70 196q0 115 67 194.5t200 79.5q126 0 196 -81q71 -82 71 -193v-53h-399q21 -104 132 -104zM298 422q-96 0 -128 -95h256q-32 95 -128 95zM351 609h-106l82 149h128z" />
    <glyph glyph-name="ecircumflex" unicode="&#xea;" horiz-adv-x="594" 
d="M298 107q89 0 125 61l106 -55q-37 -57 -97 -89.5t-134 -32.5q-126 0 -197 77q-70 77 -70 196q0 115 67 194.5t200 79.5q126 0 196 -81q71 -82 71 -193v-53h-399q21 -104 132 -104zM298 422q-96 0 -128 -95h256q-32 95 -128 95zM298 668l-43 -59h-114l94 149h126l95 -149
h-114z" />
    <glyph glyph-name="edieresis" unicode="&#xeb;" horiz-adv-x="594" 
d="M298 107q89 0 125 61l106 -55q-37 -57 -97 -89.5t-134 -32.5q-126 0 -197 77q-70 77 -70 196q0 115 67 194.5t200 79.5q126 0 196 -81q71 -82 71 -193v-53h-399q21 -104 132 -104zM298 422q-96 0 -128 -95h256q-32 95 -128 95zM148 729h117v-120h-117v120zM330 729h117
v-120h-117v120z" />
    <glyph glyph-name="igrave" unicode="&#xec;" horiz-adv-x="275" 
d="M207 529v-529h-139v529h139zM33 758h128l82 -149h-106z" />
    <glyph glyph-name="iacute" unicode="&#xed;" horiz-adv-x="275" 
d="M207 529v-529h-139v529h139zM139 609h-106l82 149h128z" />
    <glyph glyph-name="icircumflex" unicode="&#xee;" horiz-adv-x="275" 
d="M135 668l-43 -59h-114l94 149h126l95 -149h-114zM207 529v-529h-139v529h139z" />
    <glyph glyph-name="idieresis" unicode="&#xef;" horiz-adv-x="275" 
d="M207 529v-529h-139v529h139zM-11 729h117v-120h-117v120zM171 729h117v-120h-117v120z" />
    <glyph glyph-name="eth" unicode="&#xf0;" horiz-adv-x="564" 
d="M320 588h-175v117h123l87 57q5 -4 39 -57h80v-117h-21q79 -191 79 -316q0 -136 -63 -208.5t-185 -72.5q-117 0 -184 76q-68 77 -68 191q0 131 68 213q67 82 172 82q49 0 71 -19l-10 24q-5 14 -13 30zM192 388q-28 -46 -28 -116t28 -117q29 -47 90 -47t90 47q28 47 28 117
t-28 116q-28 48 -90 48t-90 -48z" />
    <glyph glyph-name="ntilde" unicode="&#xf1;" horiz-adv-x="625" 
d="M564 326v-326h-139v326q0 99 -89 99q-63 0 -97.5 -42t-34.5 -122v-261h-139v529h139l21 -46q55 55 129 55q91 0 146 -39q64 -45 64 -173zM196 630l-10 -11l-57 58l16 20q11 14 40 33q31 21 62 21q34 0 74 -28t57 -28q26 0 54 32l10 11l57 -58l-16 -21q-11 -12 -42 -33
q-32 -20 -61 -20q-34 0 -74 28t-56 28q-22 0 -54 -32z" />
    <glyph glyph-name="ograve" unicode="&#xf2;" horiz-adv-x="618" 
d="M587 264q0 -114 -79 -193q-78 -80 -199 -80q-120 0 -200 80q-78 79 -78 193t78 194q80 80 200 80q121 0 199 -80q79 -79 79 -194zM170 264q0 -69 37.5 -113t101.5 -44t101.5 44t37.5 113q0 68 -37.5 113t-101.5 45t-101.5 -45t-37.5 -113zM150 758h128l82 -149h-106z" />
    <glyph glyph-name="oacute" unicode="&#xf3;" horiz-adv-x="618" 
d="M587 264q0 -114 -79 -193q-78 -80 -199 -80q-120 0 -200 80q-78 79 -78 193t78 194q80 80 200 80q121 0 199 -80q79 -79 79 -194zM170 264q0 -69 37.5 -113t101.5 -44t101.5 44t37.5 113q0 68 -37.5 113t-101.5 45t-101.5 -45t-37.5 -113zM360 609h-106l82 149h128z" />
    <glyph glyph-name="ocircumflex" unicode="&#xf4;" horiz-adv-x="618" 
d="M587 264q0 -114 -79 -193q-78 -80 -199 -80q-120 0 -200 80q-78 79 -78 193t78 194q80 80 200 80q121 0 199 -80q79 -79 79 -194zM170 264q0 -69 37.5 -113t101.5 -44t101.5 44t37.5 113q0 68 -37.5 113t-101.5 45t-101.5 -45t-37.5 -113zM309 668l-43 -59h-114l94 149
h126l95 -149h-114z" />
    <glyph glyph-name="otilde" unicode="&#xf5;" horiz-adv-x="618" 
d="M587 264q0 -114 -79 -193q-78 -80 -199 -80q-120 0 -200 80q-78 79 -78 193t78 194q80 80 200 80q121 0 199 -80q79 -79 79 -194zM170 264q0 -69 37.5 -113t101.5 -44t101.5 44t37.5 113q0 68 -37.5 113t-101.5 45t-101.5 -45t-37.5 -113zM191 630l-10 -11l-57 58l16 20
q11 14 40 33q32 21 62 21q34 0 74 -28t57 -28q26 0 54 32l10 11l57 -58l-16 -21q-10 -12 -42 -33q-32 -20 -61 -20q-34 0 -74 28t-56 28q-22 0 -54 -32z" />
    <glyph glyph-name="odieresis" unicode="&#xf6;" horiz-adv-x="618" 
d="M587 264q0 -114 -79 -193q-78 -80 -199 -80q-120 0 -200 80q-78 79 -78 193t78 194q80 80 200 80q121 0 199 -80q79 -79 79 -194zM170 264q0 -69 37.5 -113t101.5 -44t101.5 44t37.5 113q0 68 -37.5 113t-101.5 45t-101.5 -45t-37.5 -113zM159 729h117v-120h-117v120z
M341 729h117v-120h-117v120z" />
    <glyph glyph-name="divide" unicode="&#xf7;" horiz-adv-x="600" 
d="M370 141v-141h-150v141h150zM370 535v-141h-150v141h150zM46 338h499v-138h-499v138z" />
    <glyph glyph-name="oslash" unicode="&#xf8;" horiz-adv-x="618" 
d="M240 -1l-52 -96l-114 61l50 93q-93 79 -93 207q0 114 78 194q80 80 200 80q32 0 69 -8l48 90l119 -61l-49 -90q91 -79 91 -205q0 -114 -79 -193q-78 -80 -199 -80q-32 0 -69 8zM170 264q0 -49 19 -86l130 243q-1 0 -5 0.5t-5 0.5q-64 0 -101.5 -45t-37.5 -113zM430 347
l-131 -240h10q64 0 101.5 44t37.5 113q0 47 -18 83z" />
    <glyph glyph-name="ugrave" unicode="&#xf9;" horiz-adv-x="623" 
d="M59 203v326h139v-326q0 -99 89 -99q63 0 97.5 42t34.5 122v261h139v-529h-139l-21 46q-55 -55 -129 -55q-91 0 -146 39q-64 45 -64 173zM203 758h128l82 -149h-106z" />
    <glyph glyph-name="uacute" unicode="&#xfa;" horiz-adv-x="623" 
d="M59 203v326h139v-326q0 -99 89 -99q63 0 97.5 42t34.5 122v261h139v-529h-139l-21 46q-55 -55 -129 -55q-91 0 -146 39q-64 45 -64 173zM309 609h-106l82 149h128z" />
    <glyph glyph-name="ucircumflex" unicode="&#xfb;" horiz-adv-x="623" 
d="M59 203v326h139v-326q0 -99 89 -99q63 0 97.5 42t34.5 122v261h139v-529h-139l-21 46q-55 -55 -129 -55q-91 0 -146 39q-64 45 -64 173zM308 668l-43 -59h-114l94 149h126l95 -149h-114z" />
    <glyph glyph-name="udieresis" unicode="&#xfc;" horiz-adv-x="623" 
d="M59 203v326h139v-326q0 -99 89 -99q63 0 97.5 42t34.5 122v261h139v-529h-139l-21 46q-55 -55 -129 -55q-91 0 -146 39q-64 45 -64 173zM159 729h117v-120h-117v120zM341 729h117v-120h-117v120z" />
    <glyph glyph-name="yacute" unicode="&#xfd;" horiz-adv-x="578" 
d="M142 529l143 -393l150 393h145l-223 -571q-55 -147 -162 -147h-109v116h71q19 0 33 15t14 38q0 14 -6 32l-200 517h144zM290 609h-106l82 149h128z" />
    <glyph glyph-name="thorn" unicode="&#xfe;" horiz-adv-x="653" 
d="M357 538q120 0 192 -74q73 -73 73 -200q0 -123 -69 -198t-196 -75q-90 0 -148 66v-237h-139v890h139v-237q57 65 148 65zM347 106q64 0 100 44.5t36 113.5q0 70 -35 114t-101 44q-68 0 -108 -46q-41 -47 -41 -112q0 -66 39 -112q40 -46 110 -46z" />
    <glyph glyph-name="ydieresis" unicode="&#xff;" horiz-adv-x="578" 
d="M142 529l143 -393l150 393h145l-223 -571q-55 -147 -162 -147h-109v116h71q19 0 33 15t14 38q0 14 -6 32l-200 517h144zM139 729h117v-120h-117v120zM321 729h117v-120h-117v120z" />
    <glyph glyph-name="dotlessi" unicode="&#x131;" horiz-adv-x="275" 
d="M207 529v-529h-139v529h139z" />
    <glyph glyph-name="Lslash" unicode="&#x141;" horiz-adv-x="588" 
d="M236 347v-219h331v-128h-475v207l-25 -24l-72 77l97 93v357h144v-220l60 58l71 -74z" />
    <glyph glyph-name="lslash" unicode="&#x142;" horiz-adv-x="381" 
d="M246 348v-348h-139v213l-34 -33l-72 77l106 101v352h139v-219l56 54l71 -74z" />
    <glyph glyph-name="OE" unicode="&#x152;" horiz-adv-x="1117" 
d="M738 306v-178h353v-128h-497v77q-27 -38 -86 -62q-58 -24 -120 -24q-151 0 -250 105q-99 106 -99 259t99 258q99 106 250 106q63 0 120 -25q59 -24 86 -62v78h492v-128h-348v-148h281v-128h-281zM536 192q57 65 57 163q0 99 -57 163q-55 64 -148 64q-92 0 -149 -64
q-56 -65 -56 -163t56 -163q57 -64 149 -64q93 0 148 64z" />
    <glyph glyph-name="oe" unicode="&#x153;" horiz-adv-x="1014" 
d="M309 538q125 0 204 -85q72 85 205 85q126 0 196 -81q71 -82 71 -193v-53h-399q21 -104 132 -104q89 0 125 61l106 -55q-37 -57 -97 -89.5t-134 -32.5q-133 0 -204 86q-80 -86 -205 -86q-120 0 -200 80q-78 79 -78 193t78 194q80 80 200 80zM170 264q0 -69 37.5 -113
t101.5 -44t101.5 44t37.5 113q0 68 -37.5 113t-101.5 45t-101.5 -45t-37.5 -113zM718 422q-96 0 -128 -95h256q-32 95 -128 95z" />
    <glyph glyph-name="Scaron" unicode="&#x160;" horiz-adv-x="643" 
d="M7 135l116 68q20 -35 77.5 -59.5t136.5 -24.5q89 0 114 35q19 25 19 57q0 34 -24 52t-62 24t-84 9.5t-92.5 12.5t-84.5 28.5t-62 62.5t-24 109q0 99 74 154.5t212 55.5q118 0 184 -41q60 -33 77 -62l8 -12l-121 -69q-11 20 -53 38t-95 18q-142 0 -142 -82q0 -17 5.5 -30
t19 -22t26 -14.5t36.5 -9.5t38.5 -5.5l44.5 -4.5q107 -7 177 -41q40 -19 63 -63.5t23 -107.5q0 -27 -6 -53.5t-24.5 -57.5t-47.5 -54.5t-80 -39t-117 -15.5q-247 0 -332 144zM260 790l-94 149h114l43 -59l44 59h114l-95 -149h-126z" />
    <glyph glyph-name="scaron" unicode="&#x161;" horiz-adv-x="518" 
d="M19 96l-6 12l113 45q4 -6 11 -13q13 -10 50 -21.5t81 -11.5q49 0 65.5 10t16.5 35q0 23 -33 36t-79.5 21.5t-93 23t-79.5 51t-33 94.5q0 22 9.5 46.5t31.5 51.5t68 44.5t110 17.5q56 0 107 -19q54 -20 76 -38l24 -19l-86 -78q-4 4 -13 10q-10 9 -42.5 18.5t-65.5 9.5
q-80 0 -80 -44q0 -31 33 -46.5t79.5 -23t93 -19t79.5 -45.5t33 -92q0 -76 -51.5 -118.5t-161.5 -42.5q-123 0 -187 41q-57 38 -70 64zM188 609l-94 149h114l43 -59l44 59h114l-95 -149h-126z" />
    <glyph glyph-name="Ydieresis" unicode="&#x178;" horiz-adv-x="616" 
d="M159 710l149 -300l149 300h164l-241 -442v-268h-144v268l-241 442h164zM158 910h117v-120h-117v120zM340 910h117v-120h-117v120z" />
    <glyph glyph-name="Zcaron" unicode="&#x17d;" 
d="M549 582l-337 -454h347v-128h-526v128l337 454h-323v128h502v-128zM232 790l-94 149h114l43 -59l44 59h114l-95 -149h-126z" />
    <glyph glyph-name="zcaron" unicode="&#x17e;" horiz-adv-x="490" 
d="M448 413l-243 -297h255v-116h-428v116l243 297h-228v116h401v-116zM182 609l-94 149h114l43 -59l44 59h114l-95 -149h-126z" />
    <glyph glyph-name="florin" unicode="&#x192;" horiz-adv-x="600" 
d="M471 719q24 0 64 -9v-128q-33 9 -54 9q-47 0 -59 -52l-5 -21h113v-128h-142l-99 -433q-15 -66 -65.5 -106t-119.5 -40q-30 0 -62 9v128q36 -9 52 -9q42 0 56 57l89 394h-84v128h114l11 49q16 70 66.5 111t124.5 41z" />
    <glyph glyph-name="circumflex" unicode="&#x2c6;" horiz-adv-x="515" 
d="M257 629l-43 -59h-114l94 149h126l95 -149h-114z" />
    <glyph glyph-name="caron" unicode="&#x2c7;" horiz-adv-x="515" 
d="M194 570l-94 149h114l43 -59l44 59h114l-95 -149h-126z" />
    <glyph glyph-name="breve" unicode="&#x2d8;" horiz-adv-x="511" 
d="M293 714h118q0 -66 -46 -106q-44 -40 -110 -40t-110 40q-45 40 -45 106h118q0 -17 10.5 -26t26.5 -9q38 0 38 35z" />
    <glyph glyph-name="dotaccent" unicode="&#x2d9;" horiz-adv-x="345" 
d="M245 710v-131h-145v131h145z" />
    <glyph glyph-name="ring" unicode="&#x2da;" horiz-adv-x="461" 
d="M230 550q26 0 36.5 24.5t-8.5 41.5q-19 19 -43 9t-24 -36q0 -17 11.5 -28t27.5 -11zM138 680q39 39 92 39t92 -39q39 -38 39 -91t-39 -92q-40 -38 -92 -38t-92 38q-38 40 -38 92q0 53 38 91z" />
    <glyph glyph-name="ogonek" unicode="&#x2db;" horiz-adv-x="421" 
d="M184 20l10 6h117q-7 -2 -13 -6q-25 -11 -64 -43q-28 -24 -38 -56q-10 -31 19 -31q25 0 54 24l52 -72q-55 -42 -107 -42q-48 0 -81 26t-33 69q0 69 84 125z" />
    <glyph glyph-name="tilde" unicode="&#x2dc;" horiz-adv-x="570" 
d="M167 575l-10 -11l-57 58l16 20q11 14 40 33q32 21 62 21q34 0 74 -28t57 -28q22 0 54 32l10 11l57 -58l-16 -21q-10 -12 -42 -33q-32 -20 -61 -20q-34 0 -74 28t-56 28q-26 0 -54 -32z" />
    <glyph glyph-name="hungarumlaut" unicode="&#x2dd;" horiz-adv-x="620" 
d="M206 570h-106l82 149h128zM416 570h-106l82 149h128z" />
    <glyph glyph-name="uni2206" unicode="&#x394;" horiz-adv-x="600" 
d="M226 710h148l289 -710h-726zM300 520l-156 -392h312z" />
    <glyph glyph-name="uni2206" unicode="&#x2206;" horiz-adv-x="600" 
d="M226 710h148l289 -710h-726zM300 520l-156 -392h312z" />
    <glyph glyph-name="uni2126" unicode="&#x3a9;" horiz-adv-x="754" 
d="M694 127v-127h-289v127q69 41 103 122q35 84 35 166q0 72 -41 125t-125 53t-125 -53t-41 -125q0 -82 35 -166q34 -81 103 -122v-127h-289v127h145q-119 108 -119 297q0 120 83 203t208 83t208 -83t83 -203q0 -189 -119 -297h145z" />
    <glyph glyph-name="uni2126" unicode="&#x2126;" horiz-adv-x="754" 
d="M694 127v-127h-289v127q69 41 103 122q35 84 35 166q0 72 -41 125t-125 53t-125 -53t-41 -125q0 -82 35 -166q34 -81 103 -122v-127h-289v127h145q-119 108 -119 297q0 120 83 203t208 83t208 -83t83 -203q0 -189 -119 -297h145z" />
    <glyph glyph-name="pi" unicode="&#x3c0;" horiz-adv-x="712" 
d="M144 401h-101v128h612v-128h-102v-237q0 -44 54 -45q18 0 48 6v-130q-20 -4 -48 -4q-196 0 -196 168v242h-125v-401h-142v401z" />
    <glyph glyph-name="endash" unicode="&#x2013;" horiz-adv-x="600" 
d="M50 354h499v-138h-499v138z" />
    <glyph glyph-name="emdash" unicode="&#x2014;" horiz-adv-x="920" 
d="M50 354h819v-138h-819v138z" />
    <glyph glyph-name="quoteleft" unicode="&#x2018;" horiz-adv-x="250" 
d="M195 438h-150v141q0 53 17 79q20 28 76 61l37 -59q-32 -18 -41 -32t-9 -42v-7h70v-141z" />
    <glyph glyph-name="quoteright" unicode="&#x2019;" horiz-adv-x="250" 
d="M55 719h150v-141q0 -54 -18 -79q-18 -27 -75 -61l-37 59q32 18 41 32t9 42v7h-70v141z" />
    <glyph glyph-name="quotesinglbase" unicode="&#x201a;" horiz-adv-x="282" 
d="M66 141h150v-141q0 -54 -18 -79q-18 -27 -75 -61l-37 59q32 18 41 32t9 42v7h-70v141z" />
    <glyph glyph-name="quotedblleft" unicode="&#x201c;" horiz-adv-x="465" 
d="M195 438h-150v141q0 53 17 79q20 28 76 61l37 -59q-32 -18 -41 -32t-9 -42v-7h70v-141zM410 438h-150v141q0 53 17 79q20 28 76 61l37 -59q-32 -18 -41 -32t-9 -42v-7h70v-141z" />
    <glyph glyph-name="quotedblright" unicode="&#x201d;" horiz-adv-x="465" 
d="M270 719h150v-141q0 -54 -18 -79q-18 -27 -75 -61l-37 59q32 18 41 32t9 42v7h-70v141zM55 719h150v-141q0 -54 -18 -79q-18 -27 -75 -61l-37 59q32 18 41 32t9 42v7h-70v141z" />
    <glyph glyph-name="quotedblbase" unicode="&#x201e;" horiz-adv-x="497" 
d="M281 141h150v-141q0 -54 -18 -79q-18 -27 -75 -61l-37 59q32 18 41 32t9 42v7h-70v141zM66 141h150v-141q0 -54 -18 -79q-18 -27 -75 -61l-37 59q32 18 41 32t9 42v7h-70v141z" />
    <glyph glyph-name="dagger" unicode="&#x2020;" horiz-adv-x="634" 
d="M247 414h-201v115h201v181h140v-181h201v-115h-201v-594h-140v594z" />
    <glyph glyph-name="daggerdbl" unicode="&#x2021;" horiz-adv-x="634" 
d="M247 0h-201v115h201v300h-201v115h201v180h140v-180h201v-115h-201v-300h201v-115h-201v-180h-140v180z" />
    <glyph glyph-name="bullet" unicode="&#x2022;" horiz-adv-x="354" 
d="M41 288q0 55 40 95q41 41 96 41q54 0 95 -41t41 -95q0 -56 -40 -96t-96 -40q-57 0 -97 40q-39 40 -39 96z" />
    <glyph glyph-name="ellipsis" unicode="&#x2026;" horiz-adv-x="842" 
d="M216 141v-141h-150v141h150zM496 141v-141h-150v141h150zM776 141v-141h-150v141h150z" />
    <glyph glyph-name="perthousand" unicode="&#x2030;" horiz-adv-x="960" 
d="M310 567q0 -153 -135 -153t-135 153q0 152 135 152t135 -152zM227 567q0 44 -11.5 65.5t-40.5 21.5t-40.5 -21.5t-11.5 -65.5q0 -45 11.5 -66.5t40.5 -21.5t40.5 21.5t11.5 66.5zM615 144q0 -153 -135 -153t-135 153q0 152 135 152t135 -152zM532 144q0 44 -11.5 65.5
t-40.5 21.5t-40.5 -21.5t-11.5 -65.5q0 -45 11.5 -66.5t40.5 -21.5t40.5 21.5t11.5 66.5zM915 144q0 -153 -135 -153t-135 153q0 152 135 152t135 -152zM832 144q0 44 -11.5 65.5t-40.5 21.5t-40.5 -21.5t-11.5 -65.5q0 -45 11.5 -66.5t40.5 -21.5t40.5 21.5t11.5 66.5z
M152 0h-114l464 710h115z" />
    <glyph glyph-name="guilsinglleft" unicode="&#x2039;" horiz-adv-x="384" 
d="M326 126l-93 -78l-183 217v47l182 217l93 -78l-135 -162z" />
    <glyph glyph-name="guilsinglright" unicode="&#x203a;" horiz-adv-x="384" 
d="M334 312v-47l-183 -217l-93 78l136 163l-135 162l93 78z" />
    <glyph glyph-name="fraction" unicode="&#x2044;" horiz-adv-x="585" 
d="M117 0h-114l464 710h115z" />
    <glyph glyph-name="Euro" unicode="&#x20ac;" 
d="M213 337h227l-20 -100h-198q22 -118 113 -118q89 0 129 57l114 -71q-28 -55 -91 -84.5t-152 -29.5q-123 0 -182 65q-58 64 -75 181h-66v100h59v41h-59v100h66q16 104 70 169q60 72 187 72q89 0 152 -29.5t91 -84.5l-114 -71q-40 57 -129 57q-90 0 -113 -113h248l-20 -100
h-237v-41z" />
    <glyph glyph-name="trademark" unicode="&#x2122;" horiz-adv-x="832" 
d="M25 710h296v-67h-107v-293h-82v293h-107v67zM554 448l80 262h128v-360h-82v263l-87 -263h-78l-85 263v-263h-82v360h128z" />
    <glyph glyph-name="partialdiff" unicode="&#x2202;" horiz-adv-x="571" 
d="M38 250q0 123 61 199q61 78 173 78q60 0 106 -34q-24 50 -77 74q-51 25 -107 25v127q75 0 134 -25.5t97 -67t63 -98t35 -115t10 -122.5q0 -132 -60 -216t-184 -84q-113 0 -182 74q-69 73 -69 185zM174 250q2 -59 33 -95t84 -36q70 0 90 52q16 43 16 110v34
q-34 49 -62 70.5t-61 21.5q-36 -1 -60 -30q-40 -45 -40 -127z" />
    <glyph glyph-name="product" unicode="&#x220f;" horiz-adv-x="884" 
d="M308 -180h-145v762h-118v128h801v-128h-118v-762h-145v762h-275v-762z" />
    <glyph glyph-name="summation" unicode="&#x2211;" horiz-adv-x="697" 
d="M670 -52v-128h-635v128l243 318l-243 316v128h635v-128h-460l243 -316l-244 -318h461z" />
    <glyph glyph-name="minus" unicode="&#x2212;" horiz-adv-x="600" 
d="M50 354h499v-138h-499v138z" />
    <glyph glyph-name="radical" unicode="&#x221a;" horiz-adv-x="600" 
d="M356 243l188 646h150l-259 -889h-150l-118 361h-152v144h256z" />
    <glyph glyph-name="infinity" unicode="&#x221e;" horiz-adv-x="660" 
d="M458 409q70 0 106 -36.5t36 -98.5t-36 -98t-106 -36q-66 0 -129 70q-63 -70 -127 -70q-68 0 -105 36t-37 98t37 98.5t105 36.5q37 0 64.5 -16t62.5 -55q35 38 63.5 54.5t65.5 16.5zM199 212q34 0 81 62l-15 21q-11 15 -30.5 28.5t-35.5 13.5q-53 0 -53 -63q0 -62 53 -62z
M462 212q52 0 52 62q0 63 -52 63q-15 0 -35.5 -15t-33.5 -32l-12 -16q45 -62 81 -62z" />
    <glyph glyph-name="integral" unicode="&#x222b;" horiz-adv-x="566" 
d="M461 719q23 0 64 -9v-128q-33 9 -54 9q-47 0 -59 -52l-133 -582q-15 -66 -65.5 -106t-119.5 -40q-31 0 -62 9v128q36 -9 52 -9q43 0 56 57l130 571q16 70 66.5 111t124.5 41z" />
    <glyph glyph-name="approxequal" unicode="&#x2248;" horiz-adv-x="600" 
d="M102 404l-13 -19l-93 75q12 22 32 47q67 86 158 88q71 0 131 -52t97 -52q22 0 46 18t40 41l13 19l92 -77q-12 -21 -33 -47q-19 -24 -39 -41q-54 -46 -117 -46q-76 0 -136 52q-56 52 -94 52q-21 0 -45.5 -18t-38.5 -40zM102 124l-13 -19l-93 75q12 22 32 47q67 86 158 88
q71 0 131 -52t97 -52q22 0 46 18t40 41l13 19l92 -77q-12 -21 -33 -47q-19 -24 -39 -41q-54 -46 -117 -46q-76 0 -136 52q-56 52 -94 52q-21 0 -45.5 -18t-38.5 -40z" />
    <glyph glyph-name="notequal" unicode="&#x2260;" horiz-adv-x="600" 
d="M452 452h87v-140h-144l-39 -97h183v-140h-240l-63 -155h-145l63 155h-86v140h143l39 97h-182v140h239l56 138h145z" />
    <glyph glyph-name="lessequal" unicode="&#x2264;" horiz-adv-x="600" 
d="M503 296l-52 -75l-364 248v58l364 248l52 -75l-297 -202zM87 108h421v-108h-421v108z" />
    <glyph glyph-name="greaterequal" unicode="&#x2265;" horiz-adv-x="600" 
d="M513 527v-58l-364 -248l-52 75l297 202l-297 202l52 75zM513 0h-421v108h421v-108z" />
    <glyph glyph-name="lozenge" unicode="&#x25ca;" 
d="M552 361l-216 -361h-82l-216 361l216 349h82zM384 361l-89 141l-89 -141l89 -149z" />
    <glyph glyph-name="uniFB01" unicode="&#xfb01;" horiz-adv-x="601" 
d="M279 719q35 0 72 -9v-116q-36 9 -67 9q-46 0 -46 -74h93v-115h-94v-414h-138v414h-89v115h89q1 102 45.5 146t134.5 44zM533 529v-529h-139v529h139zM536 710v-131h-145v131h145z" />
    <glyph glyph-name="uniFB02" unicode="&#xfb02;" horiz-adv-x="598" 
d="M279 719q35 0 72 -9v-116q-36 9 -67 9q-46 0 -46 -74h93v-115h-94v-414h-138v414h-89v115h89q1 102 45.5 146t134.5 44zM533 710v-710h-139v710h139z" />
    <glyph glyph-name="NULL" horiz-adv-x="0" 
 />
    <glyph glyph-name="CR" horiz-adv-x="333" 
 />
    <glyph glyph-name="apple" horiz-adv-x="752" 
d="M672 617v-595q0 -9 -6.5 -15.5t-15.5 -6.5q-4 0 -7 1l-267 77l-267 -77q-3 -1 -7 -1q-9 0 -15.5 6.5t-6.5 15.5v595q0 18 16 22l270 78q10 4 20 0l270 -78q16 -4 16 -22zM354 366v303l-230 -67q6 -93 71 -161q66 -67 159 -75zM628 602l-230 67v-303q94 8 158 75
q66 68 72 161zM123 463v-412l231 67v204q-73 6 -134 43.5t-97 97.5zM398 118l231 -67v412q-37 -60 -98 -97.5t-133 -43.5v-204z" />
    </font>
</defs>
</svg>
