<?xml version="1.0" standalone="no"?>
<!DOCTYPE svg PUBLIC "-//W3C//DTD SVG 1.1//EN" "http://www.w3.org/Graphics/SVG/1.1/DTD/svg11.dtd" >
<svg>
<metadata>
Created by FontForge 20090622 at Thu Jul 11 12:38:45 2019
 By deploy user
Copyright (c) 2009 by The Entente (AS &#38; EH). All rights reserved.
</metadata>
<defs>
<font id="Reader-MediumItalic" horiz-adv-x="590" >
  <font-face 
    font-family="Reader"
    font-weight="500"
    font-style="italic"
    font-stretch="normal"
    units-per-em="1000"
    panose-1="2 0 6 3 0 0 0 9 0 4"
    ascent="750"
    descent="-250"
    x-height="529"
    cap-height="710"
    bbox="-120 -237 1157 939"
    underline-thickness="50"
    underline-position="-50"
    unicode-range="U+0020-U+FB02"
  />
<missing-glyph horiz-adv-x="552" 
d="M70 0v710h412v-710h-412zM155 84h242v541h-242v-541z" />
    <glyph glyph-name=".notdef" horiz-adv-x="552" 
d="M70 0v710h412v-710h-412zM155 84h242v541h-242v-541z" />
    <glyph glyph-name=".null" horiz-adv-x="0" 
 />
    <glyph glyph-name="nonmarkingreturn" horiz-adv-x="333" 
 />
    <glyph glyph-name="space" unicode=" " horiz-adv-x="275" 
 />
    <glyph glyph-name="exclam" unicode="!" horiz-adv-x="343" 
d="M203 125l-22 -125h-121l22 125h121zM116 208l37 307l34 195h117l-34 -195l-74 -307h-80z" />
    <glyph glyph-name="quotedbl" unicode="&#x22;" horiz-adv-x="467" 
d="M234 599l-36 -125h-80l9 125l19 111h107zM406 599l-36 -125h-80l9 125l19 111h107z" />
    <glyph glyph-name="numbersign" unicode="#" horiz-adv-x="779" 
d="M310 0l72 188h-142l-71 -188h-113l72 188h-103l18 105h125l53 137h-108l18 105h130l68 175h112l-68 -175h141l68 175h113l-68 -175h112l-18 -105h-134l-53 -137h117l-18 -105h-139l-72 -188h-112zM333 430l-53 -137h141l54 137h-142z" />
    <glyph glyph-name="dollar" unicode="$" 
d="M371 407q91 -12 142.5 -52.5t51.5 -111.5q0 -16 -3 -32q-30 -195 -266 -218l-13 -75h-109l13 77q-175 26 -227 145l97 51q44 -79 149 -90l39 213q-92 9 -146.5 50t-54.5 108q0 16 3 32q17 98 91 151t179 62l14 77h109l-14 -81q135 -18 174 -112l-100 -52q-23 44 -94 57z
M263 416l36 197q-60 -7 -105 -36q-44 -29 -44 -83q0 -64 113 -78zM315 97q57 7 101 42q43 34 43 91q0 62 -107 76z" />
    <glyph glyph-name="percent" unicode="%" horiz-adv-x="861" 
d="M90 0l589 710h97l-590 -710h-96zM450 549q-13 -73 -46 -121q-39 -54 -127 -54q-117 0 -117 120q0 20 5 55q12 68 45 115q38 55 128 55q116 0 116 -121q0 -30 -4 -49zM288 439q46 0 63 35q13 25 23 75q7 41 7 54q0 52 -54 52q-46 0 -64 -34q-15 -29 -22 -72q-7 -32 -7 -57
q0 -53 54 -53zM698 166q-13 -73 -46 -121q-39 -54 -127 -54q-117 0 -117 120q0 20 5 55q12 68 45 115q38 55 128 55q116 0 116 -121q0 -30 -4 -49zM536 56q46 0 63 35q13 25 23 75q7 41 7 54q0 52 -54 52q-46 0 -64 -34q-15 -29 -22 -72q-7 -32 -7 -57q0 -53 54 -53z" />
    <glyph glyph-name="ampersand" unicode="&#x26;" horiz-adv-x="730" 
d="M572 327l62 -83q-39 -53 -85 -96l113 -148h-148l-45 67q-37 -31 -99 -54q-60 -22 -115 -22q-53 0 -100 15q-48 17 -79 58.5t-31 98.5q0 83 45.5 138.5t134.5 97.5q-50 73 -50 125q0 87 62 141q63 54 164 54q63 0 107 -41q43 -40 43 -100q0 -72 -40 -121.5t-123 -93.5
l103 -136q23 20 45 50q3 3 17 24t19 26zM370 615q-36 -1 -60 -22.5t-24 -58.5q0 -46 46 -98q105 54 105 126q0 53 -67 53zM153 187q0 -96 120 -96q83 0 138 54l-127 175q-51 -17 -91 -51t-40 -82z" />
    <glyph glyph-name="quotesingle" unicode="'" horiz-adv-x="295" 
d="M234 599l-36 -125h-80l9 125l19 111h107z" />
    <glyph glyph-name="parenleft" unicode="(" horiz-adv-x="368" 
d="M67 272q32 180 124 321q55 84 159 177l66 -69q-88 -79 -138 -153q-70 -108 -100 -276q-15 -88 -15 -151q0 -162 99 -290l-90 -68q-118 157 -118 370q0 74 13 139z" />
    <glyph glyph-name="parenright" unicode=")" horiz-adv-x="368" 
d="M292 272q-35 -193 -127 -331q-56 -85 -158 -178l-66 69q83 74 138 156q70 106 102 284q15 86 15 148q0 67 -18 128q-29 95 -76 158l83 64q71 -94 96 -177q24 -78 24 -175q0 -71 -13 -146z" />
    <glyph glyph-name="asterisk" unicode="*" horiz-adv-x="572" 
d="M298 415l-111 -127l-75 62l116 123l-138 42l50 102l136 -50l25 152h104l-32 -153l155 51l14 -102l-155 -42l69 -123l-94 -62z" />
    <glyph glyph-name="plus" unicode="+" horiz-adv-x="600" 
d="M245 566h111v-226h214v-94h-214v-233h-111v233h-215v94h215v226z" />
    <glyph glyph-name="comma" unicode="," horiz-adv-x="282" 
d="M152 125l-18 -103q-12 -70 -27 -95q-16 -27 -77 -67l-29 44q56 29 66 89l1 7h-58l22 125h120z" />
    <glyph glyph-name="hyphen" unicode="-" horiz-adv-x="491" 
d="M53 244l17 99h342l-17 -99h-342z" />
    <glyph glyph-name="period" unicode="." horiz-adv-x="282" 
d="M152 125l-22 -125h-120l22 125h120z" />
    <glyph glyph-name="slash" unicode="/" horiz-adv-x="524" 
d="M76 0h-128l516 719h129z" />
    <glyph glyph-name="zero" unicode="0" 
d="M545 359q-23 -129 -63 -212q-24 -50 -57 -83q-73 -73 -195 -73q-197 0 -197 235q0 62 13 134q19 116 61 201q26 51 57 83q73 75 194 75q199 0 199 -237q0 -52 -12 -123zM248 95q73 0 117 56q19 24 32 61q15 40 21 66q8 35 14 71q19 102 19 150q0 59 -26 87.5t-85 28.5
q-56 -3 -91 -31.5t-56 -82.5q-22 -55 -35 -133l-2 -13q-17 -105 -17 -138q0 -60 25.5 -91t83.5 -31z" />
    <glyph glyph-name="one" unicode="1" 
d="M338 710h109l-125 -710h-109l85 484h-155l19 105q26 0 58 7q27 7 49 18q24 13 43.5 38.5t25.5 57.5z" />
    <glyph glyph-name="two" unicode="2" 
d="M125 104h353l-18 -104h-464l18 104q11 62 40 101q37 45 74 70q28 19 48 30q12 6 58 33l64 37q62 36 90 64q26 26 34 68q2 12 2 26q0 38 -22.5 59t-65.5 21q-84 0 -167 -72l-60 78q118 100 246 100q75 0 127 -48q53 -47 53 -128q0 -18 -3 -36q-10 -78 -54 -123
q-47 -47 -148 -106l-43 -24q-38 -22 -46 -27q-10 -6 -39 -26q-34 -23 -51.5 -45t-25.5 -52z" />
    <glyph glyph-name="three" unicode="3" 
d="M410 388q48 -18 75.5 -54t27.5 -80q0 -122 -84 -193q-82 -70 -215 -70q-69 0 -133 32q-62 33 -86 84l87 69q46 -81 150 -81q78 0 123.5 36.5t45.5 111.5q0 92 -157 92l19 104q68 0 115 17q29 11 43 32q15 22 15 57q0 33 -33 53q-32 19 -79 19q-86 0 -167 -78l-62 71
q47 53 112.5 81t134.5 28q78 0 134 -41q57 -40 57 -120q0 -60 -33 -107.5t-90 -62.5z" />
    <glyph glyph-name="four" unicode="4" 
d="M548 239l-19 -104h-122l-23 -135h-111l23 135h-310l19 104l349 471h133l-349 -471h177l37 207h111l-37 -207h122z" />
    <glyph glyph-name="five" unicode="5" 
d="M338 491q80 0 135 -50q54 -49 54 -137q0 -18 -5 -53q-19 -108 -100 -180q-80 -71 -200 -71q-139 0 -214 107l87 69q18 -32 59.5 -52.5t85.5 -20.5q62 1 112 42q49 40 60 106q4 17 4 42q0 95 -113 95q-91 0 -138 -83h-105l102 405h400l-18 -103h-303l-46 -179
q26 29 65.5 46t77.5 17z" />
    <glyph glyph-name="six" unicode="6" 
d="M231 -9q-90 0 -151 58q-60 59 -60 174q0 44 9 98q34 194 123 296t229 102q115 0 179 -67l-64 -73q-55 41 -140 41q-22 0 -44.5 -7t-52.5 -27t-58.5 -66t-48.5 -113q27 42 83 62q55 20 98 20q83 0 144 -56q60 -55 60 -142q0 -127 -88 -214q-88 -86 -218 -86zM301 388
q-66 0 -114.5 -40.5t-60.5 -106.5q-4 -23 -4 -37q0 -53 33 -81t94 -28q76 0 126 53q50 55 50 132q0 51 -32 79.5t-92 28.5z" />
    <glyph glyph-name="seven" unicode="7" 
d="M108 710h481l-18 -104q-249 -236 -338 -606h-111q77 347 325 606h-357z" />
    <glyph glyph-name="eight" unicode="8" 
d="M173 376q-67 43 -67 118q0 96 80 161q79 64 177 64q84 0 137 -46q54 -45 54 -120q0 -59 -33 -106t-88 -71q38 -16 60 -52.5t22 -82.5q0 -110 -86 -181q-85 -69 -194 -69q-83 0 -141 51q-59 51 -59 130q0 68 37 124q37 57 101 80zM345 618q-59 0 -96.5 -34.5t-37.5 -89.5
q0 -71 100 -71q60 0 97.5 33t37.5 87q0 75 -101 75zM253 92q64 0 107 41q43 40 43 100q0 86 -110 86q-66 0 -108.5 -40t-42.5 -100q0 -41 29 -64t82 -23z" />
    <glyph glyph-name="nine" unicode="9" 
d="M347 719q93 0 152 -53q58 -52 58 -174q0 -52 -10 -103q-34 -194 -122 -296t-228 -102q-50 0 -97 19.5t-78 50.5l66 76q33 -29 62 -39.5t72 -10.5q51 0 101 36q65 46 103 180q-62 -80 -179 -80q-84 0 -145 55t-61 141q0 129 85 214q86 86 221 86zM277 322q77 0 128 52
t51 136q0 51 -33.5 78t-93.5 27q-79 0 -127.5 -51t-48.5 -133q0 -109 124 -109z" />
    <glyph glyph-name="colon" unicode=":" horiz-adv-x="314" 
d="M172 125l-22 -125h-120l22 125h120zM244 535l-22 -126h-120l22 126h120z" />
    <glyph glyph-name="semicolon" unicode=";" horiz-adv-x="314" 
d="M171 125l-18 -103q-12 -70 -27 -95q-16 -27 -77 -67l-29 44q56 29 66 89l1 7h-58l22 125h120zM244 535l-22 -126h-120l22 126h120z" />
    <glyph glyph-name="less" unicode="&#x3c;" horiz-adv-x="600" 
d="M96 292v49l338 293l69 -80l-276 -237l276 -237l-69 -80z" />
    <glyph glyph-name="equal" unicode="=" horiz-adv-x="600" 
d="M529 440v-118h-458v118h458zM529 205v-118h-458v118h458z" />
    <glyph glyph-name="greater" unicode="&#x3e;" horiz-adv-x="600" 
d="M504 341v-49l-338 -292l-69 80l276 237l-276 237l69 80z" />
    <glyph glyph-name="question" unicode="?" horiz-adv-x="518" 
d="M314 719q82 0 138 -42t56 -116q0 -15 -3 -31q-9 -57 -41 -94q-30 -34 -107 -82q-48 -29 -69 -56t-27 -67l-5 -32h-106l7 41q11 63 44.5 106.5t105.5 88.5q52 31 72 57q16 19 21 40q2 16 2 17q0 36 -27.5 56t-77.5 20q-44 0 -92 -28.5t-88 -75.5l-67 72q45 59 116.5 92.5
t147.5 33.5zM250 125l-22 -125h-120l22 125h120z" />
    <glyph glyph-name="at" unicode="@" horiz-adv-x="812" 
d="M374 152q75 0 97 31q12 17 16.5 30.5t10.5 45.5l4 22q-24 -25 -90 -25q-95 -2 -95 -65q0 -39 57 -39zM741 295q-20 -115 -65 -165.5t-124 -50.5q-29 1 -47.5 9t-23.5 15.5t-3 10.5q-52 -42 -126 -42q-55 0 -88 27.5t-33 75.5q0 90 67 121q62 30 148 31q61 1 61 44
q0 36 -62 36q-68 0 -110 -46l-45 52q66 69 168 69q63 0 98.5 -29.5t35.5 -83.5q0 -15 -3 -32l-25 -141q-2 -16 -2 -17q0 -17 20 -17q21 0 33 30t26 103q8 48 8 78q0 79 -46 118t-147 39q-124 0 -211 -101t-87 -234q0 -93 50.5 -144.5t151.5 -51.5q59 0 97 7t91 31l52 -77
q-94 -55 -258 -55q-135 0 -210 76q-75 77 -75 204q0 174 113 308q55 65 134.5 102.5t170.5 37.5q130 0 202.5 -63.5t72.5 -182.5q0 -43 -9 -92z" />
    <glyph glyph-name="A" unicode="A" horiz-adv-x="679" 
d="M493 0l-36 177h-297l-99 -177h-121l402 710h117l152 -710h-118zM218 282h217l-59 276z" />
    <glyph glyph-name="B" unicode="B" horiz-adv-x="710" 
d="M390 0h-350l125 710h327q71 0 124 -38q54 -38 54 -117q0 -25 -4 -42q-14 -76 -95 -128q77 -50 77 -140q0 -17 -3 -35q-18 -100 -81.5 -155t-173.5 -55zM551 513q3 17 3 30q0 35 -20.5 49t-59.5 14h-212l-33 -186h213q49 0 81 33q22 22 28 60zM407 104q102 1 121 106
q3 16 3 30q0 76 -80 76h-241l-37 -212h234z" />
    <glyph glyph-name="C" unicode="C" horiz-adv-x="705" 
d="M343 95q125 1 195 114l86 -56q-53 -77 -130 -119.5t-169 -42.5q-129 0 -205 81q-76 82 -76 209q0 42 7 74q27 154 139 258q112 106 263 106q89 0 153.5 -44t89.5 -119l-106 -56q-32 114 -155 114q-102 0 -176 -74q-72 -72 -92 -185q-7 -34 -7 -74q0 -89 45 -137.5
t138 -48.5z" />
    <glyph glyph-name="D" unicode="D" horiz-adv-x="731" 
d="M679 355q-29 -161 -132 -258t-272 -97h-235l125 710h235q128 0 207 -79t79 -205q0 -30 -7 -71zM173 104h120q103 0 177 69q75 72 94 182q7 34 7 74q0 177 -189 177h-120z" />
    <glyph glyph-name="E" unicode="E" horiz-adv-x="644" 
d="M165 710h491l-18 -104h-376l-33 -186h308l-19 -104h-308l-37 -212h380l-18 -104h-495z" />
    <glyph glyph-name="F" unicode="F" horiz-adv-x="631" 
d="M617 606h-355l-33 -186h287l-19 -104h-287l-55 -316h-115l125 710h470z" />
    <glyph glyph-name="G" unicode="G" horiz-adv-x="764" 
d="M410 386h276l-68 -386h-89l-11 51q-85 -60 -184 -60q-132 0 -211 82t-79 210q0 31 7 72q29 158 143 260q116 104 269 104q96 0 160 -43t89 -120l-110 -56q-16 60 -51 87t-107 27q-104 0 -180 -74q-75 -75 -94 -185q-7 -41 -7 -72q0 -89 47 -138t143 -49q81 0 134.5 48
t69.5 137h-166z" />
    <glyph glyph-name="H" unicode="H" horiz-adv-x="739" 
d="M573 0h-114l55 315h-304l-55 -315h-115l125 710h114l-51 -291h305l51 291h114z" />
    <glyph glyph-name="I" unicode="I" horiz-adv-x="319" 
d="M154 0h-114l125 710h114z" />
    <glyph glyph-name="J" unicode="J" horiz-adv-x="551" 
d="M511 710l-90 -508q-18 -105 -74 -158t-180 -53q-79 0 -128 49t-49 125q0 17 3 37h104q-3 -15 -3 -30q0 -77 91 -77q56 0 84 29.5t40 95.5l87 490h115z" />
    <glyph glyph-name="K" unicode="K" horiz-adv-x="703" 
d="M581 710h147l-321 -294l213 -416h-137l-162 336l-129 -119l-38 -217h-114l125 710h114l-60 -342z" />
    <glyph glyph-name="L" unicode="L" 
d="M172 104h356l-18 -104h-470l125 710h114z" />
    <glyph glyph-name="M" unicode="M" horiz-adv-x="972" 
d="M154 0h-114l125 710h195l91 -557l286 557h196l-125 -710h-114l106 601l-325 -601h-103l-112 601z" />
    <glyph glyph-name="N" unicode="N" horiz-adv-x="744" 
d="M579 0h-118l-217 513l-90 -513h-114l125 710h118l216 -514l91 514h114z" />
    <glyph glyph-name="O" unicode="O" horiz-adv-x="799" 
d="M464 719q130 0 210 -84q80 -83 80 -211q0 -33 -6 -69q-27 -153 -145 -259q-117 -105 -268 -105q-128 0 -210 85q-81 86 -81 213q0 31 6 66q27 154 145 258q118 106 269 106zM353 95q103 0 181 75q78 74 98 185q7 39 7 70q0 90 -48.5 140t-145.5 50q-103 0 -181 -75
t-98 -185q-6 -34 -6 -68q0 -90 48.5 -141t144.5 -51z" />
    <glyph glyph-name="P" unicode="P" horiz-adv-x="691" 
d="M165 710h335q85 0 138 -52q54 -51 54 -130q0 -18 -3 -38q-18 -102 -88.5 -161t-184.5 -59h-215l-47 -270h-114zM435 374q58 0 94 31t45 85q3 18 3 34q0 82 -101 82h-215l-41 -232h215z" />
    <glyph glyph-name="Q" unicode="Q" horiz-adv-x="799" 
d="M651 147l3 -5q35 -35 83 -35l-21 -116q-96 0 -154 66l-4 5q-104 -71 -224 -71q-126 0 -209 84q-81 85 -81 213q0 32 6 67q29 154 146 258q118 106 269 106q128 0 208 -83q81 -82 81 -210q0 -32 -7 -71q-21 -118 -96 -208zM166 355q-6 -36 -6 -68q0 -89 49.5 -140
t143.5 -51q81 0 151 49l-17 32q-14 29 -45 41q-21 7 -74 7l21 116h8q61 -1 99 -13q66 -23 97 -83q23 44 34 82q11 39 11 98q0 90 -47.5 140t-144.5 50q-104 0 -182 -75t-98 -185z" />
    <glyph glyph-name="R" unicode="R" horiz-adv-x="719" 
d="M165 710h335q86 0 139 -51t53 -129q0 -93 -56 -164q-55 -69 -150 -89l146 -277h-135l-142 270h-154l-47 -270h-114zM475 606h-214l-41 -232h214q59 0 94.5 30.5t44.5 85.5q3 18 3 34q0 42 -24 62t-77 20z" />
    <glyph glyph-name="S" unicode="S" horiz-adv-x="699" 
d="M625 251q0 -120 -89 -191q-89 -69 -221 -69q-93 0 -174 36q-82 38 -122 113l108 56q31 -53 79 -77t128 -24q69 0 127 34t58 100q2 28 -20.5 46t-52 24t-73.5 10q-37 5 -84 9q-47 6 -78 15q-48 15 -76.5 50.5t-28.5 85.5q0 17 3 35q21 109 105 161q84 54 200 54
q180 0 244 -118l-103 -52q-35 66 -160 66q-65 0 -120 -27q-54 -26 -65 -84q-1 -3 -1 -15q0 -30 24 -45.5t75 -24.5l56 -7q51 -6 61 -8q78 -9 114 -28q86 -42 86 -125z" />
    <glyph glyph-name="T" unicode="T" horiz-adv-x="631" 
d="M656 710l-18 -104h-230l-107 -606h-114l107 606h-229l18 104h573z" />
    <glyph glyph-name="U" unicode="U" horiz-adv-x="757" 
d="M726 710l-65 -368q-15 -86 -37 -142.5t-61 -106.5q-78 -102 -262 -102q-123 0 -179.5 55.5t-56.5 168.5q0 55 13 127l65 368h115l-65 -368q-14 -79 -14 -120q0 -64 32 -95t108 -31q100 0 152.5 61t74.5 185l65 368h115z" />
    <glyph glyph-name="V" unicode="V" horiz-adv-x="632" 
d="M272 156l285 554h123l-377 -710h-114l-127 710h119z" />
    <glyph glyph-name="W" unicode="W" horiz-adv-x="980" 
d="M894 710h124l-329 -710h-120l-54 513l-241 -513h-118l-81 710h121l50 -529l233 529h131l50 -529z" />
    <glyph glyph-name="X" unicode="X" horiz-adv-x="637" 
d="M302 276l-239 -276h-123l317 377l-167 333h136l114 -242l206 242h136l-294 -332l186 -378h-137z" />
    <glyph glyph-name="Y" unicode="Y" horiz-adv-x="598" 
d="M295 369l240 341h124l-323 -448l-46 -262h-115l48 266l-164 444h117z" />
    <glyph glyph-name="Z" unicode="Z" horiz-adv-x="612" 
d="M141 104h374l-18 -104h-521l18 104l453 502h-346l18 104h494l-18 -104z" />
    <glyph glyph-name="bracketleft" unicode="[" horiz-adv-x="360" 
d="M25 -159l165 933h235l-17 -95h-135l-132 -743h135l-16 -95h-235z" />
    <glyph glyph-name="backslash" unicode="\" horiz-adv-x="556" 
d="M466 0h-128l-263 719h129z" />
    <glyph glyph-name="bracketright" unicode="]" horiz-adv-x="360" 
d="M330 774l-165 -933h-235l16 95h135l132 743h-135l17 95h235z" />
    <glyph glyph-name="asciicircum" unicode="^" horiz-adv-x="582" 
d="M73 474l193 236h146l110 -236h-132l-72 121l-112 -121h-133z" />
    <glyph glyph-name="underscore" unicode="_" horiz-adv-x="510" 
d="M425 0v-109h-475v109h475z" />
    <glyph glyph-name="grave" unicode="`" horiz-adv-x="365" 
d="M210 710l55 -149h-87l-78 149h110z" />
    <glyph glyph-name="a" unicode="a" horiz-adv-x="554" 
d="M449 18l-3 -18h-78q-27 0 -27 36q0 7 1 11v6q-47 -40 -89 -53q-30 -9 -67 -9q-69 0 -119 35t-50 100q0 14 2 28q18 108 106 142q69 27 183 31q39 1 64 16t25 45q0 59 -91 59q-86 0 -143 -63l-56 66q82 88 215 88q79 0 125.5 -40t46.5 -112q0 -25 -4 -44l-54 -303
q-1 -4 -1 -10q0 -11 14 -11zM201 78q88 0 124 41q36 39 50 118l5 30q-13 -17 -60 -25q-4 0 -10 -0.5t-14.5 -1t-15.5 -0.5q-18 -1 -29 -1q-117 -6 -129 -85q-1 -4 -1 -17q0 -59 80 -59z" />
    <glyph glyph-name="b" unicode="b" horiz-adv-x="664" 
d="M548 462q48 -62 48 -146q0 -19 -5 -51q-19 -117 -107 -197q-86 -77 -203 -77q-72 0 -123 60l-24 -51h-108l125 710h108l-43 -246q23 30 74 52q48 22 88 22q113 0 170 -76zM298 88q67 0 120 53q52 52 66 124q4 17 4 44q0 60 -32 96t-95 36q-67 0 -122 -53
q-53 -52 -66 -123q-4 -23 -4 -40q0 -62 33 -99.5t96 -37.5z" />
    <glyph glyph-name="c" unicode="c" horiz-adv-x="582" 
d="M397 171l89 -50q-94 -130 -238 -130q-103 0 -164 61q-60 61 -60 158q0 21 5 54q21 119 107 196q86 78 208 78q139 0 193 -126l-99 -53q-9 35 -37.5 58t-73.5 23q-77 0 -124 -48t-62 -128q-5 -33 -5 -53q0 -122 129 -122q78 0 132 82z" />
    <glyph glyph-name="d" unicode="d" horiz-adv-x="650" 
d="M143 461q86 77 200 77q97 0 136 -74l44 246h107l-126 -710h-107l-4 48q-67 -57 -146 -57q-97 0 -158 66q-62 68 -62 162q0 29 4 46q21 115 112 196zM264 88q62 0 120 51q54 49 67 126q4 17 4 45q0 61 -32.5 96t-96.5 35q-70 0 -122 -54q-52 -52 -64 -122q-4 -17 -4 -45
q0 -61 32 -96.5t96 -35.5z" />
    <glyph glyph-name="e" unicode="e" horiz-adv-x="609" 
d="M546 274l-9 -50h-408q-1 -6 -1 -25q0 -61 29.5 -87t103.5 -26q103 0 161 76l67 -54q-40 -55 -104.5 -86t-140.5 -31q-99 0 -158 57t-59 155q0 28 6 61q21 121 105 197q85 77 202 77q98 0 153.5 -58t55.5 -157q0 -23 -3 -49zM149 321h306q1 4 1 18q0 105 -132 105
q-59 0 -105.5 -32.5t-69.5 -90.5z" />
    <glyph glyph-name="f" unicode="f" horiz-adv-x="369" 
d="M383 614q-28 6 -50 6q-33 0 -50.5 -20.5t-26.5 -70.5h100l-17 -95h-100l-76 -434h-107l76 434h-92l17 95h92q18 103 59 146.5t117 43.5q28 0 76 -7z" />
    <glyph glyph-name="g" unicode="g" horiz-adv-x="621" 
d="M590 529l-82 -459q-46 -259 -295 -259q-164 0 -233 79l70 70q45 -53 178 -53q75 0 117.5 39.5t56.5 123.5q-50 -77 -162 -77q-92 0 -146 61q-53 62 -53 154q0 21 5 56q20 111 101 192q82 82 197 82q71 0 121 -51l19 42h106zM265 87q67 0 117 51t63 126q5 35 5 56
q0 121 -123 121q-72 0 -115.5 -48t-58.5 -129q-7 -35 -7 -64q0 -113 119 -113z" />
    <glyph glyph-name="h" unicode="h" horiz-adv-x="642" 
d="M557 338l-59 -338h-109l57 322q5 35 5 49q0 39 -18 54.5t-58 15.5q-164 0 -204 -223l-38 -218h-107l125 710h107l-46 -259q86 87 187 87q163 0 163 -145q0 -22 -5 -55z" />
    <glyph glyph-name="i" unicode="i" horiz-adv-x="286" 
d="M26 0l93 529h109l-93 -529h-109zM264 710l-21 -118h-117l21 118h117z" />
    <glyph glyph-name="j" unicode="j" horiz-adv-x="283" 
d="M141 710h117l-21 -118h-117zM17 -12l96 541h109l-53 -295.5l-35.5 -200t-9.5 -54.5q-16 -97 -54 -132q-38 -36 -104 -36q-36 0 -86 7l15 94q32 -5 47 -5q33 0 50 18t25 63z" />
    <glyph glyph-name="k" unicode="k" horiz-adv-x="584" 
d="M361 332l170 -332h-133l-122 254l-118 -108l-25 -146h-107l125 710h107l-73 -414l249 233h141z" />
    <glyph glyph-name="l" unicode="l" horiz-adv-x="309" 
d="M134 0h-108l125 710h108z" />
    <glyph glyph-name="m" unicode="m" horiz-adv-x="912" 
d="M823 305l-54 -305h-109l56 317q7 36 7 60q0 32 -17 48t-57 16q-51 0 -92 -48q-40 -49 -62 -175l-38 -218h-109l54 305q6 35 6 57q0 79 -71 79q-129 0 -163 -199l-42 -242h-106l93 529h105l8 -48q63 57 128 57q105 0 143 -80q39 41 83.5 60.5t79.5 19.5q164 0 164 -156
q0 -39 -7 -77z" />
    <glyph glyph-name="n" unicode="n" horiz-adv-x="644" 
d="M557 330l-58 -330h-109l57 323q4 17 4 40q0 81 -75 81q-165 0 -205 -226l-38 -218h-107l93 529h107l9 -56q80 65 164 65q80 0 121.5 -39t41.5 -112q0 -24 -5 -57z" />
    <glyph glyph-name="o" unicode="o" horiz-adv-x="621" 
d="M548 264q-19 -113 -106 -194q-85 -79 -200 -79q-96 0 -157 63q-60 64 -60 160q0 30 4 50q19 108 108 191t202 83q99 0 156 -65q58 -64 58 -158q0 -19 -5 -51zM259 85q69 0 120 53q51 51 65 126q6 38 6 57q0 123 -128 123q-70 0 -123 -53q-51 -51 -65 -127q-5 -35 -5 -55
q0 -124 130 -124z" />
    <glyph glyph-name="p" unicode="p" horiz-adv-x="663" 
d="M479 69q-85 -78 -201 -78q-40 0 -79.5 21t-56.5 54l-43 -246h-109l125 709h109l6 -48q27 25 67 41t78 16q99 0 159 -65q61 -64 61 -159q0 -17 -5 -49q-19 -113 -111 -196zM358 441q-64 0 -120 -50q-55 -47 -68 -126q-4 -25 -4 -43q0 -53 23 -85q36 -49 106 -49
q69 0 122 54q52 53 64 123q5 37 5 56q0 120 -128 120z" />
    <glyph glyph-name="q" unicode="q" horiz-adv-x="656" 
d="M246 -9q-92 0 -155 65q-62 67 -62 163q0 27 4 46q20 119 106 196q88 77 204 77q40 0 73.5 -14.5t50.5 -40.5l23 46h107l-125 -709h-107l43 246q-62 -75 -162 -75zM326 441q-67 0 -122 -53q-53 -53 -65 -123q-4 -17 -4 -44q0 -61 32 -97t96 -36q65 0 121 51q51 47 66 126
q5 35 5 54q0 122 -129 122z" />
    <glyph glyph-name="r" unicode="r" horiz-adv-x="426" 
d="M395 538q19 0 40 -4l-17 -94q-12 4 -38 4q-74 0 -133 -57q-57 -54 -80 -181l-36 -206h-105l93 529h105l9 -65q86 74 162 74z" />
    <glyph glyph-name="s" unicode="s" horiz-adv-x="548" 
d="M173 383q-1 -2 -1 -9q0 -36 67 -54q34 -9 45 -11l52 -12q18 -5 45 -15q39 -15 57.5 -38.5t22.5 -64.5q0 -14 -2 -26q-14 -81 -80 -122q-65 -40 -152 -40q-130 0 -186 67q-22 28 -29 55l90 30q34 -61 143 -61q40 0 76 18q37 18 37 56q0 26 -28.5 40t-94.5 27
q-62 14 -92 25q-70 27 -70 106q0 14 3 29q14 78 80 116q66 39 146 39q89 0 138 -35q39 -25 48 -42l-78 -60q-36 43 -124 43q-100 0 -113 -61z" />
    <glyph glyph-name="t" unicode="t" horiz-adv-x="404" 
d="M193 168q-3 -14 -3 -25q0 -53 66 -53q36 0 54 8l8 2l-19 -97q-58 -12 -113 -12q-51 0 -79.5 28.5t-28.5 86.5q0 16 5 53l49 275h-100l17 95h100l32 181h108l-32 -181h135l-17 -95h-135z" />
    <glyph glyph-name="u" unicode="u" horiz-adv-x="646" 
d="M53 199l59 330h106l-57 -323q-4 -20 -4 -45q0 -41 19 -58.5t59 -17.5q73 0 125 48q54 49 76 178l39 218h105l-94 -529h-105l-6 57q-73 -66 -166 -66q-162 0 -162 147q0 28 6 61z" />
    <glyph glyph-name="v" unicode="v" horiz-adv-x="537" 
d="M549 529l-302 -529h-103l-116 529h112l77 -383l216 383h116z" />
    <glyph glyph-name="w" unicode="w" horiz-adv-x="810" 
d="M411 384l-179 -384h-101l-66 529h108l36 -362l164 362h124l36 -362l164 362h109l-250 -529h-100z" />
    <glyph glyph-name="x" unicode="x" horiz-adv-x="524" 
d="M237 178l-153 -178h-126l236 272l-124 257h125l75 -170l136 170h122l-217 -259l135 -270h-126z" />
    <glyph glyph-name="y" unicode="y" horiz-adv-x="539" 
d="M206 130l228 399h123l-322 -547q-23 -39 -37 -59q-18 -25 -37 -46q-26 -27 -48 -37q-58 -29 -148 -29l19 108q55 0 83 13.5t50 46.5l13 21l-123 529h110z" />
    <glyph glyph-name="z" unicode="z" horiz-adv-x="496" 
d="M135 94h269l-16 -94h-404l16 94l319 341h-239l16 94h378l-16 -94z" />
    <glyph glyph-name="braceleft" unicode="{" horiz-adv-x="412" 
d="M316 587l-22 -124q-12 -64 -46 -101.5t-98 -54.5q93 -27 93 -113q0 -25 -4 -42l-22 -124q-4 -17 -4 -38q0 -32 17.5 -44.5t60.5 -12.5h27l-16 -91h-64q-64 0 -95.5 33t-31.5 92q0 25 4 46l25 140q3 17 3 32q0 76 -103 77l16 91q66 1 97.5 28.5t40.5 79.5l25 141
q16 85 59 128.5t125 43.5h64l-16 -91h-27q-52 0 -75 -20t-33 -76z" />
    <glyph glyph-name="bar" unicode="|" horiz-adv-x="304" 
d="M100 -180v899h104v-899h-104z" />
    <glyph glyph-name="braceright" unicode="}" horiz-adv-x="412" 
d="M163 463l22 124q4 17 4 39q0 32 -17.5 44.5t-60.5 12.5h-27l16 91h64q127 0 127 -120q0 -19 -5 -52l-25 -141q-3 -15 -3 -31q0 -77 103 -77l-16 -91q-66 0 -97 -27.5t-41 -81.5l-25 -140q-15 -84 -55 -127q-39 -45 -128 -45h-64l16 91h27q49 0 73.5 21t34.5 75l22 124
q11 64 45 101t98 54q-92 26 -92 115q0 24 4 41z" />
    <glyph glyph-name="asciitilde" unicode="~" horiz-adv-x="748" 
d="M144 213l-84 66q15 27 29 44q19 24 37 39q52 44 117 44q52 0 100 -34q20 -13 47 -33q52 -39 83 -39q22 0 46.5 18t38.5 40l14 19l81 -65q-7 -16 -29 -44q-15 -20 -36 -37q-51 -43 -115 -43q-67 0 -149 67q-2 2 -14 10t-14 10q-4 4 -12 8q-21 13 -41 13q-21 0 -47 -21
q-22 -18 -38 -41z" />
    <glyph glyph-name="exclamdown" unicode="&#xa1;" horiz-adv-x="358" 
d="M140 405l22 125h121l-22 -125h-121zM227 322l-37 -307l-34 -195h-117l34 195l74 307h80z" />
    <glyph glyph-name="cent" unicode="&#xa2;" 
d="M204 -9l16 94q-81 14 -130 74q-49 61 -49 145q0 115 80 212q81 95 195 109l16 94h76l-16 -92q45 -1 95 -36q47 -33 71 -88l-101 -52q-25 58 -83 72l-60 -337q63 14 106 76l87 -50q-85 -119 -211 -130l-16 -91h-76zM163 354q-4 -25 -4 -43q0 -96 80 -120l58 329
q-56 -14 -90 -59t-44 -107z" />
    <glyph glyph-name="sterling" unicode="&#xa3;" 
d="M429 719q97 0 150 -80l-91 -71q-10 18 -32.5 29t-46.5 11q-54 0 -89.5 -43t-47.5 -110l-3 -18h208l-19 -105h-207l-15 -88q-7 -40 -13 -58t-23 -41q-17 -25 -48 -41h168q41 0 71.5 15t64.5 52l65 -69q-50 -55 -98.5 -78.5t-120.5 -23.5h-311l19 111q93 33 111 133l15 88
h-74l19 105h73l3 18q12 63 34 108q73 156 238 156z" />
    <glyph glyph-name="currency" unicode="&#xa4;" horiz-adv-x="645" 
d="M596 65l-74 -74l-70 79q-58 -39 -130 -39q-70 0 -130 39l-69 -79l-74 74l79 69q-39 58 -39 130t39 130l-79 70l74 74l70 -79q56 38 129 38q71 0 130 -38l70 79l74 -74l-79 -70q38 -59 38 -130q0 -70 -38 -129zM452 264q0 54 -38 92t-92 38t-91 -39q-38 -38 -38 -91
t38 -91t91 -38t91 38q39 37 39 91z" />
    <glyph glyph-name="yen" unicode="&#xa5;" 
d="M32 263l19 104h123l-102 343h124l87 -331l203 331h124l-222 -343h123l-19 -104h-171l-10 -57h171l-18 -104h-171l-18 -102h-118l18 102h-171l18 104h171l10 57h-171z" />
    <glyph glyph-name="brokenbar" unicode="&#xa6;" horiz-adv-x="320" 
d="M105 425v294h115v-294h-115zM105 0v294h115v-294h-115z" />
    <glyph glyph-name="section" unicode="&#xa7;" 
d="M422 237q34 -37 34 -85q0 -88 -77 -141q-76 -52 -172 -52q-119 0 -187 92l92 62q35 -50 113 -50q39 0 77 18q37 19 37 57q0 28 -25 42.5t-83 27.5q-53 12 -79 25q-34 16 -56 48t-22 68q0 2 2 20q10 64 71 117q-33 36 -33 84q0 91 73 143t176 52q118 0 184 -91l-91 -60
q-12 20 -45 33.5t-66 13.5q-41 0 -79 -18q-36 -17 -36 -55q0 -41 55 -59q17 -6 50 -12q79 -16 119.5 -47.5t40.5 -86.5q0 -14 -2 -28q-10 -63 -71 -118zM341 288q38 29 38 67q0 19 -18 34.5t-41 22.5l-53 13q-35 8 -39 10q-37 -25 -37 -66q0 -20 17 -35.5t40 -22.5
q7 -2 51 -13q34 -6 42 -10z" />
    <glyph glyph-name="dieresis" unicode="&#xa8;" horiz-adv-x="501" 
d="M226 719l-19 -111h-107l19 111h107zM401 719l-19 -111h-107l19 111h107z" />
    <glyph glyph-name="copyright" unicode="&#xa9;" horiz-adv-x="874" 
d="M179 97q-106 106 -106 258q0 151 106 257q107 107 258 107q150 0 257 -107t107 -257q0 -151 -107 -258q-106 -106 -257 -106q-152 0 -258 106zM243 550q-80 -83 -80 -195t80 -195q81 -82 194 -82q114 0 193 82q81 82 81 195t-81 195q-79 82 -193 82q-113 0 -194 -82z
M525 286l71 -38q-51 -95 -159 -95q-83 0 -142 57q-58 58 -58 145q0 88 54 145q55 58 146 58q103 0 159 -93l-71 -40q-33 57 -88 57q-54 0 -84 -36.5t-30 -90.5q0 -48 29 -88q29 -38 85 -38q59 0 88 57z" />
    <glyph glyph-name="ordfeminine" unicode="&#xaa;" horiz-adv-x="447" 
d="M392 350v-13h-57q-25 0 -25 35q-23 -22 -45 -31.5t-58 -9.5q-62 0 -100.5 29.5t-38.5 85.5q0 86 78 109q41 13 106 14q56 2 56 36q0 21 -20.5 35t-52.5 14q-63 0 -94 -45l-50 44q49 66 144 66q67 0 106 -36.5t39 -102.5v-215q0 -15 12 -15zM207 392q59 0 81.5 27.5
t22.5 85.5v21q-13 -15 -52 -19h-37q-76 -4 -76 -61q0 -21 15.5 -37.5t45.5 -16.5z" />
    <glyph glyph-name="guillemotleft" unicode="&#xab;" horiz-adv-x="597" 
d="M39 269l7 39l222 221l69 -66l-176 -174l114 -174l-92 -67zM247 269l7 39l222 221l68 -66l-175 -174l113 -174l-91 -67z" />
    <glyph glyph-name="logicalnot" unicode="&#xac;" horiz-adv-x="600" 
d="M504 84h-121v143h-353v115h474v-258z" />
    <glyph glyph-name="registered" unicode="&#xae;" horiz-adv-x="874" 
d="M270 553h188q54 0 90 -37q37 -36 37 -88q0 -45 -24.5 -82t-63.5 -48l106 -141h-97l-93 133h-58v-133h-85v396zM441 483h-86v-108h86q58 0 58 53q0 55 -58 55zM179 97q-106 106 -106 258q0 151 106 257q107 107 258 107q150 0 257 -107t107 -257q0 -151 -107 -258
q-106 -106 -257 -106q-152 0 -258 106zM243 550q-80 -83 -80 -195t80 -195q81 -82 194 -82q114 0 193 82q81 82 81 195t-81 195q-79 82 -193 82q-113 0 -194 -82z" />
    <glyph glyph-name="degree" unicode="&#xb0;" horiz-adv-x="434" 
d="M255 719q59 0 101 -42q43 -42 43 -100t-43 -100q-43 -41 -101 -41q-59 0 -103 41q-42 42 -42 100t42 100q43 42 103 42zM220 543q15 -14 35 -14t34 14q15 14 15 34t-15 34q-14 14 -34 14t-35 -14q-14 -14 -14 -34t14 -34z" />
    <glyph glyph-name="plusminus" unicode="&#xb1;" horiz-adv-x="600" 
d="M246 559h111v-162h169v-95h-169v-162h-111v162h-171v95h171v162zM526 94v-94h-451v94h451z" />
    <glyph glyph-name="uni00B2" unicode="&#xb2;" horiz-adv-x="395" 
d="M123 344h208l-13 -76h-303l8 48q12 69 64 113q25 23 53 40q26 17 75 45q22 12 32 20.5t21 24.5q12 18 12 38q0 40 -51 40q-45 0 -89 -41l-43 64q70 58 153 58q48 0 81.5 -29.5t33.5 -78.5q0 -52 -25.5 -87.5t-80.5 -70.5l-36 -21.5t-38 -23.5q-12 -7 -27 -18
q-28 -21 -35 -45z" />
    <glyph glyph-name="uni00B3" unicode="&#xb3;" horiz-adv-x="395" 
d="M311 508q43 -21 43 -73q0 -15 -3 -30q-12 -69 -61 -105t-124 -36q-46 0 -85 18.5t-56 50.5l68 53q26 -47 87 -47q78 0 88 66q1 3 1 14q0 50 -85 50l13 74q105 0 105 61q0 42 -68 42q-50 0 -102 -50l-40 55q62 68 155 68q59 0 97 -27.5t38 -76.5q0 -74 -71 -107z" />
    <glyph glyph-name="acute" unicode="&#xb4;" horiz-adv-x="417" 
d="M100 570l107 149h110l-130 -149h-87z" />
    <glyph glyph-name="mu" unicode="&#xb5;" horiz-adv-x="660" 
d="M80 -180v709h109v-332q0 -59 26 -85.5t66 -26.5q165 0 165 224v220h109v-529h-109l-22 52q-64 -61 -149 -61q-50 0 -86 13v-184h-109z" />
    <glyph glyph-name="mu" unicode="&#x3bc;" horiz-adv-x="660" 
d="M80 -180v709h109v-332q0 -59 26 -85.5t66 -26.5q165 0 165 224v220h109v-529h-109l-22 52q-64 -61 -149 -61q-50 0 -86 13v-184h-109z" />
    <glyph glyph-name="paragraph" unicode="&#xb6;" horiz-adv-x="725" 
d="M193 -122l71 406q-79 0 -129 49q-50 50 -50 124q0 16 4 39q18 96 89 155q73 59 162 59h360l-18 -100h-88l-129 -732h-90l129 732h-91l-129 -732h-91z" />
    <glyph glyph-name="middot" unicode="&#xb7;" horiz-adv-x="297" 
d="M207 385l-22 -125h-120l22 125h120z" />
    <glyph glyph-name="cedilla" unicode="&#xb8;" horiz-adv-x="423" 
d="M144 46l76 -20l-18 -65q16 3 38 3q40 0 61.5 -22.5t21.5 -58.5t-27 -62.5t-71 -30.5v68q24 4 24 27q0 14 -16 14q-21 0 -39.5 -10t-25.5 -22l-8 -11l-60 32z" />
    <glyph glyph-name="uni00B9" unicode="&#xb9;" horiz-adv-x="395" 
d="M230 719h82l-78 -440h-87l52 293h-89l13 76q32 0 65 15q35 19 42 56z" />
    <glyph glyph-name="ordmasculine" unicode="&#xba;" horiz-adv-x="498" 
d="M448 524q0 -79 -53 -137q-53 -56 -133 -56q-77 0 -133 56q-54 57 -54 137q0 77 53 136t134 59q80 0 133 -59t53 -136zM262 397q48 0 78.5 37t30.5 90q0 52 -30 90q-29 38 -79 38t-80.5 -36.5t-30.5 -91.5t30 -91t81 -36z" />
    <glyph glyph-name="guillemotright" unicode="&#xbb;" horiz-adv-x="597" 
d="M548 308l-7 -39l-222 -221l-70 67l176 174l-114 174l93 66zM340 308l-7 -39l-222 -221l-69 67l175 174l-113 174l92 66z" />
    <glyph glyph-name="onequarter" unicode="&#xbc;" horiz-adv-x="900" 
d="M84 0l589 709h101l-589 -709h-101zM233 719h82l-78 -440h-87l52 293h-89l13 76q32 0 65 15q35 19 42 56zM759 149l-14 -79h-60l-12 -70h-89l12 70h-191l14 79l211 290h95l-210 -290h95l22 126h89l-22 -126h60z" />
    <glyph glyph-name="onehalf" unicode="&#xbd;" horiz-adv-x="900" 
d="M55 0l589 709h101l-589 -709h-101zM204 719h82l-78 -440h-87l52 293h-89l13 76q32 0 65 15q35 19 42 56zM580 76h208l-13 -76h-303l8 48q12 69 64 113q25 23 53 40q25 17 75 45q22 12 32 20.5t21 24.5q12 18 12 38q0 40 -51 40q-45 0 -89 -41l-43 64q70 58 153 58
q48 0 81.5 -29.5t33.5 -78.5q0 -52 -25.5 -87.5t-80.5 -70.5l-36 -21.5t-38 -23.5q-12 -7 -27 -18q-28 -21 -35 -45z" />
    <glyph glyph-name="threequarters" unicode="&#xbe;" horiz-adv-x="900" 
d="M137 0l589 709h100l-589 -709h-100zM331 508q43 -21 43 -73q0 -15 -3 -30q-12 -69 -61 -105t-124 -36q-46 0 -85 18.5t-56 50.5l68 53q26 -47 87 -47q78 0 88 66q1 3 1 14q0 50 -85 50l13 74q105 0 105 61q0 42 -68 42q-50 0 -102 -50l-40 55q62 68 155 68q59 0 97 -27.5
t38 -76.5q0 -74 -71 -107zM800 149l-14 -79h-60l-12 -70h-89l12 70h-191l14 79l211 290h95l-210 -290h95l22 126h89l-22 -126h60z" />
    <glyph glyph-name="questiondown" unicode="&#xbf;" horiz-adv-x="528" 
d="M204 -189q-82 0 -138 42t-56 116q0 15 3 31q9 57 41 94q30 34 107 82q48 29 69 56t27 67l5 32h106l-7 -41q-11 -63 -44.5 -106.5t-105.5 -88.5q-50 -30 -73 -57q-15 -18 -20 -40q-2 -16 -2 -17q0 -36 27.5 -56t77.5 -20q44 0 92 28.5t88 75.5l67 -72
q-45 -59 -116.5 -92.5t-147.5 -33.5zM268 405l22 125h120l-22 -125h-120z" />
    <glyph glyph-name="Agrave" unicode="&#xc0;" horiz-adv-x="679" 
d="M493 0l-36 177h-297l-99 -177h-121l402 710h117l152 -710h-118zM218 282h217l-59 276zM389 939l55 -149h-87l-78 149h110z" />
    <glyph glyph-name="Aacute" unicode="&#xc1;" horiz-adv-x="679" 
d="M493 0l-36 177h-297l-99 -177h-121l402 710h117l152 -710h-118zM218 282h217l-59 276zM373 790l107 149h110l-130 -149h-87z" />
    <glyph glyph-name="Acircumflex" unicode="&#xc2;" horiz-adv-x="679" 
d="M493 0l-36 177h-297l-99 -177h-121l402 710h117l152 -710h-118zM218 282h217l-59 276zM358 790h-89l117 149h98l66 -149h-89l-40 70z" />
    <glyph glyph-name="Atilde" unicode="&#xc3;" horiz-adv-x="679" 
d="M493 0l-36 177h-297l-99 -177h-121l402 710h117l152 -710h-118zM218 282h217l-59 276zM294 801l-48 40q1 3 4 8t12.5 18.5t21 23.5t29.5 18t37 8q38 0 85 -38q30 -24 48 -24q23 0 48 34l8 11l47 -39q-1 -3 -4 -8t-12.5 -18t-20.5 -22.5t-29 -17.5t-37 -8q-41 0 -85 36
q-3 2 -9.5 7l-10 7.5t-8.5 5t-10 4t-10 1.5q-23 0 -48 -36z" />
    <glyph glyph-name="Adieresis" unicode="&#xc4;" horiz-adv-x="679" 
d="M493 0l-36 177h-297l-99 -177h-121l402 710h117l152 -710h-118zM218 282h217l-59 276zM398 900l-19 -111h-107l19 111h107zM573 900l-19 -111h-107l19 111h107z" />
    <glyph glyph-name="Aring" unicode="&#xc5;" horiz-adv-x="679" 
d="M428 864q42 0 69.5 -28t27.5 -68q0 -1 -2 -19q-7 -46 -55 -83l143 -666h-118l-36 177h-297l-99 -177h-121l376 663q-26 29 -26 67q0 1 2 19q9 49 46.5 82t89.5 33zM218 282h217l-59 276zM400 710q19 0 33.5 13.5t14.5 32.5q0 14 -9.5 23t-24.5 9q-18 0 -32.5 -14
t-14.5 -32q0 -14 9.5 -23t23.5 -9z" />
    <glyph glyph-name="AE" unicode="&#xc6;" horiz-adv-x="967" 
d="M363 0l31 177h-205l-114 -177h-135l465 710h574l-18 -104h-376l-33 -186h308l-19 -104h-308l-37 -212h380l-18 -104h-495zM257 282h155l58 324z" />
    <glyph glyph-name="Ccedilla" unicode="&#xc7;" horiz-adv-x="704" 
d="M343 95q125 1 195 114l86 -56q-114 -162 -300 -162q-13 0 -35 2l-13 -32q17 3 38 3q34 0 52.5 -17t18.5 -46q0 -45 -35 -78q-34 -33 -81 -33l12 68q11 2 19.5 11t8.5 20q0 10 -13 10q-44 0 -72 -32l-9 -11l-54 32l54 121q-81 29 -126 100.5t-45 168.5q0 43 7 77
q27 154 139 258q112 106 263 106q89 0 152 -43.5t90 -119.5l-106 -56q-29 114 -155 114q-101 0 -175 -74q-72 -72 -92 -185q-7 -34 -7 -74q0 -87 46 -136.5t137 -49.5z" />
    <glyph glyph-name="Egrave" unicode="&#xc8;" horiz-adv-x="644" 
d="M165 710h491l-18 -104h-376l-33 -186h308l-19 -104h-308l-37 -212h380l-18 -104h-495zM434 939l55 -149h-87l-78 149h110z" />
    <glyph glyph-name="Eacute" unicode="&#xc9;" horiz-adv-x="644" 
d="M165 710h491l-18 -104h-376l-33 -186h308l-19 -104h-308l-37 -212h380l-18 -104h-495zM349 790l107 149h110l-130 -149h-87z" />
    <glyph glyph-name="Ecircumflex" unicode="&#xca;" horiz-adv-x="644" 
d="M165 710h491l-18 -104h-376l-33 -186h308l-19 -104h-308l-37 -212h380l-18 -104h-495zM377 790h-89l117 149h98l66 -149h-89l-40 70z" />
    <glyph glyph-name="Edieresis" unicode="&#xcb;" horiz-adv-x="644" 
d="M165 710h491l-18 -104h-376l-33 -186h308l-19 -104h-308l-37 -212h380l-18 -104h-495zM421 900l-19 -111h-107l19 111h107zM596 900l-19 -111h-107l19 111h107z" />
    <glyph glyph-name="Igrave" unicode="&#xcc;" horiz-adv-x="319" 
d="M154 0h-114l125 710h114zM234 939l55 -149h-87l-78 149h110z" />
    <glyph glyph-name="Iacute" unicode="&#xcd;" horiz-adv-x="319" 
d="M154 0h-114l125 710h114zM178 790l107 149h110l-130 -149h-87z" />
    <glyph glyph-name="Icircumflex" unicode="&#xce;" horiz-adv-x="319" 
d="M154 0h-114l125 710h114zM179 790h-89l117 149h98l66 -149h-89l-40 70z" />
    <glyph glyph-name="Idieresis" unicode="&#xcf;" horiz-adv-x="319" 
d="M154 0h-114l125 710h114zM217 900l-19 -111h-107l19 111h107zM392 900l-19 -111h-107l19 111h107z" />
    <glyph glyph-name="Eth" unicode="&#xd0;" horiz-adv-x="742" 
d="M15 315l15 82h91l55 313h235q132 0 208 -79q78 -78 78 -204q0 -31 -7 -72q-30 -168 -134 -261.5t-270 -93.5h-235l55 315h-91zM184 104h120q103 0 176 70q76 71 95 181q7 34 7 74q0 177 -189 177h-120l-37 -209h110l-15 -82h-110z" />
    <glyph glyph-name="Ntilde" unicode="&#xd1;" horiz-adv-x="744" 
d="M579 0h-118l-217 513l-90 -513h-114l125 710h118l216 -514l91 514h114zM317 801l-48 40q1 3 4 8t12.5 18.5t21 23.5t29.5 18t37 8q36 0 85 -38q30 -24 48 -24q23 0 48 34l8 11l47 -39q-1 -3 -4 -8t-12.5 -18t-20.5 -22.5t-29 -17.5t-37 -8q-41 0 -85 36q-3 2 -9.5 7
l-10 7.5t-8.5 5t-10 4t-10 1.5q-23 0 -48 -36z" />
    <glyph glyph-name="Ograve" unicode="&#xd2;" horiz-adv-x="799" 
d="M464 719q130 0 210 -84q80 -83 80 -211q0 -33 -6 -69q-27 -153 -145 -259q-117 -105 -268 -105q-128 0 -210 85q-81 86 -81 213q0 31 6 66q27 154 145 258q118 106 269 106zM353 95q103 0 181 75q78 74 98 185q7 39 7 70q0 90 -48.5 140t-145.5 50q-103 0 -181 -75
t-98 -185q-6 -34 -6 -68q0 -90 48.5 -141t144.5 -51zM483 939l55 -149h-87l-78 149h110z" />
    <glyph glyph-name="Oacute" unicode="&#xd3;" horiz-adv-x="799" 
d="M464 719q130 0 210 -84q80 -83 80 -211q0 -33 -6 -69q-27 -153 -145 -259q-117 -105 -268 -105q-128 0 -210 85q-81 86 -81 213q0 31 6 66q27 154 145 258q118 106 269 106zM353 95q103 0 181 75q78 74 98 185q7 39 7 70q0 90 -48.5 140t-145.5 50q-103 0 -181 -75
t-98 -185q-6 -34 -6 -68q0 -90 48.5 -141t144.5 -51zM431 790l107 149h110l-130 -149h-87z" />
    <glyph glyph-name="Ocircumflex" unicode="&#xd4;" horiz-adv-x="799" 
d="M464 719q130 0 210 -84q80 -83 80 -211q0 -33 -6 -69q-27 -153 -145 -259q-117 -105 -268 -105q-128 0 -210 85q-81 86 -81 213q0 31 6 66q27 154 145 258q118 106 269 106zM353 95q103 0 181 75q78 74 98 185q7 39 7 70q0 90 -48.5 140t-145.5 50q-103 0 -181 -75
t-98 -185q-6 -34 -6 -68q0 -90 48.5 -141t144.5 -51zM435 790h-89l117 149h98l66 -149h-89l-40 70z" />
    <glyph glyph-name="Otilde" unicode="&#xd5;" horiz-adv-x="799" 
d="M464 719q130 0 210 -84q80 -83 80 -211q0 -33 -6 -69q-27 -153 -145 -259q-117 -105 -268 -105q-128 0 -210 85q-81 86 -81 213q0 31 6 66q27 154 145 258q118 106 269 106zM353 95q103 0 181 75q78 74 98 185q7 39 7 70q0 90 -48.5 140t-145.5 50q-103 0 -181 -75
t-98 -185q-6 -34 -6 -68q0 -90 48.5 -141t144.5 -51zM375 801l-48 40q1 3 4 8t12.5 18.5t21 23.5t29.5 18t37 8q36 0 85 -38q30 -24 48 -24q23 0 48 34l8 11l47 -39q-1 -3 -4 -8t-12.5 -18t-20.5 -22.5t-29 -17.5t-37 -8q-42 0 -85 36q-3 2 -9.5 7l-10 7.5t-8.5 5t-10 4
t-10 1.5q-23 0 -48 -36z" />
    <glyph glyph-name="Odieresis" unicode="&#xd6;" horiz-adv-x="799" 
d="M464 719q130 0 210 -84q80 -83 80 -211q0 -33 -6 -69q-27 -153 -145 -259q-117 -105 -268 -105q-128 0 -210 85q-81 86 -81 213q0 31 6 66q27 154 145 258q118 106 269 106zM353 95q103 0 181 75q78 74 98 185q7 39 7 70q0 90 -48.5 140t-145.5 50q-103 0 -181 -75
t-98 -185q-6 -34 -6 -68q0 -90 48.5 -141t144.5 -51zM484 900l-19 -111h-107l19 111h107zM659 900l-19 -111h-107l19 111h107z" />
    <glyph glyph-name="multiply" unicode="&#xd7;" horiz-adv-x="600" 
d="M75 448l63 62l162 -163l163 163l63 -62l-163 -163l163 -163l-63 -62l-163 162l-162 -162l-63 62l163 163z" />
    <glyph glyph-name="Oslash" unicode="&#xd8;" horiz-adv-x="799" 
d="M466 719q90 0 158 -41l85 91l79 -68l-86 -93q55 -76 55 -182q0 -35 -6 -71q-27 -153 -145 -259q-118 -105 -269 -105q-96 0 -166 45l-102 -112l-79 71l106 114q-50 76 -50 175q0 32 7 71q27 153 144 258q118 106 269 106zM356 95q102 0 182 75q79 76 98 185q4 21 4 52
q0 60 -25 109l-364 -394q47 -27 105 -27zM168 355q-5 -37 -5 -58q0 -51 20 -94l361 388q-45 24 -96 24q-96 0 -179 -77q-81 -75 -101 -183z" />
    <glyph glyph-name="Ugrave" unicode="&#xd9;" horiz-adv-x="757" 
d="M726 710l-65 -368q-15 -86 -37 -142.5t-61 -106.5q-78 -102 -262 -102q-123 0 -179.5 55.5t-56.5 168.5q0 55 13 127l65 368h115l-65 -368q-14 -79 -14 -120q0 -64 32 -95t108 -31q100 0 152.5 61t74.5 185l65 368h115zM456 939l55 -149h-87l-78 149h110z" />
    <glyph glyph-name="Uacute" unicode="&#xda;" horiz-adv-x="757" 
d="M726 710l-65 -368q-15 -86 -37 -142.5t-61 -106.5q-78 -102 -262 -102q-123 0 -179.5 55.5t-56.5 168.5q0 55 13 127l65 368h115l-65 -368q-14 -79 -14 -120q0 -64 32 -95t108 -31q100 0 152.5 61t74.5 185l65 368h115zM364 790l107 149h110l-130 -149h-87z" />
    <glyph glyph-name="Ucircumflex" unicode="&#xdb;" horiz-adv-x="757" 
d="M726 710l-65 -368q-15 -86 -37 -142.5t-61 -106.5q-78 -102 -262 -102q-123 0 -179.5 55.5t-56.5 168.5q0 55 13 127l65 368h115l-65 -368q-14 -79 -14 -120q0 -64 32 -95t108 -31q100 0 152.5 61t74.5 185l65 368h115zM398 790h-89l117 149h98l66 -149h-89l-40 70z" />
    <glyph glyph-name="Udieresis" unicode="&#xdc;" horiz-adv-x="757" 
d="M726 710l-65 -368q-15 -86 -37 -142.5t-61 -106.5q-78 -102 -262 -102q-123 0 -179.5 55.5t-56.5 168.5q0 55 13 127l65 368h115l-65 -368q-14 -79 -14 -120q0 -64 32 -95t108 -31q100 0 152.5 61t74.5 185l65 368h115zM435 900l-19 -111h-107l19 111h107zM610 900
l-19 -111h-107l19 111h107z" />
    <glyph glyph-name="Yacute" unicode="&#xdd;" horiz-adv-x="598" 
d="M295 369l240 341h124l-323 -448l-46 -262h-115l48 266l-164 444h117zM299 790l107 149h110l-130 -149h-87z" />
    <glyph glyph-name="Thorn" unicode="&#xde;" horiz-adv-x="663" 
d="M38 0l125 710h115l-24 -135h191q85 0 138 -52q54 -51 54 -130q0 -19 -3 -38q-16 -96 -88 -159q-70 -61 -185 -61h-185l-23 -135h-115zM380 239q56 0 93 31t46 85q3 18 3 33q0 83 -101 83h-185l-41 -232h185z" />
    <glyph glyph-name="germandbls" unicode="&#xdf;" 
d="M405 366q44 -12 74.5 -49.5t30.5 -83.5q0 -242 -316 -242l18 104q182 0 182 128q0 54 -47 68q-37 13 -98 13l19 104q66 0 99.5 26t42.5 81q2 18 2 22q0 34 -19 56t-53 22q-98 0 -118 -110l-89 -505h-115l89 505q18 101 84.5 157.5t175.5 56.5q80 0 121 -50
q40 -49 40 -117q0 -62 -32 -110.5t-91 -75.5z" />
    <glyph glyph-name="agrave" unicode="&#xe0;" horiz-adv-x="554" 
d="M449 18l-3 -18h-78q-27 0 -27 36q0 7 1 11v6q-47 -40 -89 -53q-30 -9 -67 -9q-69 0 -119 35t-50 100q0 14 2 28q18 108 106 142q69 27 183 31q39 1 64 16t25 45q0 59 -91 59q-86 0 -143 -63l-56 66q82 88 215 88q79 0 125.5 -40t46.5 -112q0 -25 -4 -44l-54 -303
q-1 -4 -1 -10q0 -11 14 -11zM201 78q88 0 124 41q36 39 50 118l5 30q-13 -17 -60 -25q-4 0 -10 -0.5t-14.5 -1t-15.5 -0.5q-18 -1 -29 -1q-117 -6 -129 -85q-1 -4 -1 -17q0 -59 80 -59zM322 758l55 -149h-87l-78 149h110z" />
    <glyph glyph-name="aacute" unicode="&#xe1;" horiz-adv-x="554" 
d="M449 18l-3 -18h-78q-27 0 -27 36q0 7 1 11v6q-47 -40 -89 -53q-30 -9 -67 -9q-69 0 -119 35t-50 100q0 14 2 28q18 108 106 142q69 27 183 31q39 1 64 16t25 45q0 59 -91 59q-86 0 -143 -63l-56 66q82 88 215 88q79 0 125.5 -40t46.5 -112q0 -25 -4 -44l-54 -303
q-1 -4 -1 -10q0 -11 14 -11zM201 78q88 0 124 41q36 39 50 118l5 30q-13 -17 -60 -25q-4 0 -10 -0.5t-14.5 -1t-15.5 -0.5q-18 -1 -29 -1q-117 -6 -129 -85q-1 -4 -1 -17q0 -59 80 -59zM281 609l107 149h110l-130 -149h-87z" />
    <glyph glyph-name="acircumflex" unicode="&#xe2;" horiz-adv-x="554" 
d="M449 18l-3 -18h-78q-27 0 -27 36q0 7 1 11v6q-47 -40 -89 -53q-30 -9 -67 -9q-69 0 -119 35t-50 100q0 14 2 28q18 108 106 142q69 27 183 31q39 1 64 16t25 45q0 59 -91 59q-86 0 -143 -63l-56 66q82 88 215 88q79 0 125.5 -40t46.5 -112q0 -25 -4 -44l-54 -303
q-1 -4 -1 -10q0 -11 14 -11zM201 78q88 0 124 41q36 39 50 118l5 30q-13 -17 -60 -25q-4 0 -10 -0.5t-14.5 -1t-15.5 -0.5q-18 -1 -29 -1q-117 -6 -129 -85q-1 -4 -1 -17q0 -59 80 -59zM304 609h-89l117 149h98l66 -149h-89l-40 70z" />
    <glyph glyph-name="atilde" unicode="&#xe3;" horiz-adv-x="554" 
d="M449 18l-3 -18h-78q-27 0 -27 36q0 7 1 11v6q-47 -40 -89 -53q-30 -9 -67 -9q-69 0 -119 35t-50 100q0 14 2 28q18 108 106 142q69 27 183 31q39 1 64 16t25 45q0 59 -91 59q-86 0 -143 -63l-56 66q82 88 215 88q79 0 125.5 -40t46.5 -112q0 -25 -4 -44l-54 -303
q-1 -4 -1 -10q0 -11 14 -11zM201 78q88 0 124 41q36 39 50 118l5 30q-13 -17 -60 -25q-4 0 -10 -0.5t-14.5 -1t-15.5 -0.5q-18 -1 -29 -1q-117 -6 -129 -85q-1 -4 -1 -17q0 -59 80 -59zM227 630l-48 40q1 3 4 8t12.5 18.5t21 23.5t29.5 18t37 8q36 0 85 -38q30 -24 48 -24
q25 0 48 34l8 11l47 -39q-1 -3 -4 -8t-12.5 -18t-20.5 -22.5t-29 -17.5t-37 -8q-42 0 -85 36q-3 2 -9.5 7l-10 7.5t-8.5 5t-10 4t-10 1.5q-24 0 -48 -35z" />
    <glyph glyph-name="adieresis" unicode="&#xe4;" horiz-adv-x="554" 
d="M449 18l-3 -18h-78q-27 0 -27 36q0 7 1 11v6q-47 -40 -89 -53q-30 -9 -67 -9q-69 0 -119 35t-50 100q0 14 2 28q18 108 106 142q69 27 183 31q39 1 64 16t25 45q0 59 -91 59q-86 0 -143 -63l-56 66q82 88 215 88q79 0 125.5 -40t46.5 -112q0 -25 -4 -44l-54 -303
q-1 -4 -1 -10q0 -11 14 -11zM201 78q88 0 124 41q36 39 50 118l5 30q-13 -17 -60 -25q-4 0 -10 -0.5t-14.5 -1t-15.5 -0.5q-18 -1 -29 -1q-117 -6 -129 -85q-1 -4 -1 -17q0 -59 80 -59zM344 719l-19 -111h-107l19 111h107zM519 719l-19 -111h-107l19 111h107z" />
    <glyph glyph-name="aring" unicode="&#xe5;" horiz-adv-x="554" 
d="M449 18l-3 -18h-78q-27 0 -27 36q0 7 1 11v6q-47 -40 -89 -53q-30 -9 -67 -9q-69 0 -119 35t-50 100q0 14 2 28q18 108 106 142q69 27 183 31q39 1 64 16t25 45q0 59 -91 59q-86 0 -143 -63l-56 66q82 88 215 88q79 0 125.5 -40t46.5 -112q0 -25 -4 -44l-54 -303
q-1 -4 -1 -10q0 -11 14 -11zM201 78q88 0 124 41q36 39 50 118l5 30q-13 -17 -60 -25q-4 0 -10 -0.5t-14.5 -1t-15.5 -0.5q-18 -1 -29 -1q-117 -6 -129 -85q-1 -4 -1 -17q0 -59 80 -59zM257 809q34 34 81 34t81 -34q35 -34 35 -81t-35 -81q-34 -34 -81 -34t-81 34t-34 81
t34 81zM338 689q17 0 28.5 11.5t11.5 27.5t-12 27.5t-28 11.5q-24 1 -33.5 -19t0 -40t33.5 -19z" />
    <glyph glyph-name="ae" unicode="&#xe6;" horiz-adv-x="960" 
d="M896 274l-9 -47h-407q-1 -7 -1 -21q0 -62 30.5 -91.5t100.5 -29.5q103 0 162 77l72 -48q-40 -56 -107.5 -89.5t-142.5 -33.5q-138 0 -188 104q-78 -104 -220 -104q-69 0 -119 35t-50 99q0 14 2 28q15 67 48 103.5t90 50.5q53 15 151 20q89 3 89 62q0 26 -22.5 43
t-66.5 17q-86 0 -145 -65l-60 62q86 92 220 92q121 0 160 -82q89 82 207 82q99 0 154.5 -57.5t55.5 -156.5q0 -19 -4 -50zM201 76q110 0 146 71q19 35 29 96l5 30q-18 -21 -61 -26q-40 -2 -48 -2h-19q-58 -1 -92 -28t-34 -78q0 -27 17.5 -45t56.5 -18zM499 321h306
q0 123 -131 123q-58 0 -104.5 -32t-70.5 -91z" />
    <glyph glyph-name="ccedilla" unicode="&#xe7;" horiz-adv-x="582" 
d="M397 171l88 -50q-94 -130 -238 -130q-5 0 -29 2l-14 -32q17 3 38 3q34 0 52.5 -17t18.5 -46q0 -45 -35 -78q-34 -33 -81 -33l12 68q11 2 19.5 11t8.5 20q0 10 -13 10q-44 0 -72 -32l-9 -11l-54 32l56 124q-57 26 -89 79t-32 121q0 19 5 52q23 121 107 196q86 78 208 78
q139 0 193 -126l-99 -53q-10 35 -39 58t-72 23q-78 0 -125.5 -48.5t-60.5 -127.5q-5 -35 -5 -55q0 -120 128 -120q78 0 133 82z" />
    <glyph glyph-name="egrave" unicode="&#xe8;" horiz-adv-x="609" 
d="M546 274l-9 -50h-408q-1 -6 -1 -25q0 -61 29.5 -87t103.5 -26q103 0 161 76l67 -54q-40 -55 -104.5 -86t-140.5 -31q-99 0 -158 57t-59 155q0 28 6 61q21 121 105 197q85 77 202 77q98 0 153.5 -58t55.5 -157q0 -23 -3 -49zM149 321h306q1 4 1 18q0 105 -132 105
q-59 0 -105.5 -32.5t-69.5 -90.5zM355 758l55 -149h-87l-78 149h110z" />
    <glyph glyph-name="eacute" unicode="&#xe9;" horiz-adv-x="609" 
d="M546 274l-9 -50h-408q-1 -6 -1 -25q0 -61 29.5 -87t103.5 -26q103 0 161 76l67 -54q-40 -55 -104.5 -86t-140.5 -31q-99 0 -158 57t-59 155q0 28 6 61q21 121 105 197q85 77 202 77q98 0 153.5 -58t55.5 -157q0 -23 -3 -49zM149 321h306q1 4 1 18q0 105 -132 105
q-59 0 -105.5 -32.5t-69.5 -90.5zM303 609l107 149h110l-130 -149h-87z" />
    <glyph glyph-name="ecircumflex" unicode="&#xea;" horiz-adv-x="609" 
d="M546 274l-9 -50h-408q-1 -6 -1 -25q0 -61 29.5 -87t103.5 -26q103 0 161 76l67 -54q-40 -55 -104.5 -86t-140.5 -31q-99 0 -158 57t-59 155q0 28 6 61q21 121 105 197q85 77 202 77q98 0 153.5 -58t55.5 -157q0 -23 -3 -49zM149 321h306q1 4 1 18q0 105 -132 105
q-59 0 -105.5 -32.5t-69.5 -90.5zM303 609h-89l117 149h98l66 -149h-89l-40 70z" />
    <glyph glyph-name="edieresis" unicode="&#xeb;" horiz-adv-x="609" 
d="M546 274l-9 -50h-408q-1 -6 -1 -25q0 -61 29.5 -87t103.5 -26q103 0 161 76l67 -54q-40 -55 -104.5 -86t-140.5 -31q-99 0 -158 57t-59 155q0 28 6 61q21 121 105 197q85 77 202 77q98 0 153.5 -58t55.5 -157q0 -23 -3 -49zM149 321h306q1 4 1 18q0 105 -132 105
q-59 0 -105.5 -32.5t-69.5 -90.5zM333 719l-19 -111h-107l19 111h107zM508 719l-19 -111h-107l19 111h107z" />
    <glyph glyph-name="igrave" unicode="&#xec;" horiz-adv-x="286" 
d="M26 0l93 529h109l-93 -529h-109zM167 758l55 -149h-87l-78 149h110z" />
    <glyph glyph-name="iacute" unicode="&#xed;" horiz-adv-x="286" 
d="M26 0l93 529h109l-93 -529h-109zM85 609l107 149h110l-130 -149h-87z" />
    <glyph glyph-name="icircumflex" unicode="&#xee;" horiz-adv-x="286" 
d="M26 0l93 529h109l-93 -529h-109zM136 609h-89l117 149h98l66 -149h-89l-40 70z" />
    <glyph glyph-name="idieresis" unicode="&#xef;" horiz-adv-x="286" 
d="M26 0l93 529h109l-93 -529h-109zM171 719l-19 -111h-107l19 111h107zM346 719l-19 -111h-107l19 111h107z" />
    <glyph glyph-name="eth" unicode="&#xf0;" horiz-adv-x="618" 
d="M519 576q24 -96 24 -210q0 -48 -9 -99q-23 -126 -101 -201t-198 -75q-81 0 -143 60t-62 159q0 27 4 46q20 122 98 202q79 82 198 82q63 0 91 -28q-13 47 -21 64h-198l19 105h126l-9 17l94 64q26 -34 48 -81h73l-19 -105h-15zM258 95q63 0 107 47q43 46 54 114q6 31 6 59
q0 121 -111 121q-64 0 -107.5 -46.5t-59.5 -133.5q-4 -25 -4 -41q0 -56 29.5 -88t85.5 -32z" />
    <glyph glyph-name="ntilde" unicode="&#xf1;" horiz-adv-x="644" 
d="M557 330l-58 -330h-109l57 323q4 17 4 40q0 81 -75 81q-165 0 -205 -226l-38 -218h-107l93 529h107l9 -56q80 65 164 65q80 0 121.5 -39t41.5 -112q0 -24 -5 -57zM258 640l-48 40q1 3 4 8t12.5 18.5t21 23.5t29.5 18t37 8q38 0 85 -38q30 -24 48 -24q25 0 48 34l8 11
l47 -39q-1 -3 -4 -8t-12.5 -18t-20.5 -22.5t-29 -17.5t-37 -8q-41 0 -85 36q-3 2 -9.5 7l-10 7.5t-8.5 5t-10 4t-10 1.5q-24 0 -48 -35z" />
    <glyph glyph-name="ograve" unicode="&#xf2;" horiz-adv-x="621" 
d="M548 264q-19 -113 -106 -194q-85 -79 -200 -79q-96 0 -157 63q-60 64 -60 160q0 30 4 50q19 108 108 191t202 83q99 0 156 -65q58 -64 58 -158q0 -19 -5 -51zM259 85q69 0 120 53q51 51 65 126q6 38 6 57q0 123 -128 123q-70 0 -123 -53q-51 -51 -65 -127q-5 -35 -5 -55
q0 -124 130 -124zM339 758l55 -149h-87l-78 149h110z" />
    <glyph glyph-name="oacute" unicode="&#xf3;" horiz-adv-x="621" 
d="M548 264q-19 -113 -106 -194q-85 -79 -200 -79q-96 0 -157 63q-60 64 -60 160q0 30 4 50q19 108 108 191t202 83q99 0 156 -65q58 -64 58 -158q0 -19 -5 -51zM259 85q69 0 120 53q51 51 65 126q6 38 6 57q0 123 -128 123q-70 0 -123 -53q-51 -51 -65 -127q-5 -35 -5 -55
q0 -124 130 -124zM287 609l107 149h110l-130 -149h-87z" />
    <glyph glyph-name="ocircumflex" unicode="&#xf4;" horiz-adv-x="621" 
d="M548 264q-19 -113 -106 -194q-85 -79 -200 -79q-96 0 -157 63q-60 64 -60 160q0 30 4 50q19 108 108 191t202 83q99 0 156 -65q58 -64 58 -158q0 -19 -5 -51zM259 85q69 0 120 53q51 51 65 126q6 38 6 57q0 123 -128 123q-70 0 -123 -53q-51 -51 -65 -127q-5 -35 -5 -55
q0 -124 130 -124zM301 609h-89l117 149h98l66 -149h-89l-40 70z" />
    <glyph glyph-name="otilde" unicode="&#xf5;" horiz-adv-x="621" 
d="M548 264q-19 -113 -106 -194q-85 -79 -200 -79q-96 0 -157 63q-60 64 -60 160q0 30 4 50q19 108 108 191t202 83q99 0 156 -65q58 -64 58 -158q0 -19 -5 -51zM259 85q69 0 120 53q51 51 65 126q6 38 6 57q0 123 -128 123q-70 0 -123 -53q-51 -51 -65 -127q-5 -35 -5 -55
q0 -124 130 -124zM245 630l-48 40q1 3 4 8t12.5 18.5t21 23.5t29.5 18t37 8q36 0 85 -38q30 -24 48 -24q25 0 48 34l8 11l47 -39q-1 -3 -4 -8t-12.5 -18t-20.5 -22.5t-29 -17.5t-37 -8q-42 0 -85 36q-3 2 -9.5 7l-10 7.5t-8.5 5t-10 4t-10 1.5q-24 0 -48 -35z" />
    <glyph glyph-name="odieresis" unicode="&#xf6;" horiz-adv-x="621" 
d="M548 264q-19 -113 -106 -194q-85 -79 -200 -79q-96 0 -157 63q-60 64 -60 160q0 30 4 50q19 108 108 191t202 83q99 0 156 -65q58 -64 58 -158q0 -19 -5 -51zM259 85q69 0 120 53q51 51 65 126q6 38 6 57q0 123 -128 123q-70 0 -123 -53q-51 -51 -65 -127q-5 -35 -5 -55
q0 -124 130 -124zM343 719l-19 -111h-107l19 111h107zM518 719l-19 -111h-107l19 111h107z" />
    <glyph glyph-name="divide" unicode="&#xf7;" horiz-adv-x="600" 
d="M360 125v-125h-120v125h120zM360 535v-126h-120v126h120zM537 327v-118h-474v118h474z" />
    <glyph glyph-name="oslash" unicode="&#xf8;" horiz-adv-x="621" 
d="M94 -97l-92 53l75 105q-55 61 -55 158q0 29 4 46q19 107 109 191q88 82 203 82q40 0 74 -12l68 94l92 -52l-71 -99q55 -62 55 -162q0 -21 -3 -42q-21 -116 -109 -195t-203 -79q-40 0 -76 12zM258 85q68 0 121 53q51 51 65 127q3 19 3 38q0 36 -14 72l-207 -287
q15 -3 32 -3zM135 265q-4 -17 -4 -44q0 -40 13 -67l207 287q-15 3 -30 3q-69 0 -122 -53q-50 -52 -64 -126z" />
    <glyph glyph-name="ugrave" unicode="&#xf9;" horiz-adv-x="646" 
d="M53 199l59 330h106l-57 -323q-4 -20 -4 -45q0 -41 19 -58.5t59 -17.5q73 0 125 48q54 49 76 178l39 218h105l-94 -529h-105l-6 57q-73 -66 -166 -66q-162 0 -162 147q0 28 6 61zM349 758l55 -149h-87l-78 149h110z" />
    <glyph glyph-name="uacute" unicode="&#xfa;" horiz-adv-x="646" 
d="M53 199l59 330h106l-57 -323q-4 -20 -4 -45q0 -41 19 -58.5t59 -17.5q73 0 125 48q54 49 76 178l39 218h105l-94 -529h-105l-6 57q-73 -66 -166 -66q-162 0 -162 147q0 28 6 61zM311 609l107 149h110l-130 -149h-87z" />
    <glyph glyph-name="ucircumflex" unicode="&#xfb;" horiz-adv-x="646" 
d="M53 199l59 330h106l-57 -323q-4 -20 -4 -45q0 -41 19 -58.5t59 -17.5q73 0 125 48q54 49 76 178l39 218h105l-94 -529h-105l-6 57q-73 -66 -166 -66q-162 0 -162 147q0 28 6 61zM303 609h-89l117 149h98l66 -149h-89l-40 70z" />
    <glyph glyph-name="udieresis" unicode="&#xfc;" horiz-adv-x="646" 
d="M53 199l59 330h106l-57 -323q-4 -20 -4 -45q0 -41 19 -58.5t59 -17.5q73 0 125 48q54 49 76 178l39 218h105l-94 -529h-105l-6 57q-73 -66 -166 -66q-162 0 -162 147q0 28 6 61zM343 719l-19 -111h-107l19 111h107zM518 719l-19 -111h-107l19 111h107z" />
    <glyph glyph-name="yacute" unicode="&#xfd;" horiz-adv-x="539" 
d="M206 130l228 399h123l-322 -547q-23 -39 -37 -59q-18 -25 -37 -46q-26 -27 -48 -37q-58 -29 -148 -29l19 108q55 0 83 13.5t50 46.5l13 21l-123 529h110zM229 609l107 149h110l-130 -149h-87z" />
    <glyph glyph-name="thorn" unicode="&#xfe;" horiz-adv-x="667" 
d="M-6 -180l157 890h109l-44 -247q75 75 164 75q97 0 158 -64q63 -63 63 -158q0 -19 -5 -52q-18 -118 -106 -196q-89 -77 -207 -77q-41 0 -81 22q-42 23 -56 52l-43 -245h-109zM300 88q69 0 121 52q53 53 65 124q4 17 4 43q0 61 -32 97.5t-95 36.5q-67 0 -123 -51
q-52 -49 -65 -126q-4 -17 -4 -43q0 -61 32.5 -97t96.5 -36z" />
    <glyph glyph-name="ydieresis" unicode="&#xff;" horiz-adv-x="539" 
d="M206 130l228 399h123l-322 -547q-23 -39 -37 -59q-18 -25 -37 -46q-26 -27 -48 -37q-58 -29 -148 -29l19 108q55 0 83 13.5t50 46.5l13 21l-123 529h110zM270 719l-19 -111h-107l19 111h107zM445 719l-19 -111h-107l19 111h107z" />
    <glyph glyph-name="dotlessi" unicode="&#x131;" horiz-adv-x="286" 
d="M26 0l93 529h109l-93 -529h-109z" />
    <glyph glyph-name="Lslash" unicode="&#x141;" horiz-adv-x="596" 
d="M39 200l-44 60l113 92l63 358h115l-44 -248l85 69l45 -59l-149 -122l-44 -246h355l-18 -104h-470l42 240z" />
    <glyph glyph-name="lslash" unicode="&#x142;" horiz-adv-x="378" 
d="M39 200l-44 60l113 92l63 358h109l-45 -255l92 76l45 -59l-157 -129l-60 -343h-109l42 240z" />
    <glyph glyph-name="OE" unicode="&#x152;" horiz-adv-x="1145" 
d="M668 710h489l-19 -106h-375l-33 -185h307l-18 -104h-307l-37 -211h380l-19 -104h-494l12 69q-88 -78 -237 -78q-117 0 -195 82q-78 83 -78 210q0 35 6 72q29 158 139 261t256 103q147 0 210 -80zM337 104q104 0 174.5 67t91.5 184q7 34 7 74q0 175 -185 175
q-98 0 -168 -70q-68 -68 -88 -179q-6 -35 -6 -66q0 -86 44.5 -135.5t129.5 -49.5z" />
    <glyph glyph-name="oe" unicode="&#x153;" horiz-adv-x="1013" 
d="M949 274l-9 -47h-407v-17q0 -64 31 -94.5t99 -30.5q103 0 162 77l72 -48q-40 -56 -107.5 -89.5t-142.5 -33.5q-60 0 -109 25.5t-77 70.5q-97 -96 -215 -96q-98 0 -159 63q-62 65 -62 160q0 18 5 50q20 111 105 192q86 82 207 82q58 0 105.5 -25t75.5 -69q91 94 220 94
q96 0 153 -60q57 -58 57 -156q0 -17 -4 -48zM262 85q68 0 121 53q51 51 65 126q5 33 5 52q0 128 -127 128q-70 0 -123 -53q-51 -51 -65 -127q-5 -30 -5 -47q0 -61 32.5 -96.5t96.5 -35.5zM553 321h306q-1 61 -32.5 92t-99.5 31q-58 0 -104.5 -32t-69.5 -91z" />
    <glyph glyph-name="Scaron" unicode="&#x160;" horiz-adv-x="699" 
d="M625 251q0 -120 -89 -191q-89 -69 -221 -69q-93 0 -174 36q-82 38 -122 113l108 56q31 -53 79 -77t128 -24q69 0 127 34t58 100q2 28 -20.5 46t-52 24t-73.5 10q-37 5 -84 9q-47 6 -78 15q-48 15 -76.5 50.5t-28.5 85.5q0 17 3 35q21 109 105 161q84 54 200 54
q180 0 244 -118l-103 -52q-35 66 -160 66q-65 0 -120 -27q-54 -26 -65 -84q-1 -3 -1 -15q0 -30 24 -45.5t75 -24.5l56 -7q51 -6 61 -8q78 -9 114 -28q86 -42 86 -125zM312 939h89l38 -70l65 70h89l-118 -149h-98z" />
    <glyph glyph-name="scaron" unicode="&#x161;" horiz-adv-x="548" 
d="M173 383q-1 -2 -1 -9q0 -36 67 -54q34 -9 45 -11l52 -12q18 -5 45 -15q39 -15 57.5 -38.5t22.5 -64.5q0 -14 -2 -26q-14 -81 -80 -122q-65 -40 -152 -40q-130 0 -186 67q-22 28 -29 55l90 30q34 -61 143 -61q40 0 76 18q37 18 37 56q0 26 -28.5 40t-94.5 27
q-62 14 -92 25q-70 27 -70 106q0 14 3 29q14 78 80 116q66 39 146 39q89 0 138 -35q39 -25 48 -42l-78 -60q-36 43 -124 43q-100 0 -113 -61zM201 758h89l38 -70l65 70h89l-118 -149h-98z" />
    <glyph glyph-name="Ydieresis" unicode="&#x178;" horiz-adv-x="598" 
d="M295 369l240 341h124l-323 -448l-46 -262h-115l48 266l-164 444h117zM357 900l-19 -111h-107l19 111h107zM532 900l-19 -111h-107l19 111h107z" />
    <glyph glyph-name="Zcaron" unicode="&#x17d;" horiz-adv-x="612" 
d="M141 104h374l-18 -104h-521l18 104l453 502h-346l18 104h494l-18 -104zM259 939h89l38 -70l65 70h89l-118 -149h-98z" />
    <glyph glyph-name="zcaron" unicode="&#x17e;" horiz-adv-x="496" 
d="M135 94h269l-16 -94h-404l16 94l319 341h-239l16 94h378l-16 -94zM184 758h89l38 -70l65 70h89l-118 -149h-98z" />
    <glyph glyph-name="florin" unicode="&#x192;" horiz-adv-x="600" 
d="M459 719q35 0 53 -5l8 -2v-118q-39 10 -65 10q-49 0 -60 -48l-8 -38h118v-105h-141l-101 -458q-18 -80 -58 -112t-119 -32q-6 0 -51 6v116q24 -7 51 -7q52 0 63 47l97 440h-84v105h107l13 60q15 71 57.5 106t119.5 35z" />
    <glyph glyph-name="circumflex" unicode="&#x2c6;" horiz-adv-x="481" 
d="M189 570h-89l117 149h98l66 -149h-89l-40 70z" />
    <glyph glyph-name="caron" unicode="&#x2c7;" horiz-adv-x="481" 
d="M100 719h89l38 -70l65 70h89l-118 -149h-98z" />
    <glyph glyph-name="breve" unicode="&#x2d8;" horiz-adv-x="483" 
d="M290 714h93q-11 -54 -58 -93q-49 -38 -106 -38q-49 0 -84 32t-35 79q0 2 2 20h93q-1 -2 -1 -9q0 -15 11 -25t29 -10q20 0 36 12.5t20 31.5z" />
    <glyph glyph-name="dotaccent" unicode="&#x2d9;" horiz-adv-x="337" 
d="M237 719l-20 -116h-117l20 116h117z" />
    <glyph glyph-name="ring" unicode="&#x2da;" horiz-adv-x="431" 
d="M134 685q34 34 81 34t81 -34q35 -34 35 -81t-35 -81q-34 -34 -81 -34t-81 34t-34 81t34 81zM187 576q11 -11 28 -11t28 11q12 12 12 28t-12 27q-12 12 -28 12t-28 -12q-11 -11 -11 -27t11 -28z" />
    <glyph glyph-name="ogonek" unicode="&#x2db;" horiz-adv-x="404" 
d="M194 26h97q-11 -5 -40 -23q-22 -15 -34 -26q-39 -33 -39 -71q0 -26 26 -26t54 20l46 -63q-49 -37 -100 -37q-46 0 -75 25.5t-29 69.5q0 69 84 125z" />
    <glyph glyph-name="tilde" unicode="&#x2dc;" horiz-adv-x="540" 
d="M148 570l-48 40q1 3 4 8t12.5 18.5t21 23.5t29.5 18t37 8q38 0 85 -38q30 -24 48 -24q25 0 48 34l8 11l47 -39q-1 -3 -4 -8t-12.5 -18t-20.5 -22.5t-29 -17.5t-37 -8q-41 0 -85 36q-3 2 -9.5 7l-10 7.5t-8.5 5t-10 4t-10 1.5q-24 0 -48 -35z" />
    <glyph glyph-name="hungarumlaut" unicode="&#x2dd;" horiz-adv-x="578" 
d="M100 570l107 149h110l-130 -149h-87zM261 570l107 149h110l-130 -149h-87z" />
    <glyph glyph-name="uni2206" unicode="&#x394;" horiz-adv-x="600" 
d="M636 0h-671l288 710h95zM128 104h345l-172 451z" />
    <glyph glyph-name="uni2206" unicode="&#x2206;" horiz-adv-x="600" 
d="M636 0h-671l288 710h95zM128 104h345l-172 451z" />
    <glyph glyph-name="uni2126" unicode="&#x3a9;" horiz-adv-x="778" 
d="M78 0v104h146q-58 43 -89 102q-33 63 -40 108t-7 110q2 123 82 208q81 87 213 87t213 -87q80 -85 82 -208q0 -59 -8 -110q-8 -48 -39 -108q-31 -59 -89 -102h146v-104h-280v104q76 34 115.5 116.5t39.5 194.5q0 91 -48.5 145t-131.5 54t-131.5 -54t-48.5 -145
q0 -112 39.5 -194.5t115.5 -116.5v-104h-280z" />
    <glyph glyph-name="uni2126" unicode="&#x2126;" horiz-adv-x="778" 
d="M78 0v104h146q-58 43 -89 102q-33 63 -40 108t-7 110q2 123 82 208q81 87 213 87t213 -87q80 -85 82 -208q0 -59 -8 -110q-8 -48 -39 -108q-31 -59 -89 -102h146v-104h-280v104q76 34 115.5 116.5t39.5 194.5q0 91 -48.5 145t-131.5 54t-131.5 -54t-48.5 -145
q0 -112 39.5 -194.5t115.5 -116.5v-104h-280z" />
    <glyph glyph-name="pi" unicode="&#x3c0;" horiz-adv-x="712" 
d="M69 425v104h551v-104h-93v-268q0 -35 11.5 -50t42.5 -15q22 0 39 4v-98q-48 -7 -77 -7q-70 0 -100 37.5t-30 129.5v267h-136v-425h-115v425h-93z" />
    <glyph glyph-name="endash" unicode="&#x2013;" horiz-adv-x="626" 
d="M551 344l-20 -118h-474l20 118h474z" />
    <glyph glyph-name="emdash" unicode="&#x2014;" horiz-adv-x="918" 
d="M843 344l-20 -118h-766l20 118h766z" />
    <glyph glyph-name="quoteleft" unicode="&#x2018;" horiz-adv-x="276" 
d="M89 445l18 102q12 70 29 100q16 28 76 63l23 -47q-32 -14 -44.5 -29.5t-16.5 -41.5l-4 -22h62l-22 -125h-121z" />
    <glyph glyph-name="quoteright" unicode="&#x2019;" horiz-adv-x="276" 
d="M241 710l-18 -102q-12 -71 -29 -101q-15 -26 -76 -62l-23 47q32 14 44.5 29.5t16.5 41.5l4 22h-62l22 125h121z" />
    <glyph glyph-name="quotesinglbase" unicode="&#x201a;" horiz-adv-x="259" 
d="M144 125l-18 -102q-12 -70 -29 -100q-16 -28 -76 -63l-23 47q32 14 44.5 29.5t16.5 41.5l4 22h-62l22 125h121z" />
    <glyph glyph-name="quotedblleft" unicode="&#x201c;" horiz-adv-x="448" 
d="M89 445l18 102q12 70 29 100q16 28 76 63l23 -47q-32 -14 -44.5 -29.5t-16.5 -41.5l-4 -22h62l-22 -125h-121zM261 445l18 102q12 70 29 100q16 28 76 63l23 -47q-32 -14 -44.5 -29.5t-16.5 -41.5l-4 -22h62l-22 -125h-121z" />
    <glyph glyph-name="quotedblright" unicode="&#x201d;" horiz-adv-x="448" 
d="M413 710l-18 -102q-12 -71 -29 -101q-15 -26 -76 -62l-23 47q32 14 44.5 29.5t16.5 41.5l4 22h-62l22 125h121zM241 710l-18 -102q-12 -71 -29 -101q-15 -26 -76 -62l-23 47q32 14 44.5 29.5t16.5 41.5l4 22h-62l22 125h121z" />
    <glyph glyph-name="quotedblbase" unicode="&#x201e;" horiz-adv-x="431" 
d="M316 125l-18 -102q-12 -70 -29 -100q-16 -28 -76 -63l-23 47q32 14 44.5 29.5t16.5 41.5l4 22h-62l22 125h121zM144 125l-18 -102q-12 -70 -29 -100q-16 -28 -76 -63l-23 47q32 14 44.5 29.5t16.5 41.5l4 22h-62l22 125h121z" />
    <glyph glyph-name="dagger" unicode="&#x2020;" horiz-adv-x="603" 
d="M65 429l18 100h187l32 181h116l-32 -181h187l-18 -100h-187l-107 -609h-116l107 609h-187z" />
    <glyph glyph-name="daggerdbl" unicode="&#x2021;" horiz-adv-x="603" 
d="M68 430l17 100h187l32 180h116l-32 -180h187l-17 -100h-187l-59 -330h187l-18 -100h-187l-31 -180h-116l31 180h-187l18 100h187l59 330h-187z" />
    <glyph glyph-name="bullet" unicode="&#x2022;" horiz-adv-x="420" 
d="M200 403q47 0 81 -34t34 -81t-34 -81t-81 -34q-48 0 -82 34q-33 35 -33 81t33 81q34 34 82 34z" />
    <glyph glyph-name="ellipsis" unicode="&#x2026;" horiz-adv-x="775" 
d="M157 125l-22 -125h-120l22 125h120zM403 125l-22 -125h-120l22 125h120zM650 125l-22 -125h-120l22 125h120z" />
    <glyph glyph-name="perthousand" unicode="&#x2030;" horiz-adv-x="1044" 
d="M65 0l590 710h97l-590 -710h-97zM422 569q-13 -77 -48 -116t-106 -39q-103 0 -103 108q0 28 4 47q27 150 153 150q105 0 105 -104q0 -16 -5 -46zM278 472q33 0 49.5 24t23.5 73q6 31 6 47q0 45 -45 45q-33 0 -50 -23t-24 -69q-5 -32 -5 -48q0 -49 45 -49zM652 146
q-13 -77 -48 -116t-106 -39q-103 0 -103 108q0 28 4 47q27 150 153 150q105 0 105 -104q0 -16 -5 -46zM508 49q33 0 49.5 24t23.5 73q6 31 6 47q0 45 -45 45q-33 0 -50 -23t-24 -69q-5 -32 -5 -48q0 -49 45 -49zM939 146q-13 -77 -48 -116t-106 -39q-103 0 -103 108
q0 28 4 47q27 150 153 150q105 0 105 -104q0 -16 -5 -46zM795 49q33 0 49.5 24t23.5 73q6 31 6 47q0 45 -45 45q-33 0 -50 -23t-24 -69q-5 -32 -5 -48q0 -49 45 -49z" />
    <glyph glyph-name="guilsinglleft" unicode="&#x2039;" horiz-adv-x="390" 
d="M39 269l7 39l222 221l69 -66l-176 -174l114 -174l-92 -67z" />
    <glyph glyph-name="guilsinglright" unicode="&#x203a;" horiz-adv-x="390" 
d="M341 308l-7 -39l-222 -221l-70 67l176 174l-114 174l93 66z" />
    <glyph glyph-name="fraction" unicode="&#x2044;" horiz-adv-x="571" 
d="M5 0l465 710h96l-464 -710h-97z" />
    <glyph glyph-name="Euro" unicode="&#x20ac;" 
d="M29 388l14 78h66q76 253 287 253q75 0 128 -33t74 -91l-90 -52q-33 72 -124 72q-118 0 -165 -149h248l-32 -78h-235l-11 -61h220l-32 -78h-197v-21q0 -67 25.5 -100t89.5 -33q45 0 77 19t64 59l80 -61q-93 -121 -246 -121q-202 0 -202 225q0 26 1 33h-65l14 78h60l11 61
h-60z" />
    <glyph glyph-name="trademark" unicode="&#x2122;" horiz-adv-x="815" 
d="M385 710l-13 -72h-108l-51 -288h-76l51 288h-108l13 72h292zM415 350h-75l64 360h115l34 -258l127 258h116l-64 -360h-75l47 264l-134 -264h-68l-40 264z" />
    <glyph glyph-name="partialdiff" unicode="&#x2202;" horiz-adv-x="593" 
d="M48 245q0 121 59 201q58 80 166 82q78 0 121 -55q-19 70 -76 105q-55 34 -122 34v107q213 0 290 -192q42 -100 42 -239q0 -132 -57 -215q-57 -82 -180 -82q-111 0 -177 69q-66 70 -66 185zM161 245q2 -69 35.5 -109t94.5 -40q76 -5 107 74q13 30 16 96q1 13 1 50
q-31 57 -62.5 82t-79.5 25q-16 0 -39 -12q-18 -8 -34 -26q-39 -45 -39 -140z" />
    <glyph glyph-name="product" unicode="&#x220f;" horiz-adv-x="888" 
d="M204 -180v785h-118v105h772v-105h-118v-785h-116v785h-304v-785h-116z" />
    <glyph glyph-name="summation" unicode="&#x2211;" horiz-adv-x="743" 
d="M86 -76l259 340l-259 341v105h634v-105h-489l259 -341l-259 -340h489v-104h-634v104z" />
    <glyph glyph-name="minus" unicode="&#x2212;" horiz-adv-x="600" 
d="M537 344v-118h-474v118h474z" />
    <glyph glyph-name="radical" unicode="&#x221a;" horiz-adv-x="600" 
d="M551 889h124l-262 -889h-117l-127 376h-129v115h215l96 -304z" />
    <glyph glyph-name="infinity" unicode="&#x221e;" horiz-adv-x="665" 
d="M458 409q66 0 101.5 -37t35.5 -98t-35.5 -97.5t-101.5 -36.5q-58 0 -129 78q-40 -46 -77 -65q-25 -13 -50 -13q-65 0 -101 36.5t-36 97.5t36 98t101 37q46 0 88 -38q22 -22 39 -41q27 30 41 42.5t36 23.5q25 13 52 13zM199 207q38 0 87 67l-2 2q-1 3 -4 7l-6.5 9
t-8.5 10.5l-10.5 11t-12 10.5t-13.5 9t-14.5 6.5t-15.5 2.5q-58 0 -58 -68q0 -67 58 -67zM462 207q57 0 57 67q0 68 -57 68q-19 0 -41 -16t-35 -35l-11 -17q49 -67 87 -67z" />
    <glyph glyph-name="integral" unicode="&#x222b;" horiz-adv-x="531" 
d="M432 719q39 0 54 -5l7 -2v-118q-47 10 -65 10q-50 0 -60 -48l-132 -601q-18 -80 -58 -112t-119 -32q-6 0 -51 6v116q22 -7 51 -7q52 0 63 47l133 605q15 71 57.5 106t119.5 35z" />
    <glyph glyph-name="approxequal" unicode="&#x2248;" horiz-adv-x="600" 
d="M87 123l-84 66q15 27 29 44q19 24 37 39q52 44 117 44q52 0 100 -34q20 -13 47 -33q53 -39 83 -39q21 0 45 18t41 40l13 19l81 -65q-7 -16 -29 -44q-15 -20 -36 -37q-51 -43 -115 -43q-67 0 -149 67q-2 2 -13.5 10l-14.5 10q-4 4 -12 8q-21 13 -41 13q-22 0 -47 -21
q-25 -20 -39 -41zM87 383l-84 66q15 27 29 44q19 24 37 39q52 44 117 44q52 0 100 -34q20 -13 47 -33q53 -39 83 -39q22 0 46 17.5t40 40.5l13 19l81 -65q-7 -16 -29 -44q-15 -20 -36 -37q-51 -43 -115 -43q-67 0 -149 67q-3 2 -14 10t-14 10q-4 4 -12 8q-21 13 -41 13
q-22 0 -47 -21q-25 -20 -39 -41z" />
    <glyph glyph-name="notequal" unicode="&#x2260;" horiz-adv-x="686" 
d="M262 -80h-123l66 165h-100v119h149l48 118h-197v119h246l60 149h121l-60 -149h94v-119h-142l-47 -118h189v-119h-237z" />
    <glyph glyph-name="lessequal" unicode="&#x2264;" horiz-adv-x="600" 
d="M83 472v49l365 274l69 -80l-303 -219l303 -219l-69 -80zM517 119v-119h-434v119h434z" />
    <glyph glyph-name="greaterequal" unicode="&#x2265;" horiz-adv-x="600" 
d="M517 521v-49l-365 -275l-69 80l303 219l-303 219l69 80zM83 0v119h434v-119h-434z" />
    <glyph glyph-name="lozenge" unicode="&#x25ca;" horiz-adv-x="600" 
d="M266 0l-216 355l216 355h66l215 -355l-215 -355h-66zM185 355l114 -188l114 188l-114 188z" />
    <glyph glyph-name="uniFB01" unicode="&#xfb01;" horiz-adv-x="620" 
d="M383 614q-28 6 -50 6q-33 0 -50.5 -20.5t-26.5 -70.5h100l-17 -97h-100l-76 -432h-107l76 432h-92l17 97h92q18 103 59 146.5t117 43.5q28 0 76 -7zM360 0l93 529h109l-93 -529h-109zM598 710l-21 -118h-117l21 118h117z" />
    <glyph glyph-name="uniFB02" unicode="&#xfb02;" horiz-adv-x="645" 
d="M383 614q-28 6 -50 6q-33 0 -50.5 -20.5t-26.5 -70.5h100l-17 -97h-100l-76 -432h-107l76 432h-92l17 97h92q18 103 59 146.5t117 43.5q28 0 76 -7zM468 0h-108l125 710h108z" />
    <glyph glyph-name="NULL" horiz-adv-x="0" 
 />
    <glyph glyph-name="CR" horiz-adv-x="333" 
 />
    <glyph glyph-name="apple" horiz-adv-x="752" 
d="M672 617v-595q0 -9 -6.5 -15.5t-15.5 -6.5q-4 0 -7 1l-267 77l-267 -77q-3 -1 -7 -1q-9 0 -15.5 6.5t-6.5 15.5v595q0 18 16 22l270 78q10 4 20 0l270 -78q16 -4 16 -22zM354 366v303l-230 -67q6 -93 71 -161q66 -67 159 -75zM398 669v-303q94 8 158 75q66 68 72 161z
M123 463v-412l231 67v204q-73 6 -134 43.5t-97 97.5zM629 51v412q-37 -60 -98 -97.5t-133 -43.5v-204z" />
    </font>
</defs>
</svg>
