<?xml version="1.0" encoding="utf-8"?>
<!-- Generator: Adobe Illustrator 22.0.1, SVG Export Plug-In . SVG Version: 6.00 Build 0)  -->
<svg version="1.1" id="Layer_1" xmlns="http://www.w3.org/2000/svg" xmlns:xlink="http://www.w3.org/1999/xlink" x="0px" y="0px"
	 width="37.4px" height="37.4px" viewBox="0 0 37.4 37.4" style="enable-background:new 0 0 37.4 37.4;" xml:space="preserve">
<style type="text/css">
	.st0{fill:none;stroke:#0792D1;stroke-miterlimit:10;}
	.st1{fill:#0792D1;}
</style>
<title>Arrow</title>
<g id="Page-1">
	<g id="Collaborations">
		<g id="section2">
			<g id="arrow">
				<circle id="Oval-3" class="st0" cx="18.7" cy="18.7" r="18"/>
			</g>
		</g>
	</g>
</g>
<path id="Shape_1_" class="st1" d="M27.3,18.8c0-0.3-0.1-0.5-0.3-0.7l-6-6.4c-0.4-0.4-1.1-0.5-1.6-0.1l0,0c-0.4,0.5-0.4,1.2,0,1.6
	l4.2,4.5H11.3l0,0c-0.6,0-1.1,0.5-1.1,1.1s0.5,1.1,1.1,1.1h12.3l-4.2,4.5l-0.1,0.1c-0.4,0.4-0.3,1.1,0.2,1.5
	c0.4,0.4,1.1,0.3,1.5-0.2l6-6.4C27.2,19.2,27.3,18.9,27.3,18.8z"/>
</svg>
