<?xml version="1.0" encoding="UTF-8"?>
<svg width="24px" height="22px" viewBox="0 0 24 22" version="1.1" xmlns="http://www.w3.org/2000/svg" xmlns:xlink="http://www.w3.org/1999/xlink">
    <!-- Generator: Sketch 47 (45396) - http://www.bohemiancoding.com/sketch -->
    <title>Shape</title>
    <desc>Created with Sketch.</desc>
    <defs></defs>
    <g id="Page-1" stroke="none" stroke-width="1" fill="none" fill-rule="evenodd">
        <g id="stories_show" transform="translate(-1321.000000, -18.000000)" stroke-width="0.8" stroke="#000000" fill="#000000" fill-rule="nonzero">
            <g id="header" transform="translate(20.000000, 19.000000)">
                <g id="cart" transform="translate(1302.000000, 0.000000)">
                    <g id="noun_1020868_cc">
                        <path d="M21.8834769,4.74505578 C21.7648104,4.58675934 21.5725149,4.49250101 21.3675685,4.49250101 L4.73173354,4.49250101 L3.61439568,0.447787058 C3.54152582,0.18371981 3.2900236,0 3.00233946,0 L0.632550872,0 C0.28312977,0 0,0.268384423 0,0.599607737 C0,0.93083105 0.28312977,1.19921547 0.632550872,1.19921547 L2.51401019,1.19921547 L6.10335685,14.1917558 C6.17597369,14.455823 6.42747592,14.6395428 6.71516006,14.6395428 L18.2078503,14.6395428 C18.5572714,14.6395428 18.8404012,14.3711584 18.8404012,14.0399351 C18.8404012,13.7087118 18.5572714,13.4403273 18.2078503,13.4403273 L7.20323631,13.4403273 L6.74830572,11.7940443 L19.1164464,11.7940443 C19.385407,11.7940443 19.6247643,11.6328698 19.7135744,11.3923072 L21.9644435,5.29021914 C22.0322529,5.10673917 22.0018905,4.90359207 21.8834769,4.74505578 Z M18.6675883,10.5948289 L6.41735511,10.5948289 L5.06293718,5.69195632 L20.4761778,5.69195632 L18.6675883,10.5948289 Z M8.69706845,16.0912771 C7.56024802,16.0912771 6.63545865,16.9679036 6.63545865,18.0455186 C6.63545865,19.1231336 7.56024802,20 8.69706845,20 C9.83388888,20 10.7586783,19.1231336 10.7586783,18.0455186 C10.7586783,16.9679036 9.8341419,16.0912771 8.69706845,16.0912771 Z M8.69706845,18.8010244 C8.25782512,18.8010244 7.90056039,18.4621261 7.90056039,18.0457585 C7.90056039,17.6293909 8.25782512,17.2907324 8.69706845,17.2907324 C9.13631177,17.2907324 9.49357651,17.6293909 9.49357651,18.0457585 C9.49357651,18.4621261 9.13656479,18.8010244 8.69706845,18.8010244 Z M15.3236714,16.0912771 C14.186851,16.0912771 13.2620616,16.9679036 13.2620616,18.0455186 C13.2620616,19.1231336 14.186851,20 15.3236714,20 C16.4607448,20 17.3857872,19.1231336 17.3857872,18.0455186 C17.3857872,16.9679036 16.4607448,16.0912771 15.3236714,16.0912771 Z M15.3236714,18.8010244 C14.8844281,18.8010244 14.5271633,18.4621261 14.5271633,18.0457585 C14.5271633,17.6293909 14.8844281,17.2907324 15.3236714,17.2907324 C15.7631677,17.2907324 16.1206855,17.6293909 16.1206855,18.0457585 C16.1206855,18.4621261 15.7631677,18.8010244 15.3236714,18.8010244 Z" id="Shape"></path>
                    </g>
                </g>
            </g>
        </g>
    </g>
</svg>