<?xml version="1.0" encoding="utf-8"?>
<!-- Generator: Adobe Illustrator 22.0.1, SVG Export Plug-In . SVG Version: 6.00 Build 0)  -->
<svg version="1.1" id="Layer_1" xmlns="http://www.w3.org/2000/svg" xmlns:xlink="http://www.w3.org/1999/xlink" x="0px" y="0px"
	 width="28px" height="25.7px" viewBox="0 0 28 25.7" style="enable-background:new 0 0 28 25.7;" xml:space="preserve">
<path d="M9.4,25.7c1.8,0,3.3-1.5,3.3-3.3c0-1.8-1.5-3.3-3.3-3.3s-3.3,1.5-3.3,3.3l0,0C6.1,24.2,7.6,25.7,9.4,25.7z M9.4,21.5
	c0.5,0,0.9,0.4,0.9,0.9s-0.4,0.9-0.9,0.9s-0.9-0.4-0.9-0.9S8.9,21.5,9.4,21.5z"/>
<path d="M23.9,22.4c0-1.8-1.5-3.3-3.3-3.3s-3.3,1.5-3.3,3.3s1.5,3.3,3.3,3.3S23.9,24.2,23.9,22.4z M19.8,22.4c0-0.5,0.4-0.9,0.9-0.9
	s0.9,0.4,0.9,0.9s-0.4,0.9-0.9,0.9S19.8,22.9,19.8,22.4z"/>
<path d="M26.2,3.9H6.9L6.7,2.7C6.5,1.2,5.3,0.2,3.8,0.2h-2c-0.7,0-1.2,0.5-1.2,1.2s0.5,1.2,1.2,1.2h2c0.3,0,0.5,0.2,0.6,0.5
	l2.1,12.2c0.3,2,2.1,3.5,4.1,3.5h12.2c0.7,0,1.2-0.5,1.2-1.2s-0.5-1.2-1.2-1.2H10.6c-0.8,0-1.5-0.5-1.7-1.3h12.6
	c1.9,0,3.5-1.2,4-3.1l1.9-6.6c0.2-0.6-0.2-1.3-0.8-1.5C26.4,3.9,26.3,3.9,26.2,3.9L26.2,3.9z M23.2,11.4c-0.2,0.8-0.9,1.3-1.7,1.3
	H8.4L7.4,6.3h17.3L23.2,11.4z"/>
</svg>
