<?xml version="1.0" encoding="utf-8"?>
<!-- Generator: Adobe Illustrator 22.0.1, SVG Export Plug-In . SVG Version: 6.00 Build 0)  -->
<svg version="1.1" id="Layer_1" xmlns="http://www.w3.org/2000/svg" xmlns:xlink="http://www.w3.org/1999/xlink" x="0px" y="0px"
	 width="24px" height="22px" viewBox="0 0 24 22" style="enable-background:new 0 0 24 22;" xml:space="preserve">
<style type="text/css">
	.st0{fill:#FFFFFF;stroke:#FFFFFF;stroke-width:0.8;}
</style>
<title>Shape</title>
<desc>Created with Sketch.</desc>
<g id="Page-1">
	<g id="stories_show" transform="translate(-1321.000000, -18.000000)">
		<g id="header" transform="translate(20.000000, 19.000000)">
			<g id="cart" transform="translate(1302.000000, 0.000000)">
				<g id="noun_1020868_cc">
					<path id="Shape" class="st0" d="M21.9,4.7c-0.1-0.2-0.3-0.3-0.5-0.3H4.7l-1.1-4C3.5,0.2,3.3,0,3,0H0.6C0.3,0,0,0.3,0,0.6
						s0.3,0.6,0.6,0.6h1.9l3.6,13c0.1,0.3,0.3,0.4,0.6,0.4h11.5c0.3,0,0.6-0.3,0.6-0.6s-0.3-0.6-0.6-0.6h-11l-0.5-1.6h12.4
						c0.3,0,0.5-0.2,0.6-0.4L22,5.3C22,5.1,22,4.9,21.9,4.7z M18.7,10.6H6.4L5.1,5.7h15.4L18.7,10.6z M8.7,16.1
						c-1.1,0-2.1,0.9-2.1,2c0,1.1,0.9,2,2.1,2s2.1-0.9,2.1-2C10.8,17,9.8,16.1,8.7,16.1z M8.7,18.8c-0.4,0-0.8-0.3-0.8-0.8
						c0-0.4,0.4-0.8,0.8-0.8s0.8,0.3,0.8,0.8C9.5,18.5,9.1,18.8,8.7,18.8z M15.3,16.1c-1.1,0-2.1,0.9-2.1,2c0,1.1,0.9,2,2.1,2
						c1.1,0,2.1-0.9,2.1-2C17.4,17,16.5,16.1,15.3,16.1z M15.3,18.8c-0.4,0-0.8-0.3-0.8-0.8c0-0.4,0.4-0.8,0.8-0.8
						c0.4,0,0.8,0.3,0.8,0.8C16.1,18.5,15.8,18.8,15.3,18.8z"/>
				</g>
			</g>
		</g>
	</g>
</g>
</svg>
