<?xml version="1.0" encoding="UTF-8"?>
<svg width="22px" height="20px" viewBox="0 0 22 20" version="1.1" xmlns="http://www.w3.org/2000/svg" xmlns:xlink="http://www.w3.org/1999/xlink">
    <!-- Generator: Sketch 47 (45396) - http://www.bohemiancoding.com/sketch -->
    <title>Shape</title>
    <desc>Created with Sketch.</desc>
    <defs></defs>
    <g id="Page-1" stroke="none" stroke-width="1" fill="none" fill-rule="evenodd">
        <g id="about" transform="translate(-1322.000000, -20.000000)" fill-rule="nonzero" fill="#000000">
            <g id="header" transform="translate(20.000000, 20.000000)">
                <g id="cart" transform="translate(1302.000000, 0.000000)">
                    <g id="noun_1020868_cc">
                        <path d="M21.8834769,4.98230857 C21.7648104,4.81609731 21.5725149,4.71712606 21.3675685,4.71712606 L4.73173354,4.71712606 L3.61439568,0.470176411 C3.54152582,0.192905801 3.2900236,0 3.00233946,0 L0.632550872,0 C0.28312977,0 0,0.281803644 0,0.629588123 C0,0.977372603 0.28312977,1.25917625 0.632550872,1.25917625 L2.51401019,1.25917625 L6.10335685,14.9013435 C6.17597369,15.1786142 6.42747592,15.37152 6.71516006,15.37152 L18.2078503,15.37152 C18.5572714,15.37152 18.8404012,15.0897163 18.8404012,14.7419318 C18.8404012,14.3941473 18.5572714,14.1123437 18.2078503,14.1123437 L7.20323631,14.1123437 L6.74830572,12.3837466 L19.1164464,12.3837466 C19.385407,12.3837466 19.6247643,12.2145133 19.7135744,11.9619225 L21.9644435,5.5547301 C22.0322529,5.36207613 22.0018905,5.14877167 21.8834769,4.98230857 Z M18.6675883,11.1245703 L6.41735511,11.1245703 L5.06293718,5.97655414 L20.4761778,5.97655414 L18.6675883,11.1245703 Z M8.69706845,15.8958409 C7.56024802,15.8958409 6.63545865,16.8162988 6.63545865,17.9477946 C6.63545865,19.0792903 7.56024802,20 8.69706845,20 C9.83388888,20 10.7586783,19.0792903 10.7586783,17.9477946 C10.7586783,16.8162988 9.8341419,15.8958409 8.69706845,15.8958409 Z M8.69706845,18.7410756 C8.25782512,18.7410756 7.90056039,18.3852324 7.90056039,17.9480464 C7.90056039,17.5108604 8.25782512,17.155269 8.69706845,17.155269 C9.13631177,17.155269 9.49357651,17.5108604 9.49357651,17.9480464 C9.49357651,18.3852324 9.13656479,18.7410756 8.69706845,18.7410756 Z M15.3236714,15.8958409 C14.186851,15.8958409 13.2620616,16.8162988 13.2620616,17.9477946 C13.2620616,19.0792903 14.186851,20 15.3236714,20 C16.4607448,20 17.3857872,19.0792903 17.3857872,17.9477946 C17.3857872,16.8162988 16.4607448,15.8958409 15.3236714,15.8958409 Z M15.3236714,18.7410756 C14.8844281,18.7410756 14.5271633,18.3852324 14.5271633,17.9480464 C14.5271633,17.5108604 14.8844281,17.155269 15.3236714,17.155269 C15.7631677,17.155269 16.1206855,17.5108604 16.1206855,17.9480464 C16.1206855,18.3852324 15.7631677,18.7410756 15.3236714,18.7410756 Z" id="Shape"></path>
                    </g>
                </g>
            </g>
        </g>
    </g>
</svg>