<?xml version="1.0" encoding="UTF-8"?>
<svg width="20px" height="20px" viewBox="0 0 20 20" version="1.1" xmlns="http://www.w3.org/2000/svg" xmlns:xlink="http://www.w3.org/1999/xlink">
    <!-- Generator: Sketch 51.1 (57501) - http://www.bohemiancoding.com/sketch -->
    <title>noun_Football_1496409</title>
    <desc>Created with Sketch.</desc>
    <defs></defs>
    <g id="Page-1" stroke="none" stroke-width="1" fill="none" fill-rule="evenodd">
        <g id="noun_Football_1496409" fill="#000000" fill-rule="nonzero">
            <g id="Group">
                <g id="Shape">
                    <path d="M10,20 C4.4771525,20 0,15.5228475 0,10 C0,4.4771525 4.4771525,0 10,0 C15.5228475,0 20,4.4771525 20,10 C20,15.5228475 15.5228475,20 10,20 Z M4.6091777,11.4548249 C4.5326985,11.6540768 4.56188974,11.961626 4.6759515,12.1442745 L6.05471496,14.352106 C6.16807232,14.5336266 6.43232778,14.6685964 6.6461134,14.6534871 L9.8259915,14.4287491 C10.0392545,14.4136768 10.2820449,14.2429845 10.3674651,14.0493425 L11.5476496,11.3739409 C11.6334343,11.1794728 11.5976774,10.8848191 11.4667088,10.7144141 L9.45166974,8.0926182 C9.32118274,7.92283972 9.04383894,7.80759216 8.83252242,7.83516418 L6.23198438,8.17447542 C6.02052574,8.20206598 5.78719964,8.3857142 5.71062682,8.58521006 L4.6091777,11.4548249 Z M9.99774998,7.662664 L12.0270954,10.303074 C12.1580331,10.4734389 12.4354723,10.5971942 12.6491425,10.5825718 L15.2480087,10.40472 C15.4630066,10.3900067 15.6984695,10.2174043 15.7768955,10.0189986 L16.7630189,7.52425934 C16.8420358,7.32435872 16.8056105,7.02258774 16.6829807,6.84689582 L14.9765674,4.40211598 C14.8525168,4.2243886 14.5823236,4.08823026 14.3699007,4.09345146 L11.4474869,4.16528232 C11.2359665,4.17048134 10.9972126,4.3353877 10.9162309,4.53356142 L9.9092174,6.9978648 C9.82795886,7.19671584 9.86787304,7.49367926 9.99774998,7.662664 Z M1.55186849,11.5421434 C1.6125167,11.7462938 1.83006201,11.8788635 2.04103572,11.8376075 L3.47455408,11.5572822 C3.68406548,11.5163122 3.91514566,11.3235565 3.99185394,11.1237077 L5.14112878,8.12949206 C5.2173142,7.93100554 5.21248908,7.60851364 5.13177108,7.41263108 L4.30841642,5.41455342 C4.22706288,5.21712856 3.98799042,5.07971586 3.77820504,5.10714046 L2.73848446,5.24306 C2.52701034,5.27070536 2.2918784,5.45220154 2.21231762,5.65090302 L0.916362104,8.88752594 C0.900872644,9.01532848 0.8880178,9.14394322 0.877853502,9.27331422 L1.55186849,11.5421434 Z M12.5480687,16.6633172 L10.7529064,15.3131746 C10.5834098,15.1856961 10.2723288,15.0939185 10.0591527,15.1089847 L6.7282469,15.3443966 C6.51332974,15.3595859 6.29010662,15.5361378 6.2257753,15.7390113 L5.90309096,16.7566196 C5.83888288,16.9591045 5.90673738,17.2487034 6.05492348,17.402589 L7.3683138,18.7664943 C8.20177454,19.0163431 9.08521102,19.1505792 10,19.1505792 C10.5968007,19.1505792 11.1802573,19.0934463 11.7451987,18.9843517 L12.6749186,17.2351621 C12.7741654,17.0484376 12.7180422,16.7911544 12.5480687,16.6633172 Z M14.0556358,16.6288675 C13.8855232,16.7577694 13.6664534,17.0149725 13.5657013,17.2045291 L12.7557817,18.7283247 C14.8244656,18.0758033 16.575748,16.7081658 17.7196572,14.9153842 L16.9106497,14.807658 C16.6985382,14.7794136 16.3887784,14.8609413 16.2185718,14.9899145 L14.0556358,16.6288675 Z M17.8803832,7.60527202 C17.6695633,7.57682712 17.4346818,7.7156229 17.3567049,7.9128923 L16.3141494,10.5503964 C16.2357498,10.7487353 16.2070193,11.080757 16.2490414,11.2873824 L16.7430803,13.7166008 C16.7855217,13.9252881 16.9923096,14.1174167 17.2034262,14.1455287 L17.7146175,14.2135981 C17.9264181,14.2418011 18.0981158,14.2646652 18.0981158,14.2646652 C18.7701399,12.9912029 19.1505792,11.5400296 19.1505792,10 C19.1505792,9.2195462 19.0528731,8.46191288 18.8690256,7.73866472 L17.8803832,7.60527202 Z M14.7463094,3.01969014 L14.9492757,2.30207268 C13.5224347,1.38280734 11.8235069,0.84942085 10,0.84942085 C9.44430622,0.84942085 8.9001816,0.898954264 8.37180056,0.993846648 L8.10580808,1.72781274 C8.0332706,1.92796894 8.1293762,2.16632746 8.32021218,2.26090162 L10.4471094,3.31494554 C10.6371279,3.40911458 10.9657473,3.48193254 11.1792754,3.47668418 L14.2544955,3.40109744 C14.468285,3.39584266 14.6882162,3.2250872 14.7463094,3.01969014 Z M2.64552858,4.55431784 C2.64552858,4.55431784 2.8168847,4.53191698 3.0282632,4.5042841 L4.17683554,4.35413472 C4.38971176,4.32630606 4.69855676,4.20206122 4.87000538,4.07618878 L6.80163874,2.65804168 C6.97120442,2.53355166 7.1709039,2.26779712 7.24347432,2.06754998 L7.56636702,1.17657632 C5.56988034,1.72600476 3.84661648,2.93490298 2.64552858,4.55431784 Z M4.28800234,17.2242029 C4.28800234,17.2242029 4.85512182,17.8352741 5.7489098,18.2123703 L5.36711842,17.7435295 C5.23259686,17.5783367 4.95446096,17.399857 4.74976322,17.3459061 L4.28800234,17.2242029 Z"></path>
                </g>
            </g>
        </g>
    </g>
</svg>