<?xml version="1.0" encoding="utf-8"?>
<!-- Generator: Adobe Illustrator 22.0.1, SVG Export Plug-In . SVG Version: 6.00 Build 0)  -->
<svg version="1.1" id="Layer_1" xmlns="http://www.w3.org/2000/svg" xmlns:xlink="http://www.w3.org/1999/xlink" x="0px" y="0px"
	 width="25px" height="25px" viewBox="0 0 25 25" style="enable-background:new 0 0 25 25;" xml:space="preserve">
<style type="text/css">
	.st0{fill:#FFFFFF;}
</style>
<title>Shape</title>
<desc>Created with Sketch.</desc>
<g id="Page-1">
	<path id="Shape" class="st0" d="M3.7,3.7c-4.9,4.9-4.9,12.8,0,17.7s12.8,4.9,17.7,0s4.9-12.8,0-17.7C16.5-1.2,8.5-1.2,3.7,3.7z
		 M19.4,19.4c-3.8,3.8-9.9,3.8-13.7,0c-3.8-3.8-3.8-9.9,0-13.7c3.8-3.8,9.9-3.8,13.7,0C23.1,9.4,23.1,15.6,19.4,19.4z M7,8v2h11V8H7
		z M7,12v2h11v-2H7z M7,16v2h11v-2H7z"/>
</g>
</svg>
