<?xml version="1.0" encoding="utf-8"?>
<!-- Generator: Adobe Illustrator 22.0.1, SVG Export Plug-In . SVG Version: 6.00 Build 0)  -->
<svg version="1.1" id="Layer_1" xmlns="http://www.w3.org/2000/svg" xmlns:xlink="http://www.w3.org/1999/xlink" x="0px" y="0px"
	 viewBox="0 0 885.6 199.7" style="enable-background:new 0 0 885.6 199.7;" xml:space="preserve">
<style type="text/css">
	.st0{clip-path:url(#SVGID_2_);}
	.st1{fill:#FFFFFF;}
</style>
<title>Pickles_Logo_Update_White</title>
<g>
	<defs>
		<rect id="SVGID_1_" y="0" width="885.6" height="199.6"/>
	</defs>
	<clipPath id="SVGID_2_">
		<use xlink:href="#SVGID_1_"  style="overflow:visible;"/>
	</clipPath>
	<g class="st0">
		<path class="st1" d="M120.3,84.2c0.5-0.6,0.7-1.3,0.7-2V39.8c0-0.7-0.3-1.4-0.7-2L92.1,0.9C91.6,0.4,91,0.1,90.3,0H1.1
			C0.5,0,0,0.5,0,1.1v197.4c0,0.6,0.5,1.1,1.1,1.1c0,0,0,0,0,0h38.8c0.6,0,1.1-0.4,1.2-1.1c0,0,0,0,0,0v-81.1c0-0.6,0.5-1.1,1.1-1.1
			c0,0,0,0,0,0h49.3c0.7,0,1.4-0.3,1.9-0.9L120.3,84.2z M81.7,58.2c0,11-8.2,20-18.4,20H40.5c-0.6,0-1.1-0.5-1.1-1.1c0,0,0,0,0,0
			V39.3c0-0.6,0.5-1.1,1.1-1.1c0,0,0,0,0,0h22.9C73.5,38.1,81.7,47.1,81.7,58.2"/>
		<path class="st1" d="M188.3,199.7c0.6,0,1.1-0.5,1.1-1.1c0,0,0,0,0,0V1.2c0-0.6-0.5-1.1-1.1-1.1c0,0,0,0,0,0h-38.8
			c-0.6,0-1.1,0.5-1.1,1.1c0,0,0,0,0,0v197.4c0,0.6,0.5,1.1,1.1,1.1c0,0,0,0,0,0L188.3,199.7L188.3,199.7z"/>
		<path class="st1" d="M338,124.7c0-0.6-0.5-1.1-1.1-1.1c0,0,0,0,0,0h-34.7c-0.6,0-1.1,0.5-1.1,1.1c0,0,0,0,0,0v10.2
			c0,11.9-10.6,22.4-23.6,22.4c-13,0-23.6-10.6-23.6-23.6V65c0-13,10.6-23.6,23.6-23.6c13,0,23.6,10.6,23.6,22.5v10.9
			c0,0.6,0.5,1.1,1.1,1.2c0,0,0,0,0,0h34.7c0.6,0,1.1-0.4,1.2-1.1c0,0,0,0,0,0V44c0-0.7-0.3-1.4-0.7-2L307.2,0.9
			c-0.4-0.5-1.1-0.9-1.8-0.9h-55.9c-0.7,0-1.4,0.4-1.8,0.9l-30.1,40.7c-0.4,0.6-0.6,1.3-0.7,2v109.6c0,0.7,0.3,1.4,0.7,2l31.3,43.4
			c0.4,0.6,1.1,0.9,1.8,0.9h53.6c0.7,0,1.4-0.4,1.8-0.9l31.2-42.2c0.4-0.6,0.6-1.3,0.7-2L338,124.7z"/>
		<path class="st1" d="M445.8,89.9c-0.3-0.6-0.3-1.4,0-2L489.2,1c0,0,0.5-1-0.6-1H445c-0.7,0-1.3,0.4-1.6,1l-36.5,73
			c0,0-0.5,1-0.5-0.1V1.2c0-0.6-0.5-1.1-1.1-1.1c0,0,0,0,0,0h-38.8c-0.6,0-1.1,0.5-1.1,1.1c0,0,0,0,0,0v197.4c0,0.6,0.5,1.1,1.1,1.1
			c0,0,0,0,0,0h38.8c0.6,0,1.1-0.5,1.1-1.1c0,0,0,0,0,0V168c0-0.7,0.2-1.5,0.5-2.1l14.4-28.9c0,0,0.5-1,1,0l28,61.6
			c0.3,0.6,0.9,1,1.6,1h42.8c0,0,1.1,0,0.7-1L445.8,89.9z"/>
		<path class="st1" d="M613.5,158.7c0.6,0,1.1,0.5,1.1,1.1c0,0,0,0,0,0v38.8c0,0.6-0.5,1.1-1.1,1.1c0,0,0,0,0,0H518
			c-0.6,0-1.1-0.5-1.1-1.1c0,0,0,0,0,0V1.2c0-0.6,0.5-1.1,1.1-1.1c0,0,0,0,0.1,0h38.8c0.6,0,1.1,0.5,1.1,1.1c0,0,0,0,0,0v156.4
			c0,0.6,0.5,1.1,1.1,1.1c0,0,0,0,0,0L613.5,158.7L613.5,158.7z"/>
		<path class="st1" d="M683,42.1c0-0.6,0.5-1.1,1.1-1.1H736c0.6,0,1.1-0.5,1.1-1.1V1.2c0-0.6-0.5-1.1-1.1-1.1c0,0,0,0,0,0h-92.8
			c-0.6,0-1.1,0.4-1.2,1v197.5c0,0.6,0.5,1.1,1.1,1.1c0,0,0,0,0,0H736c0.6,0,1.1-0.5,1.1-1.1c0,0,0,0,0,0v-38.8
			c0-0.6-0.5-1.1-1.1-1.1c0,0,0,0,0,0h-51.9c-0.6,0-1.1-0.5-1.1-1.1c0,0,0,0,0,0v-36.1c0-0.6,0.5-1.1,1.1-1.1c0,0,0,0,0,0h36.4
			c0.6,0,1.1-0.5,1.1-1.1c0,0,0,0,0,0V80.5c0-0.6-0.5-1.1-1.1-1.1c0,0,0,0,0,0h-36.4c-0.6,0-1.1-0.5-1.1-1.1c0,0,0,0,0,0V42.1z"/>
		<path class="st1" d="M885.6,118c0-0.7-0.4-1.4-1-1.7l-31.1-19.6l-40-25.2c-4.8-3-7.8-8.3-7.8-14.1c0-9.1,7.3-15.8,16.5-15.9h7.8
			c9.2,0,16.6,7.4,16.6,15.5v17.8c0,0.6,0.5,1.1,1.1,1.2c0,0,0,0,0,0h36.8c0.6,0,1.1-0.5,1.1-1.1c0,0,0,0,0,0V44
			c0-0.7-0.3-1.4-0.7-2L854.8,1c-0.4-0.6-1.1-0.9-1.8-0.9h-55.8c-0.7,0-1.4,0.4-1.8,0.9l-30.1,40.6c-0.4,0.6-0.6,1.3-0.7,2v38.1
			c0,0.7,0.4,1.4,1,1.7l71.1,44.9c4.8,3,7.8,8.3,7.8,14.1c0,9.1-7.4,15.8-16.5,15.8h-7.8c-9.2,0-16.6-7.4-16.6-15.5v-17.8
			c0-0.6-0.5-1.1-1.1-1.1c0,0,0,0,0,0h-36.8c-0.6,0-1.1,0.5-1.1,1.1c0,0,0,0,0,0v30.8c0,0.7,0.3,1.4,0.7,2.1l30.1,41
			c0.4,0.6,1.1,0.9,1.8,0.9H853c0.7,0,1.4-0.4,1.8-0.9l30.1-40.7c0.4-0.6,0.7-1.3,0.7-2.1V118z"/>
	</g>
</g>
</svg>
