<svg viewBox="0 0 885.61 199.68" xmlns="http://www.w3.org/2000/svg" xmlns:xlink="http://www.w3.org/1999/xlink"><clipPath id="a" transform="translate(0 .03)"><path d="m0 0h885.61v199.65h-885.61z"/></clipPath><g clip-path="url(#a)"><path d="m120.29 84.13a3.33 3.33 0 0 0 .74-2v-42.35a3.71 3.71 0 0 0 -.69-2l-28.25-36.9a2.47 2.47 0 0 0 -1.82-.88h-89.14a1.11 1.11 0 0 0 -1.13 1.07v197.45a1.11 1.11 0 0 0 1.09 1.13h38.75a1.11 1.11 0 0 0 1.16-1.06v-81.07a1.11 1.11 0 0 1 1.09-1.13h49.32a2.71 2.71 0 0 0 1.87-.86zm-38.58-26c0 11-8.23 20-18.38 20h-22.88a1.11 1.11 0 0 1 -1.13-1.13v-37.75a1.11 1.11 0 0 1 1.09-1.13h22.92c10.15 0 18.38 9 18.38 20" transform="translate(0 .03)"/><path d="m188.33 199.65a1.11 1.11 0 0 0 1.14-1.08v-197.44a1.11 1.11 0 0 0 -1.09-1.13h-38.76a1.11 1.11 0 0 0 -1.13 1.09v197.43a1.11 1.11 0 0 0 1.09 1.13z" transform="translate(0 .03)"/><path d="m338 124.64a1.11 1.11 0 0 0 -1.08-1.14h-34.74a1.12 1.12 0 0 0 -1.14 1.1v10.19c0 11.89-10.56 22.45-23.58 22.45a23.6 23.6 0 0 1 -23.59-23.58v-68.66a23.59 23.59 0 0 1 23.59-23.59c13 0 23.58 10.56 23.58 22.46v10.85a1.12 1.12 0 0 0 1.08 1.16h34.72a1.11 1.11 0 0 0 1.16-1.06v-30.82a3.86 3.86 0 0 0 -.67-2l-30.11-41.12a2.44 2.44 0 0 0 -1.8-.91h-55.87a2.44 2.44 0 0 0 -1.81.91l-30.12 40.74a3.78 3.78 0 0 0 -.68 2v109.62a3.87 3.87 0 0 0 .66 2l31.28 43.44a2.35 2.35 0 0 0 1.8.92h53.56a2.44 2.44 0 0 0 1.81-.91l31.25-42.21a4 4 0 0 0 .67-2z" transform="translate(0 .03)"/><path d="m445.79 89.88a2.57 2.57 0 0 1 0-2l43.41-86.88s.51-1-.63-1h-43.57a1.93 1.93 0 0 0 -1.63 1l-36.46 73s-.51 1-.51-.11v-72.76a1.11 1.11 0 0 0 -1.09-1.13h-38.75a1.11 1.11 0 0 0 -1.13 1.09v197.43a1.11 1.11 0 0 0 1.09 1.13h38.75a1.11 1.11 0 0 0 1.14-1.08v-30.57a5.34 5.34 0 0 1 .51-2.15l14.36-28.85s.51-1 1 0l28 61.58a1.85 1.85 0 0 0 1.6 1h42.77s1.14 0 .67-1z" transform="translate(0 .03)"/><path d="m613.45 158.67a1.11 1.11 0 0 1 1.13 1.09v38.76a1.11 1.11 0 0 1 -1.09 1.13h-95.49a1.11 1.11 0 0 1 -1.14-1.08v-197.44a1.11 1.11 0 0 1 1.14-1.13h38.76a1.11 1.11 0 0 1 1.13 1.09v156.45a1.12 1.12 0 0 0 1.1 1.14h54.51z" transform="translate(0 .03)"/><path d="m683 42.11a1.11 1.11 0 0 1 1.08-1.11h51.92a1.12 1.12 0 0 0 1.12-1.09v-38.78a1.11 1.11 0 0 0 -1.12-1.13h-92.83a1.12 1.12 0 0 0 -1.17 1.05v197.47a1.11 1.11 0 0 0 1.09 1.13h92.91a1.11 1.11 0 0 0 1.14-1.08v-38.76a1.12 1.12 0 0 0 -1.1-1.14h-51.89a1.11 1.11 0 0 1 -1.13-1.09v-36.13a1.11 1.11 0 0 1 1.08-1.14h36.38a1.11 1.11 0 0 0 1.13-1.09v-38.75a1.11 1.11 0 0 0 -1.08-1.14h-36.38a1.11 1.11 0 0 1 -1.15-1.07z" transform="translate(0 .03)"/><path d="m885.61 118a2.2 2.2 0 0 0 -1-1.74l-31.06-19.64-40-25.25a16.6 16.6 0 0 1 -7.77-14.06c0-9.11 7.35-15.77 16.45-15.86h7.77c9.17 0 16.6 7.43 16.6 15.46v17.81a1.12 1.12 0 0 0 1.08 1.16h36.79a1.12 1.12 0 0 0 1.14-1.1v-30.78a3.77 3.77 0 0 0 -.67-2l-30.1-41a2.44 2.44 0 0 0 -1.84-.91h-55.8a2.44 2.44 0 0 0 -1.81.91l-30.14 40.56a3.77 3.77 0 0 0 -.67 2v38.13a2.16 2.16 0 0 0 1 1.74l71.11 44.87a16.6 16.6 0 0 1 7.77 14.06c0 9.11-7.38 15.75-16.48 15.83h-7.79c-9.17 0-16.6-7.43-16.6-15.47v-17.8a1.12 1.12 0 0 0 -1.1-1.14h-36.78a1.11 1.11 0 0 0 -1.13 1.09v30.76a3.88 3.88 0 0 0 .67 2.05l30.09 41a2.44 2.44 0 0 0 1.81.91h55.85a2.44 2.44 0 0 0 1.81-.91l30.12-40.68a3.86 3.86 0 0 0 .68-2.05z" transform="translate(0 .03)"/></g></svg>