<?xml version="1.0" encoding="UTF-8"?>
<svg width="20px" height="20px" viewBox="0 0 20 20" version="1.1" xmlns="http://www.w3.org/2000/svg" xmlns:xlink="http://www.w3.org/1999/xlink">
    <!-- Generator: Sketch 47 (45396) - http://www.bohemiancoding.com/sketch -->
    <title>Shape</title>
    <desc>Created with Sketch.</desc>
    <defs></defs>
    <g id="Page-1" stroke="none" stroke-width="1" fill="none" fill-rule="evenodd">
        <g id="stories_show" transform="translate(-1291.000000, -19.000000)" fill-rule="nonzero" fill="#000000">
            <path d="M1310.63365,36.8663896 L1305.68174,31.9076008 C1306.663,30.5650904 1307.24863,28.9150775 1307.24863,27.1250635 C1307.24863,22.6375284 1303.61172,19 1299.12419,19 C1294.63728,19 1290.99975,22.6375284 1290.99975,27.1250635 C1290.99975,31.6125985 1294.63728,35.250127 1299.12419,35.250127 C1300.91858,35.250127 1302.57109,34.6619974 1303.91548,33.6763647 L1308.86551,38.6339034 C1309.35364,39.1220322 1310.1449,39.1220322 1310.63303,38.6339034 C1311.12116,38.1457746 1311.12178,37.3545184 1310.63365,36.8663896 Z M1293.49977,27.1250635 C1293.49977,24.0181642 1296.01791,21.5000195 1299.12419,21.5000195 C1302.23109,21.5000195 1304.74923,24.0181642 1304.74923,27.1250635 C1304.74923,30.2319627 1302.23109,32.7501074 1299.12419,32.7501074 C1296.01791,32.7501074 1293.49977,30.2319627 1293.49977,27.1250635 Z" id="Shape"></path>
        </g>
    </g>
</svg>