<?xml version="1.0" encoding="utf-8"?>
<!-- Generator: Adobe Illustrator 16.0.0, SVG Export Plug-In . SVG Version: 6.00 Build 0)  -->
<!DOCTYPE svg PUBLIC "-//W3C//DTD SVG 1.1//EN" "http://www.w3.org/Graphics/SVG/1.1/DTD/svg11.dtd">
<svg version="1.1" id="Layer_1" xmlns="http://www.w3.org/2000/svg" xmlns:xlink="http://www.w3.org/1999/xlink" x="0px" y="0px"
	 width="3409.16px" height="1948.08px" viewBox="0 0 3409.16 1948.08" enable-background="new 0 0 3409.16 1948.08"
	 xml:space="preserve">
<rect y="-0.003" fill="#FFFFFF" width="3409.161" height="1704.557"/>
<polygon fill="#D32027" points="0.002,-0.004 121.757,243.506 243.512,-0.004 "/>
<polygon fill="#0F8853" points="730.534,-0.004 852.289,243.506 974.043,-0.004 "/>
<polygon fill="#D32027" points="487.022,-0.003 608.777,243.507 730.532,-0.003 "/>
<polygon points="551.816,129.584 608.778,243.507 665.739,129.584 "/>
<polygon fill="#FFFFFF" points="243.512,-0.003 365.267,243.507 487.022,-0.003 "/>
<path fill="#A0CEE8" d="M328.241,169.457l37.026,74.05l37.024-74.05H328.241z M285.876,84.727l21.183,42.365h116.415l21.183-42.365
	H285.876z M243.511-0.003l21.182,42.365h201.146l21.182-42.365H243.511z"/>
<polygon fill="#D32027" points="974.044,-0.003 1095.799,243.507 1217.554,-0.003 "/>
<polygon fill="#0F8853" points="1038.837,129.584 1095.799,243.507 1152.76,129.584 "/>
<polygon fill="#FDD118" points="1217.554,-0.003 1339.309,243.507 1461.064,-0.003 "/>
<polygon fill="#D32027" points="1339.309,-0.003 1339.309,243.507 1461.065,-0.003 "/>
<polygon fill="#0F8853" points="1461.068,-0.004 1582.824,243.506 1704.578,-0.004 "/>
<g>
	<defs>
		<rect id="SVGID_1_" y="-0.004" width="3409.161" height="1948.084"/>
	</defs>
	<clipPath id="SVGID_2_">
		<use xlink:href="#SVGID_1_"  overflow="visible"/>
	</clipPath>
	<path clip-path="url(#SVGID_2_)" fill="#FFFFFF" d="M1636.98,135.192l67.598-135.196h-243.51l67.597,135.196
		c16.711-6.823,34.993-10.593,54.158-10.593S1620.269,128.369,1636.98,135.192"/>
	<path clip-path="url(#SVGID_2_)" fill="#0F8853" d="M1646.397,116.358l58.181-116.362h-243.51l58.181,116.362
		c19.557-8.21,41.034-12.751,63.574-12.751C1605.362,103.607,1626.84,108.148,1646.397,116.358"/>
</g>
<polygon fill="#D32027" points="1948.086,-0.003 2069.842,243.507 2191.596,-0.003 "/>
<g>
	<defs>
		<rect id="SVGID_3_" y="-0.004" width="3409.161" height="1948.084"/>
	</defs>
	<clipPath id="SVGID_4_">
		<use xlink:href="#SVGID_3_"  overflow="visible"/>
	</clipPath>
	<path clip-path="url(#SVGID_4_)" fill="#FFFFFF" d="M2123.998,135.192l67.598-135.196h-243.51l67.598,135.196
		c16.711-6.823,34.992-10.593,54.157-10.593S2107.287,128.369,2123.998,135.192"/>
	<path clip-path="url(#SVGID_4_)" fill="#252563" d="M2133.415,116.359l58.181-116.362h-243.51l58.181,116.362
		c19.558-8.21,41.035-12.751,63.574-12.751C2092.381,103.608,2113.857,108.149,2133.415,116.359"/>
</g>
<polygon fill="#D32027" points="2435.106,-0.004 2556.862,243.506 2678.616,-0.004 "/>
<polygon fill="#FFFFFF" points="2597.447,162.336 2638.032,81.167 2475.692,81.167 2516.277,162.336 "/>
<polygon fill="#D32027" points="2516.277,162.336 2556.862,243.506 2597.447,162.336 "/>
<polygon fill="#D32027" points="2678.619,-0.003 2800.373,243.507 2922.129,-0.003 "/>
<g>
	<defs>
		<rect id="SVGID_5_" y="-0.004" width="3409.161" height="1948.084"/>
	</defs>
	<clipPath id="SVGID_6_">
		<use xlink:href="#SVGID_5_"  overflow="visible"/>
	</clipPath>
	<path clip-path="url(#SVGID_6_)" fill="#FFFFFF" d="M2854.53,135.192l67.598-135.196h-243.51l67.598,135.196
		c16.71-6.823,34.992-10.593,54.157-10.593S2837.819,128.369,2854.53,135.192"/>
	<path clip-path="url(#SVGID_6_)" fill="#D32027" d="M2863.947,116.359l58.181-116.362h-243.51l58.181,116.362
		c19.557-8.21,41.034-12.751,63.574-12.751S2844.39,108.149,2863.947,116.359"/>
</g>
<polygon fill="#D32027" points="487.022,243.506 608.777,487.017 730.532,243.506 "/>
<g>
	<defs>
		<rect id="SVGID_7_" y="-0.004" width="3409.161" height="1948.084"/>
	</defs>
	<clipPath id="SVGID_8_">
		<use xlink:href="#SVGID_7_"  overflow="visible"/>
	</clipPath>
	<path clip-path="url(#SVGID_8_)" fill="#FFFFFF" d="M609.964,366.686c20.448,0,37.025-16.577,37.025-37.025
		s-16.577-37.025-37.025-37.025c-20.448,0-37.025,16.577-37.025,37.025S589.516,366.686,609.964,366.686"/>
</g>
<polygon fill="#D32027" points="3165.643,-0.004 3287.397,243.506 3409.152,-0.004 "/>
<polygon fill="#FFFFFF" points="3327.982,162.336 3368.568,81.167 3206.228,81.167 3246.812,162.336 "/>
<polygon fill="#252563" points="3246.812,162.336 3287.398,243.506 3327.982,162.336 "/>
<polygon fill="#FFFFFF" points="1217.557,243.506 1339.312,487.017 1461.067,243.506 "/>
<polygon fill="#D32027" points="1298.908,243.506 1217.557,243.506 1339.312,487.017 1461.067,243.506 1379.71,243.506 
	1339.309,324.309 "/>
<polygon fill="#FFFFFF" points="1704.582,243.507 1826.336,487.017 1948.092,243.507 "/>
<polygon fill="#FFFFFF" points="1704.579,243.507 1826.334,487.017 1948.089,243.507 "/>
<polygon fill="#0F8853" points="1785.93,243.507 1704.579,243.507 1826.334,487.017 1948.089,243.507 1866.731,243.507 
	1826.33,324.309 "/>
<polygon points="1461.067,243.507 1582.822,487.017 1704.577,243.507 "/>
<polygon fill="#D32027" points="1623.408,405.847 1663.993,324.677 1501.653,324.677 1542.238,405.847 "/>
<polygon fill="#FDD118" points="1542.238,405.847 1582.823,487.017 1623.408,405.847 "/>
<polygon fill="#FDD118" points="1948.092,243.507 2069.847,487.017 2191.602,243.507 "/>
<path fill="#252563" d="M2090.924,369.604v75.262l37.629-75.262H2090.924z M2011.142,369.604l37.63,75.26v-75.26H2011.142z
	 M2048.771,327.454v-83.947h-100.68l41.975,83.947H2048.771z M2149.629,327.454l41.974-83.947h-100.679v83.947H2149.629z"/>
<polygon fill="#D32027" points="2191.6,243.507 2313.354,487.017 2435.109,243.507 "/>
<g>
	<defs>
		<rect id="SVGID_9_" y="-0.004" width="3409.161" height="1948.084"/>
	</defs>
	<clipPath id="SVGID_10_">
		<use xlink:href="#SVGID_9_"  overflow="visible"/>
	</clipPath>
	<path clip-path="url(#SVGID_10_)" fill="#252563" d="M2314.541,366.686c20.448,0,37.025-16.577,37.025-37.025
		s-16.577-37.025-37.025-37.025c-20.447,0-37.024,16.577-37.024,37.025S2294.094,366.686,2314.541,366.686"/>
</g>
<polygon points="2435.11,243.507 2556.865,487.017 2678.62,243.507 "/>
<polygon fill="#D32027" points="2678.621,243.507 2435.111,243.507 2475.347,323.979 2638.385,323.979 "/>
<path fill="#FDD118" d="M2556.869,323.972l40.76,81.519l80.992-161.984h-81.52L2556.869,323.972z M2516.63,243.507h-81.52
	l80.992,161.984l40.76-81.519L2516.63,243.507z"/>
<polygon fill="#D32027" points="2678.621,243.507 2800.376,487.017 2922.131,243.507 "/>
<polygon fill="#252563" points="2743.414,373.094 2800.375,487.018 2857.338,373.094 "/>
<polygon fill="#D32027" points="3165.643,243.506 3287.397,487.016 3409.152,243.506 "/>
<polygon fill="#FFFFFF" points="3314.473,346.788 3314.473,292.636 3260.321,292.636 3260.321,346.788 3287.396,366.686 "/>
<polygon fill="#D32027" points="2922.133,243.507 3043.887,487.017 3165.643,243.507 "/>
<polygon fill="#FDD118" points="2191.596,-0.003 2313.352,243.507 2435.105,-0.003 "/>
<polygon fill="#0F8853" points="2256.391,129.584 2313.352,243.507 2370.312,129.584 "/>
<polygon fill="#D32027" points="243.511,243.507 365.267,487.017 487.021,243.507 "/>
<path fill="#252563" d="M386.343,369.604v75.262l37.63-75.262H386.343z M306.561,369.604l37.63,75.26v-75.26H306.561z
	 M344.191,327.454v-83.947H243.512l41.973,83.947H344.191z M445.049,327.454l41.973-83.947H386.343v83.947H445.049z"/>
<polygon fill="#FFFFFF" points="2922.132,-0.004 3043.888,243.506 3165.643,-0.004 "/>
<path fill="#A0CEE8" d="M2922.129-0.004l48.701,97.403V-0.004H2922.129z M3019.531-0.004v194.805l24.354,48.705l24.347-48.697
	V-0.004H3019.531z M3116.934-0.004v97.411l48.705-97.411H3116.934z"/>
<polygon fill="#0F8853" points="0,243.506 121.756,487.016 243.51,243.506 "/>
<polygon fill="#FFFFFF" points="162.34,405.847 202.925,324.677 40.585,324.677 81.17,405.847 "/>
<polygon fill="#0F8853" points="81.17,405.847 121.755,487.017 162.34,405.847 "/>
<polygon fill="#FDD118" points="730.533,243.507 852.288,487.017 974.043,243.507 "/>
<polygon fill="#0F8853" points="879.364,346.788 879.364,292.636 825.212,292.636 825.212,346.788 852.287,366.686 "/>
<polygon fill="#FFFFFF" points="974.046,243.507 1095.802,487.017 1217.557,243.507 "/>
<polygon fill="#252563" points="974.043,243.507 1095.798,487.017 1217.554,243.507 "/>
<polygon fill="#D32027" points="1055.395,243.507 974.043,243.507 1095.799,487.017 1217.554,243.507 1136.197,243.507 
	1095.796,324.309 "/>
<polygon fill="#FFFFFD" points="0.001,487.018 121.757,730.527 243.511,487.018 "/>
<g>
	<defs>
		<rect id="SVGID_11_" y="-0.004" width="3409.161" height="1948.084"/>
	</defs>
	<clipPath id="SVGID_12_">
		<use xlink:href="#SVGID_11_"  overflow="visible"/>
	</clipPath>
	<path clip-path="url(#SVGID_12_)" fill="none" stroke="#D32027" stroke-width="38.18" d="M30.89,506.107
		c30.288,60.575,60.579,121.158,90.866,181.733c30.288-60.575,60.579-121.158,90.867-181.733H30.89z"/>
</g>
<polygon fill="#252563" points="243.511,487.017 365.267,730.527 487.021,487.017 "/>
<polygon fill="#D32027" points="487.022,487.017 243.512,487.017 283.748,567.489 446.786,567.489 "/>
<path fill="#FDD118" d="M365.271,567.482l40.759,81.519l80.992-161.984h-81.519L365.271,567.482z M325.031,487.017h-81.519
	l80.992,161.984l40.76-81.519L325.031,487.017z"/>
<polygon fill="#0F8853" points="487.022,487.017 608.777,730.527 730.532,487.017 "/>
<polygon fill="#FDD118" points="649.362,649.357 689.947,568.188 527.607,568.188 568.192,649.357 "/>
<polygon fill="#D32027" points="568.192,649.357 608.777,730.527 649.362,649.357 "/>
<polygon fill="#252563" points="730.533,487.017 852.288,730.527 974.042,487.017 "/>
<g>
	<defs>
		<rect id="SVGID_13_" y="-0.004" width="3409.161" height="1948.084"/>
	</defs>
	<clipPath id="SVGID_14_">
		<use xlink:href="#SVGID_13_"  overflow="visible"/>
	</clipPath>
	<path clip-path="url(#SVGID_14_)" fill="#D32027" d="M852.292,610.196c20.448,0,37.025-16.577,37.025-37.025
		s-16.577-37.025-37.025-37.025c-20.448,0-37.025,16.577-37.025,37.025S831.844,610.196,852.292,610.196"/>
</g>
<polygon fill="#D32027" points="1704.575,-0.003 1826.331,243.507 1948.085,-0.003 "/>
<polygon fill="#0F8853" points="1853.405,103.277 1853.405,49.125 1799.254,49.125 1799.254,103.277 1826.328,123.175 "/>
<polygon fill="#D32027" points="974.043,487.017 1095.798,730.527 1217.553,487.017 "/>
<polygon fill="#0F8853" points="1704.575,487.017 1826.33,730.527 1948.085,487.017 "/>
<polygon fill="#D32027" points="1461.064,487.017 1582.819,730.527 1704.574,487.017 "/>
<polygon points="1525.858,616.604 1582.82,730.527 1639.781,616.604 "/>
<polygon fill="#FFFFFF" points="1217.554,487.017 1339.309,730.527 1461.063,487.017 "/>
<path fill="#A0CEE8" d="M1302.283,656.478l37.025,74.05l37.025-74.05H1302.283z M1281.101,614.112h116.415l21.182-42.365h-158.78
	L1281.101,614.112z M1439.881,529.382l21.182-42.365h-243.51l21.183,42.365H1439.881z"/>
<polygon fill="#D32027" points="1948.085,487.017 2069.84,730.527 2191.595,487.017 "/>
<polygon fill="#0F8853" points="2012.879,616.604 2069.84,730.527 2126.802,616.604 "/>
<polygon fill="#FDD118" points="2191.596,487.017 2313.351,730.527 2435.105,487.017 "/>
<polygon fill="#D32027" points="2435.105,487.017 2313.351,487.017 2313.351,730.527 "/>
<polygon fill="#0F8853" points="2435.109,487.017 2556.865,730.527 2678.619,487.017 "/>
<g>
	<defs>
		<rect id="SVGID_15_" y="-0.004" width="3409.161" height="1948.084"/>
	</defs>
	<clipPath id="SVGID_16_">
		<use xlink:href="#SVGID_15_"  overflow="visible"/>
	</clipPath>
	<path clip-path="url(#SVGID_16_)" fill="#FFFFFF" d="M2611.021,622.213l67.598-135.196h-243.51l67.598,135.196
		c16.711-6.823,34.992-10.593,54.157-10.593S2594.311,615.39,2611.021,622.213"/>
	<path clip-path="url(#SVGID_16_)" fill="#0F8853" d="M2620.438,603.379l58.181-116.362h-243.51l58.181,116.362
		c19.558-8.21,41.035-12.751,63.574-12.751C2579.404,590.628,2600.881,595.169,2620.438,603.379"/>
</g>
<polygon fill="#D32027" points="2922.128,487.017 3043.883,730.527 3165.638,487.017 "/>
<g>
	<defs>
		<rect id="SVGID_17_" y="-0.004" width="3409.161" height="1948.084"/>
	</defs>
	<clipPath id="SVGID_18_">
		<use xlink:href="#SVGID_17_"  overflow="visible"/>
	</clipPath>
	<path clip-path="url(#SVGID_18_)" fill="#FFFFFF" d="M3098.039,622.213l67.599-135.196h-243.511l67.599,135.196
		c16.71-6.823,34.992-10.593,54.157-10.593C3063.047,611.62,3081.328,615.39,3098.039,622.213"/>
	<path clip-path="url(#SVGID_18_)" fill="#252563" d="M3107.456,603.379l58.181-116.362h-243.51l58.182,116.362
		c19.557-8.21,41.033-12.751,63.573-12.751S3087.899,595.169,3107.456,603.379"/>
</g>
<polygon fill="#FDD118" points="3165.639,487.018 3287.394,730.527 3409.148,487.018 "/>
<polygon fill="#0F8853" points="3230.432,616.604 3287.393,730.527 3344.354,616.604 "/>
<polygon fill="#D32027" points="2678.617,487.017 2800.371,730.527 2922.127,487.017 "/>
<polygon fill="#0F8853" points="2827.447,590.298 2827.447,536.146 2773.295,536.146 2773.295,590.298 2800.37,610.196 "/>
<polygon fill="#D32027" points="0.001,730.528 121.757,974.038 243.511,730.528 "/>
<polygon fill="#FFFFFF" points="162.341,892.868 202.926,811.698 40.586,811.698 81.171,892.868 "/>
<polygon fill="#D32027" points="81.171,892.868 121.756,974.038 162.341,892.868 "/>
<polygon fill="#D32027" points="243.512,730.528 365.267,974.038 487.021,730.528 "/>
<g>
	<defs>
		<rect id="SVGID_19_" y="-0.004" width="3409.161" height="1948.084"/>
	</defs>
	<clipPath id="SVGID_20_">
		<use xlink:href="#SVGID_19_"  overflow="visible"/>
	</clipPath>
	<path clip-path="url(#SVGID_20_)" fill="#FFFFFF" d="M419.424,865.724l67.598-135.196h-243.51l67.597,135.196
		c16.711-6.823,34.993-10.593,54.158-10.593S402.712,858.9,419.424,865.724"/>
	<path clip-path="url(#SVGID_20_)" fill="#D32027" d="M428.84,846.89l58.181-116.362h-243.51l58.181,116.362
		c19.557-8.21,41.034-12.751,63.574-12.751C387.805,834.139,409.283,838.68,428.84,846.89"/>
</g>
<polygon fill="#D32027" points="730.536,730.528 852.291,974.038 974.046,730.528 "/>
<polygon fill="#FFFFFF" points="892.876,892.868 933.461,811.698 771.121,811.698 811.706,892.868 "/>
<polygon fill="#252563" points="811.706,892.868 852.291,974.038 892.876,892.868 "/>
<polygon fill="#FFFFFF" points="487.026,730.528 608.781,974.038 730.536,730.528 "/>
<path fill="#A0CEE8" d="M681.827,827.939l48.706-97.411h-48.706V827.939z M487.022,730.528l48.701,97.402v-97.402H487.022z
	 M633.126,730.528h-48.701v194.805l24.352,48.705l24.349-48.697V730.528z"/>
<polygon fill="#D32027" points="1461.069,730.528 1582.824,974.038 1704.579,730.528 "/>
<g>
	<defs>
		<rect id="SVGID_21_" y="-0.004" width="3409.161" height="1948.084"/>
	</defs>
	<clipPath id="SVGID_22_">
		<use xlink:href="#SVGID_21_"  overflow="visible"/>
	</clipPath>
	<path clip-path="url(#SVGID_22_)" fill="#FFFFFF" d="M1584.011,853.707c20.448,0,37.025-16.577,37.025-37.025
		s-16.577-37.025-37.025-37.025c-20.448,0-37.025,16.577-37.025,37.025S1563.562,853.707,1584.011,853.707"/>
</g>
<polygon fill="#FFFFFF" points="2191.604,730.528 2313.359,974.038 2435.113,730.528 "/>
<polygon fill="#D32027" points="2272.955,730.528 2191.604,730.528 2313.359,974.038 2435.114,730.528 2353.757,730.528 
	2313.355,811.33 "/>
<polygon fill="#FFFFFF" points="2678.629,730.528 2800.384,974.038 2922.139,730.528 "/>
<polygon fill="#FFFFFF" points="2678.626,730.528 2800.381,974.038 2922.136,730.528 "/>
<polygon fill="#0F8853" points="2759.977,730.528 2678.625,730.528 2800.381,974.038 2922.136,730.528 2840.778,730.528 
	2800.377,811.33 "/>
<polygon points="2435.114,730.528 2556.869,974.038 2678.624,730.528 "/>
<polygon fill="#D32027" points="2597.455,892.868 2638.039,811.698 2475.699,811.698 2516.284,892.868 "/>
<polygon fill="#FDD118" points="2516.285,892.868 2556.869,974.038 2597.455,892.868 "/>
<polygon fill="#FDD118" points="2922.139,730.528 3043.895,974.038 3165.648,730.528 "/>
<path fill="#252563" d="M3064.971,856.625v75.262l37.63-75.262H3064.971z M2985.188,856.625l37.63,75.26v-75.26H2985.188z
	 M3022.818,814.475v-83.947H2922.14l41.974,83.947H3022.818z M3123.677,814.475l41.973-83.947h-100.679v83.947H3123.677z"/>
<polygon fill="#D32027" points="3165.646,730.528 3287.402,974.038 3409.156,730.528 "/>
<g>
	<defs>
		<rect id="SVGID_23_" y="-0.004" width="3409.161" height="1948.084"/>
	</defs>
	<clipPath id="SVGID_24_">
		<use xlink:href="#SVGID_23_"  overflow="visible"/>
	</clipPath>
	<path clip-path="url(#SVGID_24_)" fill="#252563" d="M3288.588,853.707c20.448,0,37.025-16.577,37.025-37.025
		s-16.577-37.025-37.025-37.025c-20.447,0-37.024,16.577-37.024,37.025S3268.141,853.707,3288.588,853.707"/>
</g>
<polygon fill="#D32027" points="1217.559,730.528 1339.313,974.038 1461.068,730.528 "/>
<path fill="#252563" d="M1360.39,856.625v75.262l37.63-75.262H1360.39z M1280.607,856.625l37.63,75.26v-75.26H1280.607z
	 M1318.238,814.475v-83.947h-100.679l41.974,83.947H1318.238z M1419.096,814.475l41.974-83.947h-100.68v83.947H1419.096z"/>
<polygon fill="#0F8853" points="974.047,730.528 1095.802,974.038 1217.557,730.528 "/>
<polygon fill="#FFFFFF" points="1136.387,892.868 1176.972,811.698 1014.632,811.698 1055.217,892.868 "/>
<polygon fill="#0F8853" points="1055.217,892.868 1095.802,974.038 1136.387,892.868 "/>
<polygon fill="#FDD118" points="1704.581,730.528 1826.336,974.038 1948.091,730.528 "/>
<polygon fill="#0F8853" points="1853.411,833.809 1853.411,779.657 1799.259,779.657 1799.259,833.809 1826.334,853.707 "/>
<polygon fill="#FFFFFF" points="1948.094,730.528 2069.849,974.038 2191.604,730.528 "/>
<polygon fill="#252563" points="1948.091,730.528 2069.846,974.038 2191.601,730.528 "/>
<polygon fill="#D32027" points="2029.441,730.528 1948.091,730.528 2069.846,974.038 2191.601,730.528 2110.243,730.528 
	2069.843,811.33 "/>
<polygon points="0.001,974.038 121.757,1217.548 243.511,974.038 "/>
<polygon fill="#D32027" points="0.002,974.038 40.238,1054.511 203.276,1054.511 243.512,974.038 "/>
<path fill="#FDD118" d="M0.002,974.038l80.992,161.983l40.759-81.519L81.52,974.038H0.002z M161.993,974.038l-40.233,80.465
	l40.76,81.519l80.992-161.983H161.993z"/>
<polygon fill="#D32027" points="243.512,974.038 365.267,1217.548 487.022,974.038 "/>
<polygon fill="#252563" points="308.306,1103.625 365.268,1217.549 422.229,1103.625 "/>
<polygon fill="#D32027" points="730.537,974.038 852.292,1217.548 974.046,974.038 "/>
<polygon fill="#FFFFFF" points="879.367,1077.319 879.367,1023.167 825.215,1023.167 825.215,1077.319 852.291,1097.217 "/>
<polygon fill="#D32027" points="487.022,974.038 608.777,1217.548 730.532,974.038 "/>
<polygon fill="#FFFFFD" points="974.047,974.038 1095.802,1217.548 1217.557,974.038 "/>
<g>
	<defs>
		<rect id="SVGID_25_" y="-0.004" width="3409.161" height="1948.084"/>
	</defs>
	<clipPath id="SVGID_26_">
		<use xlink:href="#SVGID_25_"  overflow="visible"/>
	</clipPath>
	<path clip-path="url(#SVGID_26_)" fill="none" stroke="#D32027" stroke-width="38.18" d="M1004.936,993.128
		c30.288,60.575,60.579,121.158,90.866,181.733c30.288-60.575,60.579-121.158,90.867-181.733H1004.936z"/>
</g>
<polygon fill="#252563" points="1217.558,974.038 1339.312,1217.548 1461.067,974.038 "/>
<polygon fill="#D32027" points="1461.068,974.038 1217.559,974.038 1257.794,1054.51 1420.833,1054.51 "/>
<path fill="#FDD118" d="M1339.317,1054.503l40.759,81.52l80.992-161.984h-81.518L1339.317,1054.503z M1299.077,974.038h-81.519
	l80.992,161.984l40.76-81.52L1299.077,974.038z"/>
<polygon fill="#0F8853" points="1461.068,974.038 1582.823,1217.548 1704.578,974.038 "/>
<polygon fill="#FDD118" points="1623.409,1136.378 1663.994,1055.208 1501.654,1055.208 1542.239,1136.378 "/>
<polygon fill="#D32027" points="1542.239,1136.378 1582.824,1217.549 1623.409,1136.378 "/>
<polygon fill="#252563" points="1704.579,974.039 1826.334,1217.549 1948.089,974.039 "/>
<g>
	<defs>
		<rect id="SVGID_27_" y="-0.004" width="3409.161" height="1948.084"/>
	</defs>
	<clipPath id="SVGID_28_">
		<use xlink:href="#SVGID_27_"  overflow="visible"/>
	</clipPath>
	<path clip-path="url(#SVGID_28_)" fill="#D32027" d="M1826.339,1097.218c20.447,0,37.024-16.577,37.024-37.025
		c0-20.447-16.577-37.024-37.024-37.024c-20.448,0-37.025,16.577-37.025,37.024
		C1789.313,1080.641,1805.891,1097.218,1826.339,1097.218"/>
</g>
<polygon fill="#D32027" points="1948.09,974.038 2069.844,1217.548 2191.6,974.038 "/>
<polygon fill="#0F8853" points="2678.621,974.038 2800.376,1217.548 2922.131,974.038 "/>
<polygon fill="#D32027" points="2435.11,974.039 2556.865,1217.549 2678.62,974.039 "/>
<polygon points="2499.904,1103.626 2556.865,1217.549 2613.826,1103.626 "/>
<polygon fill="#FFFFFF" points="2191.6,974.039 2313.354,1217.549 2435.109,974.039 "/>
<path fill="#A0CEE8" d="M2276.329,1143.499l37.024,74.05l37.025-74.05H2276.329z M2255.146,1101.133h116.415l21.183-42.364h-158.78
	L2255.146,1101.133z M2413.927,1016.403l21.183-42.365h-243.511l21.184,42.365H2413.927z"/>
<polygon fill="#D32027" points="2922.132,974.039 3043.887,1217.549 3165.642,974.039 "/>
<polygon fill="#0F8853" points="2986.925,1103.626 3043.886,1217.549 3100.848,1103.626 "/>
<polygon fill="#FDD118" points="3165.642,974.038 3287.396,1217.548 3409.151,974.038 "/>
<polygon fill="#D32027" points="3287.396,974.038 3287.396,1217.548 3409.152,974.038 "/>
<polygon fill="#0F8853" points="0.002,1217.549 121.757,1461.06 243.512,1217.549 "/>
<g>
	<defs>
		<rect id="SVGID_29_" y="-0.004" width="3409.161" height="1948.084"/>
	</defs>
	<clipPath id="SVGID_30_">
		<use xlink:href="#SVGID_29_"  overflow="visible"/>
	</clipPath>
	<path clip-path="url(#SVGID_30_)" fill="#FFFFFF" d="M175.914,1352.745l67.598-135.196H0.002l67.597,135.196
		c16.711-6.823,34.993-10.594,54.158-10.594S159.203,1345.922,175.914,1352.745"/>
	<path clip-path="url(#SVGID_30_)" fill="#0F8853" d="M185.331,1333.911l58.181-116.362H0.001l58.181,116.362
		c19.557-8.21,41.034-12.751,63.574-12.751C144.295,1321.16,165.773,1325.701,185.331,1333.911"/>
</g>
<polygon fill="#D32027" points="487.023,1217.549 608.778,1461.059 730.533,1217.549 "/>
<g>
	<defs>
		<rect id="SVGID_31_" y="-0.004" width="3409.161" height="1948.084"/>
	</defs>
	<clipPath id="SVGID_32_">
		<use xlink:href="#SVGID_31_"  overflow="visible"/>
	</clipPath>
	<path clip-path="url(#SVGID_32_)" fill="#FFFFFF" d="M662.936,1352.745l67.598-135.196h-243.51l67.598,135.196
		c16.71-6.823,34.992-10.594,54.157-10.594S646.225,1345.922,662.936,1352.745"/>
	<path clip-path="url(#SVGID_32_)" fill="#252563" d="M672.352,1333.911l58.181-116.362h-243.51l58.181,116.362
		c19.557-8.21,41.034-12.751,63.574-12.751C631.317,1321.16,652.795,1325.701,672.352,1333.911"/>
</g>
<polygon fill="#FDD118" points="730.534,1217.549 852.289,1461.059 974.044,1217.549 "/>
<polygon fill="#0F8853" points="795.328,1347.137 852.29,1461.06 909.25,1347.137 "/>
<polygon fill="#D32027" points="243.512,1217.549 365.267,1461.059 487.022,1217.549 "/>
<polygon fill="#0F8853" points="392.343,1320.83 392.343,1266.678 338.191,1266.678 338.191,1320.83 365.266,1340.728 "/>
<polygon fill="#D32027" points="974.047,1217.549 1095.802,1461.059 1217.557,1217.549 "/>
<polygon fill="#FFFFFF" points="1136.387,1379.889 1176.972,1298.719 1014.632,1298.719 1055.217,1379.889 "/>
<polygon fill="#D32027" points="1055.217,1379.889 1095.802,1461.059 1136.387,1379.889 "/>
<polygon fill="#D32027" points="1217.558,1217.549 1339.312,1461.059 1461.068,1217.549 "/>
<g>
	<defs>
		<rect id="SVGID_33_" y="-0.004" width="3409.161" height="1948.084"/>
	</defs>
	<clipPath id="SVGID_34_">
		<use xlink:href="#SVGID_33_"  overflow="visible"/>
	</clipPath>
	<path clip-path="url(#SVGID_34_)" fill="#FFFFFF" d="M1393.47,1352.745l67.598-135.196h-243.51l67.597,135.196
		c16.711-6.823,34.993-10.594,54.158-10.594C1358.478,1342.151,1376.759,1345.922,1393.47,1352.745"/>
	<path clip-path="url(#SVGID_34_)" fill="#D32027" d="M1402.887,1333.911l58.181-116.362h-243.51l58.181,116.362
		c19.557-8.21,41.034-12.751,63.574-12.751C1361.852,1321.16,1383.33,1325.701,1402.887,1333.911"/>
</g>
<polygon fill="#D32027" points="1704.583,1217.549 1826.338,1461.059 1948.093,1217.549 "/>
<polygon fill="#FFFFFF" points="1866.923,1379.889 1907.508,1298.719 1745.168,1298.719 1785.753,1379.889 "/>
<polygon fill="#252563" points="1785.753,1379.889 1826.338,1461.06 1866.923,1379.889 "/>
<polygon fill="#FFFFFF" points="1461.072,1217.549 1582.827,1461.059 1704.582,1217.549 "/>
<path fill="#A0CEE8" d="M1655.874,1314.96l48.706-97.411h-48.706V1314.96z M1461.068,1217.549l48.701,97.402v-97.402H1461.068z
	 M1607.172,1217.549h-48.701v194.805l24.352,48.705l24.349-48.696V1217.549z"/>
<polygon fill="#D32027" points="2435.115,1217.549 2556.87,1461.059 2678.625,1217.549 "/>
<g>
	<defs>
		<rect id="SVGID_35_" y="-0.004" width="3409.161" height="1948.084"/>
	</defs>
	<clipPath id="SVGID_36_">
		<use xlink:href="#SVGID_35_"  overflow="visible"/>
	</clipPath>
	<path clip-path="url(#SVGID_36_)" fill="#FFFFFF" d="M2558.057,1340.728c20.448,0,37.025-16.576,37.025-37.024
		s-16.577-37.025-37.025-37.025s-37.025,16.577-37.025,37.025S2537.608,1340.728,2558.057,1340.728"/>
</g>
<polygon fill="#FFFFFF" points="3165.65,1217.549 3287.406,1461.06 3409.16,1217.549 "/>
<polygon fill="#D32027" points="3327.803,1217.549 3287.402,1298.351 3247.001,1217.549 3165.65,1217.549 3287.406,1461.06 
	3409.16,1217.549 "/>
<polygon fill="#D32027" points="2191.604,1217.549 2313.359,1461.059 2435.114,1217.549 "/>
<path fill="#252563" d="M2334.436,1343.646v75.262l37.631-75.262H2334.436z M2254.654,1343.646l37.63,75.26v-75.26H2254.654z
	 M2292.284,1301.496v-83.947h-100.679l41.974,83.947H2292.284z M2393.143,1301.496l41.973-83.947h-100.68v83.947H2393.143z"/>
<polygon fill="#0F8853" points="1948.094,1217.549 2069.849,1461.059 2191.604,1217.549 "/>
<polygon fill="#FFFFFF" points="2110.434,1379.889 2151.019,1298.719 1988.679,1298.719 2029.264,1379.889 "/>
<polygon fill="#0F8853" points="2029.264,1379.889 2069.849,1461.059 2110.434,1379.889 "/>
<polygon fill="#FDD118" points="2678.627,1217.549 2800.381,1461.059 2922.137,1217.549 "/>
<polygon fill="#0F8853" points="2827.457,1320.83 2827.457,1266.678 2773.305,1266.678 2773.305,1320.83 2800.38,1340.728 "/>
<polygon fill="#FFFFFF" points="2922.14,1217.549 3043.895,1461.059 3165.649,1217.549 "/>
<polygon fill="#252563" points="2922.137,1217.549 3043.892,1461.059 3165.646,1217.549 "/>
<polygon fill="#D32027" points="3003.488,1217.549 2922.137,1217.549 3043.892,1461.059 3165.646,1217.549 3084.29,1217.549 
	3043.889,1298.351 "/>
<polygon fill="#FFFFFF" points="243.515,1461.059 365.27,1704.569 487.025,1461.059 "/>
<polygon fill="#FFFFFF" points="243.512,1461.059 365.267,1704.569 487.022,1461.059 "/>
<polygon fill="#0F8853" points="324.863,1461.059 243.512,1461.059 365.267,1704.569 487.022,1461.059 405.665,1461.059 
	365.264,1541.861 "/>
<polygon points="0.001,1461.06 121.757,1704.569 243.512,1461.06 "/>
<polygon fill="#D32027" points="162.342,1623.399 202.927,1542.229 40.586,1542.229 81.171,1623.399 "/>
<polygon fill="#FDD118" points="81.171,1623.399 121.757,1704.569 162.342,1623.399 "/>
<polygon fill="#FDD118" points="487.025,1461.059 608.78,1704.569 730.535,1461.059 "/>
<path fill="#252563" d="M629.856,1587.157v75.262l37.63-75.262H629.856z M550.075,1587.157l37.63,75.26v-75.26H550.075z
	 M587.705,1545.006v-83.947H487.025L529,1545.006H587.705z M688.562,1545.006l41.973-83.947H629.856v83.947H688.562z"/>
<polygon fill="#D32027" points="730.533,1461.059 852.288,1704.569 974.043,1461.059 "/>
<g>
	<defs>
		<rect id="SVGID_37_" y="-0.004" width="3409.161" height="1948.084"/>
	</defs>
	<clipPath id="SVGID_38_">
		<use xlink:href="#SVGID_37_"  overflow="visible"/>
	</clipPath>
	<path clip-path="url(#SVGID_38_)" fill="#252563" d="M853.475,1584.238c20.448,0,37.025-16.577,37.025-37.025
		c0-20.447-16.577-37.024-37.025-37.024s-37.025,16.577-37.025,37.024C816.45,1567.661,833.026,1584.238,853.475,1584.238"/>
</g>
<polygon points="974.047,1461.059 1095.802,1704.569 1217.557,1461.059 "/>
<polygon fill="#D32027" points="1217.558,1461.059 974.048,1461.059 1014.284,1541.531 1177.322,1541.531 "/>
<path fill="#FDD118" d="M1095.807,1541.524l40.759,81.519l80.992-161.984h-81.518L1095.807,1541.524z M1055.566,1461.059h-81.519
	l80.992,161.984l40.76-81.519L1055.566,1461.059z"/>
<polygon fill="#D32027" points="1217.558,1461.059 1339.312,1704.569 1461.067,1461.059 "/>
<polygon fill="#252563" points="1282.352,1590.646 1339.313,1704.569 1396.274,1590.646 "/>
<polygon fill="#D32027" points="1704.583,1461.059 1826.338,1704.569 1948.093,1461.059 "/>
<polygon fill="#FFFFFF" points="1853.413,1564.341 1853.413,1510.188 1799.262,1510.188 1799.262,1564.341 1826.336,1584.238 "/>
<polygon fill="#D32027" points="1461.068,1461.06 1582.823,1704.569 1704.578,1461.06 "/>
<polygon fill="#FFFFFD" points="1948.094,1461.059 2069.848,1704.569 2191.604,1461.059 "/>
<g>
	<defs>
		<rect id="SVGID_39_" y="-0.004" width="3409.161" height="1948.084"/>
	</defs>
	<clipPath id="SVGID_40_">
		<use xlink:href="#SVGID_39_"  overflow="visible"/>
	</clipPath>
	<path clip-path="url(#SVGID_40_)" fill="none" stroke="#D32027" stroke-width="38.18" d="M1978.982,1480.149
		c30.287,60.575,60.578,121.158,90.865,181.733c30.288-60.575,60.58-121.158,90.867-181.733H1978.982z"/>
</g>
<polygon fill="#252563" points="2191.604,1461.059 2313.358,1704.569 2435.113,1461.059 "/>
<polygon fill="#D32027" points="2435.114,1461.059 2191.604,1461.059 2231.84,1541.531 2394.878,1541.531 "/>
<path fill="#FDD118" d="M2313.363,1541.524l40.759,81.519l80.992-161.984h-81.52L2313.363,1541.524z M2273.123,1461.059h-81.52
	l80.992,161.984l40.76-81.519L2273.123,1461.059z"/>
<polygon fill="#0F8853" points="2435.114,1461.059 2556.869,1704.569 2678.624,1461.059 "/>
<polygon fill="#FDD118" points="2597.455,1623.399 2638.039,1542.229 2475.699,1542.229 2516.284,1623.399 "/>
<polygon fill="#D32027" points="2516.285,1623.399 2556.869,1704.569 2597.455,1623.399 "/>
<polygon fill="#252563" points="2678.625,1461.06 2800.38,1704.569 2922.135,1461.06 "/>
<g>
	<defs>
		<rect id="SVGID_41_" y="-0.004" width="3409.161" height="1948.084"/>
	</defs>
	<clipPath id="SVGID_42_">
		<use xlink:href="#SVGID_41_"  overflow="visible"/>
	</clipPath>
	<path clip-path="url(#SVGID_42_)" fill="#D32027" d="M2800.385,1584.238c20.448,0,37.025-16.576,37.025-37.024
		s-16.577-37.025-37.025-37.025s-37.025,16.577-37.025,37.025S2779.937,1584.238,2800.385,1584.238"/>
</g>
<polygon fill="#D32027" points="2922.135,1461.06 3043.891,1704.569 3165.645,1461.06 "/>
<polygon fill="#FFFFFF" points="3165.646,1461.06 3287.4,1704.569 3409.155,1461.06 "/>
<path fill="#A0CEE8" d="M3250.375,1630.52l37.024,74.05l37.026-74.05H3250.375z M3208.01,1545.789l21.183,42.365h116.415
	l21.182-42.365H3208.01z M3165.645,1461.06l21.184,42.365h201.145l21.182-42.365H3165.645z"/>
<polygon fill="#0F8853" points="243.512,1704.569 365.268,1948.08 487.022,1704.569 "/>
<polygon fill="#D32027" points="0.001,1704.569 121.757,1948.08 243.512,1704.569 "/>
<polygon points="64.794,1834.157 121.757,1948.08 178.719,1834.157 "/>
<polygon fill="#D32027" points="487.022,1704.569 608.777,1948.08 730.532,1704.569 "/>
<polygon fill="#0F8853" points="551.816,1834.157 608.778,1948.08 665.739,1834.157 "/>
<polygon fill="#FDD118" points="730.533,1704.569 852.289,1948.08 974.042,1704.569 "/>
<polygon fill="#D32027" points="852.288,1704.569 852.288,1948.08 974.043,1704.569 "/>
<polygon fill="#0F8853" points="974.047,1704.569 1095.804,1948.079 1217.558,1704.569 "/>
<g>
	<defs>
		<rect id="SVGID_43_" y="-0.004" width="3409.161" height="1948.084"/>
	</defs>
	<clipPath id="SVGID_44_">
		<use xlink:href="#SVGID_43_"  overflow="visible"/>
	</clipPath>
	<path clip-path="url(#SVGID_44_)" fill="#FFFFFF" d="M1149.959,1839.766l67.598-135.196h-243.51l67.597,135.196
		c16.711-6.823,34.993-10.594,54.158-10.594S1133.249,1832.942,1149.959,1839.766"/>
	<path clip-path="url(#SVGID_44_)" fill="#0F8853" d="M1159.376,1820.932l58.181-116.362h-243.51l58.181,116.362
		c19.557-8.21,41.034-12.751,63.574-12.751C1118.341,1808.181,1139.819,1812.722,1159.376,1820.932"/>
</g>
<polygon fill="#D32027" points="1461.069,1704.569 1582.825,1948.08 1704.579,1704.569 "/>
<g>
	<defs>
		<rect id="SVGID_45_" y="-0.004" width="3409.161" height="1948.084"/>
	</defs>
	<clipPath id="SVGID_46_">
		<use xlink:href="#SVGID_45_"  overflow="visible"/>
	</clipPath>
	<path clip-path="url(#SVGID_46_)" fill="#FFFFFF" d="M1636.981,1839.766l67.598-135.196h-243.51l67.597,135.196
		c16.711-6.823,34.993-10.593,54.158-10.593S1620.271,1832.942,1636.981,1839.766"/>
	<path clip-path="url(#SVGID_46_)" fill="#252563" d="M1646.398,1820.933l58.181-116.362h-243.51l58.181,116.362
		c19.557-8.21,41.034-12.751,63.574-12.751C1605.363,1808.182,1626.841,1812.723,1646.398,1820.933"/>
</g>
<polygon fill="#FDD118" points="1704.58,1704.569 1826.335,1948.08 1948.09,1704.569 "/>
<polygon fill="#0F8853" points="1769.373,1834.157 1826.335,1948.08 1883.296,1834.157 "/>
<polygon fill="#D32027" points="1217.558,1704.569 1339.313,1948.08 1461.067,1704.569 "/>
<polygon fill="#0F8853" points="1366.389,1807.851 1366.389,1753.698 1312.236,1753.698 1312.236,1807.851 1339.312,1827.749 "/>
<polygon fill="#D32027" points="1948.093,1704.569 2069.848,1948.08 2191.604,1704.569 "/>
<polygon fill="#FFFFFF" points="2110.434,1866.91 2151.018,1785.74 1988.678,1785.74 2029.263,1866.91 "/>
<polygon fill="#D32027" points="2029.264,1866.91 2069.848,1948.08 2110.434,1866.91 "/>
<polygon fill="#D32027" points="2191.604,1704.569 2313.359,1948.08 2435.113,1704.569 "/>
<g>
	<defs>
		<rect id="SVGID_47_" y="-0.004" width="3409.161" height="1948.084"/>
	</defs>
	<clipPath id="SVGID_48_">
		<use xlink:href="#SVGID_47_"  overflow="visible"/>
	</clipPath>
	<path clip-path="url(#SVGID_48_)" fill="#FFFFFF" d="M2367.516,1839.766l67.598-135.196h-243.51l67.598,135.196
		c16.711-6.823,34.992-10.593,54.157-10.593S2350.805,1832.942,2367.516,1839.766"/>
	<path clip-path="url(#SVGID_48_)" fill="#D32027" d="M2376.933,1820.933l58.181-116.362h-243.51l58.181,116.362
		c19.558-8.21,41.034-12.751,63.574-12.751S2357.375,1812.723,2376.933,1820.933"/>
</g>
<polygon fill="#D32027" points="2678.628,1704.569 2800.384,1948.08 2922.139,1704.569 "/>
<polygon fill="#FFFFFF" points="2840.969,1866.91 2881.553,1785.74 2719.213,1785.74 2759.798,1866.91 "/>
<polygon fill="#252563" points="2759.799,1866.91 2800.384,1948.08 2840.968,1866.91 "/>
<polygon fill="#FFFFFF" points="2435.117,1704.569 2556.873,1948.08 2678.627,1704.569 "/>
<path fill="#A0CEE8" d="M2435.114,1704.569l48.701,97.402v-97.402H2435.114z M2532.517,1704.569v194.806l24.353,48.705
	l24.349-48.697v-194.813H2532.517z M2629.92,1704.569v97.411l48.705-97.411H2629.92z"/>
<polygon fill="#D32027" points="3165.65,1704.569 3287.406,1948.08 3409.16,1704.569 "/>
<path fill="#252563" d="M3228.701,1830.668l37.629,75.26v-75.26H3228.701z M3308.482,1830.668v75.262l37.629-75.262H3308.482z
	 M3165.65,1704.569l41.974,83.947h58.706v-83.947H3165.65z M3308.482,1704.569v83.947h58.705l41.974-83.947H3308.482z"/>
<polygon fill="#0F8853" points="2922.139,1704.569 3043.895,1948.08 3165.648,1704.569 "/>
<polygon fill="#FFFFFF" points="3084.479,1866.91 3125.064,1785.74 2962.725,1785.74 3003.31,1866.91 "/>
<polygon fill="#0F8853" points="3003.309,1866.91 3043.895,1948.08 3084.479,1866.91 "/>
</svg>
